<?xml version="1.0" standalone="no"?>
<!DOCTYPE svg PUBLIC "-//W3C//DTD SVG 1.1//EN" "http://www.w3.org/Graphics/SVG/1.1/DTD/svg11.dtd" >
<svg>
<metadata>
Created by FontForge 20110222 at Fri May 15 10:42:27 2015
 By www-data
(c) 2015, Copyright by Line to. All rights reserved.
</metadata>
<defs>
<font id="." horiz-adv-x="565" >
  <font-face 
    font-family="."
    font-weight="300"
    font-stretch="normal"
    units-per-em="1000"
    panose-1="2 11 4 4 2 1 1 2 1 2"
    ascent="750"
    descent="-250"
    x-height="477"
    cap-height="709"
    bbox="-198 -378 4910 1033"
    underline-thickness="50"
    underline-position="-50"
    unicode-range="U+000D-FEFF"
  />
<missing-glyph horiz-adv-x="537" 
 />
    <glyph glyph-name="f_y" unicode="fy" horiz-adv-x="807" 
d="M415 -190l119 252l-177 361h-182v-423h-60v423h-98v54h98v99q0 76 41 115t101 39q19 0 32.5 -3t21.5 -7v-54q-7 3 -18 5.5t-27 2.5q-18 0 -34.5 -5t-29 -17t-20 -31.5t-7.5 -47.5v-96h223l167 -352l158 352h66l-309 -667h-65z" />
    <glyph glyph-name=".notdef" horiz-adv-x="537" 
 />
    <glyph glyph-name=".null" horiz-adv-x="0" 
 />
    <glyph glyph-name="nonmarkingreturn" horiz-adv-x="1000" 
 />
    <glyph glyph-name="uni000D" unicode="&#xd;" horiz-adv-x="259" 
 />
    <glyph glyph-name="space" unicode=" " horiz-adv-x="259" 
 />
    <glyph glyph-name="exclam" unicode="!" horiz-adv-x="227" 
d="M135 189h-41l-18 520h76zM112 -4q-21 0 -35.5 14.5t-14.5 34.5q0 21 14.5 35.5t35.5 14.5t35.5 -14.5t14.5 -35.5q0 -20 -14.5 -34.5t-35.5 -14.5z" />
    <glyph glyph-name="quotedbl" unicode="&#x22;" horiz-adv-x="319" 
d="M50 673q0 20 12.5 32t30.5 12t30.5 -12t12.5 -32q0 -6 -1 -15.5t-3 -17.5l-28 -152h-23l-27 152q-2 7 -3 17t-1 16zM183 673q0 20 12.5 32t30.5 12q19 0 31 -12t12 -32q0 -6 -0.5 -15.5t-2.5 -17.5l-29 -152h-22l-28 152q-2 7 -3 17t-1 16z" />
    <glyph glyph-name="numbersign" unicode="#" horiz-adv-x="724" 
d="M464 449h-174l-38 -192h173zM416 207h-173l-41 -207h-55l41 207h-148v50h157l38 192h-146v49h155l42 211h55l-42 -211h173l42 211h55l-42 -211h157v-49h-166l-38 -192h154v-50h-163l-41 -207h-55z" />
    <glyph glyph-name="dollar" unicode="$" horiz-adv-x="555" 
d="M258 393v260q-29 -3 -54 -14t-43 -28.5t-28.5 -39.5t-10.5 -48q0 -97 106 -123zM308 321v-268q69 7 105.5 45.5t36.5 88.5q0 51 -31.5 83t-89.5 46zM258 -113v114q-51 4 -90.5 22t-67 46t-43.5 63.5t-20 73.5l54 17q3 -30 15 -59t33 -52.5t51 -39t68 -19.5v280l-42 10
q-68 15 -110.5 59t-42.5 116q0 39 15.5 72.5t41.5 58.5t61.5 40.5t76.5 18.5v115h50v-116q43 -4 76 -19t57 -37.5t39 -51.5t22 -60l-54 -18q-5 23 -16 45t-28 40t-41 30t-55 16v-270l32 -7q79 -18 124.5 -64t45.5 -120q0 -38 -14.5 -71t-40.5 -58.5t-63.5 -41.5t-83.5 -19
v-114h-50z" />
    <glyph glyph-name="percent" unicode="%" horiz-adv-x="799" 
d="M133 0l473 709h59l-473 -709h-59zM344 564q0 -32 -12.5 -60t-33.5 -49t-49 -33t-59 -12q-32 0 -60 12t-49 33t-33 49t-12 60t12 60t33 48.5t49 32.5t60 12q31 0 59 -12t49 -32.5t33.5 -48.5t12.5 -60zM89 564q0 -45 29 -74.5t72 -29.5q21 0 39 8t31.5 22t21.5 33t8 41
t-8 40.5t-21.5 32.5t-31.5 22t-39 8q-43 0 -72 -29.5t-29 -73.5zM455 146q0 32 12 60t33 48.5t49 32.5t60 12t60 -12t49 -32.5t33 -48.5t12 -60t-12 -60t-33 -49t-49 -33t-60 -12t-60 12t-49 33t-33 49t-12 60zM709 146q0 44 -28.5 73.5t-71.5 29.5q-21 0 -39.5 -8t-32 -22
t-21 -32.5t-7.5 -40.5t7.5 -41t21 -33t32 -22t39.5 -8q43 0 71.5 29.5t28.5 74.5z" />
    <glyph glyph-name="ampersand" unicode="&#x26;" horiz-adv-x="663" 
d="M453 110q-48 -57 -96.5 -89t-109.5 -32q-47 0 -82.5 15t-60.5 39.5t-37.5 56t-12.5 65.5q0 33 9 60t25.5 50t39 44t49.5 41l20 15l-31 31q-27 27 -51 64.5t-24 84.5q0 37 14 67.5t37 52.5t54 34.5t66 12.5q37 0 69 -12t54.5 -33.5t35.5 -51t13 -65.5q0 -25 -8.5 -46.5
t-22 -40.5t-31 -35t-35.5 -30l-53 -39l168 -173l146 176v-86l-107 -130l151 -156h-84zM246 407l59 46q32 25 49.5 51t17.5 58q0 22 -8 41.5t-22.5 33.5t-34.5 22.5t-44 8.5q-48 0 -79.5 -30.5t-31.5 -78.5q0 -32 16.5 -60t40.5 -52zM249 47q48 0 87.5 30t76.5 74l-178 183
l-33 -26q-35 -28 -59.5 -60t-24.5 -78q0 -24 9 -46.5t25.5 -39.5t41 -27t55.5 -10z" />
    <glyph glyph-name="quotesingle" unicode="'" horiz-adv-x="186" 
d="M50 673q0 20 12.5 32t30.5 12t30.5 -12t12.5 -32q0 -6 -1 -15.5t-3 -17.5l-28 -152h-23l-27 152q-2 7 -3 17t-1 16z" />
    <glyph glyph-name="parenleft" unicode="(" horiz-adv-x="285" 
d="M49 317q0 80 14 148t38.5 126t58.5 107t73 91l37 -32q-77 -86 -122.5 -192.5t-45.5 -247.5q0 -71 12 -132.5t34 -115.5t53 -101.5t69 -90.5l-37 -32q-39 41 -73 89.5t-58.5 107t-38.5 127t-14 148.5z" />
    <glyph glyph-name="parenright" unicode=")" horiz-adv-x="285" 
d="M236 317q0 -80 -14 -148.5t-38.5 -127t-58.5 -107t-73 -89.5l-37 32q76 85 122 192t46 248q0 70 -12 132t-34 116t-53 101.5t-69 90.5l37 32q39 -42 73 -91t58.5 -107t38.5 -126t14 -148z" />
    <glyph glyph-name="asterisk" unicode="*" horiz-adv-x="447" 
d="M248 562l139 48l15 -46l-140 -48l91 -123l-39 -30l-92 126l-88 -125l-39 30l88 122l-139 47l16 47l137 -49v148h51v-147z" />
    <glyph glyph-name="plus" unicode="+" horiz-adv-x="537" 
d="M294 373h195v-50h-195v-210h-53v210h-194v50h194v207h53v-207z" />
    <glyph glyph-name="comma" unicode="," horiz-adv-x="239" 
d="M63 48q0 20 15.5 35t38.5 15t41 -18t18 -53q0 -38 -10.5 -67.5t-27 -51.5t-38 -36t-43.5 -19v37q34 11 54 43.5t21 67.5q-5 -5 -19 -5q-21 0 -35.5 14.5t-14.5 37.5z" />
    <glyph glyph-name="hyphen" unicode="-" horiz-adv-x="401" 
d="M69 260v54h263v-54h-263z" />
    <glyph glyph-name="period" unicode="." horiz-adv-x="229" 
d="M62 48q0 22 15 37.5t37 15.5q23 0 38 -15.5t15 -37.5t-15 -37t-38 -15q-22 0 -37 15t-15 37z" />
    <glyph glyph-name="slash" unicode="/" horiz-adv-x="465" 
d="M92 0h-60l343 709h59z" />
    <glyph glyph-name="zero" unicode="0" horiz-adv-x="650" 
d="M119 354q0 -67 12 -124t37 -99t64 -65.5t93 -23.5t92.5 24t64 66t37.5 99t12 123t-12 123.5t-37.5 99.5t-64 66t-92.5 24t-93 -24t-64 -66t-37 -99t-12 -124zM58 354q0 67 13.5 132.5t44.5 118t82.5 85t126.5 32.5t126 -32.5t82.5 -85t45 -118t13.5 -132.5t-13.5 -132.5
t-45 -117.5t-82.5 -84.5t-126 -32.5t-126.5 32.5t-82.5 84.5t-44.5 117.5t-13.5 132.5z" />
    <glyph glyph-name="one" unicode="1" horiz-adv-x="345" 
d="M266 0h-61v594q-12 -16 -31.5 -30.5t-43.5 -26t-50.5 -19t-51.5 -7.5v52q36 3 66 15.5t53.5 32t39.5 45t22 53.5h57v-709z" />
    <glyph glyph-name="two" unicode="2" horiz-adv-x="578" 
d="M55 0q2 83 45.5 146t131.5 123l105 71q51 35 83 77.5t32 95.5q0 31 -10.5 59t-31 49t-50 33.5t-68.5 12.5t-71 -12.5t-54.5 -35.5t-34.5 -55t-12 -71v-16.5t2 -17.5l-62 9q-1 7 -1.5 16.5t-0.5 15.5q0 47 17.5 87.5t49 70.5t74 47t93.5 17q54 0 95.5 -16.5t70 -45
t43 -66.5t14.5 -80q0 -59 -27.5 -103.5t-69.5 -81t-92.5 -67.5t-96.5 -62q-35 -24 -63 -59t-36 -83h394v-58h-469z" />
    <glyph glyph-name="three" unicode="3" horiz-adv-x="605" 
d="M335 418q41 0 80 -13t69 -39.5t48 -65.5t18 -91q0 -49 -19 -90t-52.5 -70t-79 -45.5t-97.5 -16.5q-55 0 -100.5 16.5t-78.5 45t-52.5 68t-22.5 85.5l60 14q2 -41 18.5 -73.5t43.5 -55t61 -34t72 -11.5q40 0 73.5 12.5t58.5 34.5t39 52t14 66q0 39 -14 69t-38 50
t-55.5 30.5t-67.5 10.5q-33 0 -67 -9l-30 52l238 241h-388v58h469v-58l-234 -236q18 3 34 3z" />
    <glyph glyph-name="four" unicode="4" horiz-adv-x="605" 
d="M31 248l326 461h90v-478h126v-56h-126v-175h-60v175h-356v73zM387 653l-298 -422h298v422z" />
    <glyph glyph-name="five" unicode="5" horiz-adv-x="587" 
d="M98 213q3 -37 18 -68t40.5 -54t59 -36t72.5 -13q40 0 74 13.5t59 37t39 56t14 70.5q0 41 -14.5 74.5t-39 57t-58.5 36.5t-73 13q-47 0 -88 -19t-72 -53l-62 25l91 356h352v-57h-311l-67 -265q32 35 77 51.5t91 16.5q52 0 95.5 -17t75 -48t49 -74t17.5 -95q0 -48 -18 -91
t-50.5 -74.5t-78.5 -50t-102 -18.5q-53 0 -97 16.5t-76.5 45t-52.5 66t-24 80.5z" />
    <glyph glyph-name="six" unicode="6" horiz-adv-x="622" 
d="M136 224q0 -41 15.5 -75t41 -58t59 -37t70.5 -13q38 0 72 13t59.5 37t40 58t14.5 75q0 43 -14.5 77t-39.5 58t-58.5 36.5t-71.5 12.5t-72.5 -14t-60 -38.5t-40.5 -58.5t-15 -73zM333 463q51 0 94.5 -16.5t75.5 -48t50 -76t18 -99.5q0 -54 -20.5 -97.5t-55 -74.5
t-79.5 -47.5t-95 -16.5q-56 0 -104.5 21t-84 63t-56 103.5t-20.5 142.5q0 101 28 177t75 126.5t110 76t132 25.5q49 0 87.5 -11t64.5 -28l-20 -53q-22 14 -55.5 24.5t-79.5 10.5q-71 0 -123 -28t-87.5 -74.5t-53.5 -108t-19 -127.5q28 65 85.5 100.5t132.5 35.5z" />
    <glyph glyph-name="seven" unicode="7" horiz-adv-x="543" 
d="M531 646q-50 -47 -101.5 -107t-96 -138.5t-78 -177.5t-46.5 -223h-64q13 134 51.5 240t86.5 186t97 136t85 90h-439v57h505v-63z" />
    <glyph glyph-name="eight" unicode="8" horiz-adv-x="606" 
d="M303 -13q-58 0 -104 15.5t-77.5 42t-48 62t-16.5 76.5q0 33 11.5 62t32 52.5t48 40t60.5 25.5q-29 8 -53.5 23.5t-42.5 37.5t-28.5 49.5t-10.5 58.5q0 41 17 75.5t47 60t72 40t93 14.5q50 0 92 -14.5t72.5 -40t47.5 -60t17 -75.5q0 -31 -10.5 -58t-28.5 -49t-43 -38
t-54 -24q33 -9 60.5 -25.5t48 -40t32 -52.5t11.5 -62q0 -41 -16.5 -76.5t-48 -62t-77 -42t-103.5 -15.5zM303 389q37 0 67.5 10.5t52.5 29t34.5 44.5t12.5 57q0 30 -11.5 55.5t-33.5 44.5t-52.5 29.5t-69.5 10.5t-70 -10.5t-53 -29.5t-33.5 -44.5t-11.5 -55.5
q0 -31 12.5 -57t34.5 -44.5t53 -29t68 -10.5zM303 42q43 0 76.5 11.5t57 31t36 46t12.5 57.5t-12 58t-35.5 47t-57.5 31.5t-77 11.5q-44 0 -78 -11.5t-57.5 -31.5t-35.5 -47t-12 -58t12.5 -57.5t36 -46t57.5 -31t77 -11.5z" />
    <glyph glyph-name="nine" unicode="9" horiz-adv-x="621" 
d="M501 385q-8 -30 -28 -55t-48 -43t-62.5 -28.5t-73.5 -10.5q-46 0 -89 16.5t-76 47t-53 74t-20 98.5q0 53 20.5 96.5t54.5 75t79 49t94 17.5q57 0 105.5 -21.5t84 -63t55 -103t19.5 -142.5q0 -201 -84 -303t-245 -102q-42 0 -89 11.5t-78 31.5l23 53q27 -17 67 -28.5
t78 -11.5q133 0 199 84t67 243v15zM483 485q0 41 -15.5 74.5t-41 57t-59 36.5t-69.5 13t-69.5 -13t-59 -36.5t-40.5 -57t-15 -74.5q0 -42 15 -75.5t40 -57t58.5 -36t70.5 -12.5t70.5 13t59 36.5t40.5 57t15 74.5z" />
    <glyph glyph-name="colon" unicode=":" horiz-adv-x="243" 
d="M69 428q0 22 15 37.5t37 15.5q23 0 38 -15.5t15 -37.5t-15 -37t-38 -15q-22 0 -37 15t-15 37zM69 48q0 22 15 37.5t37 15.5q23 0 38 -15.5t15 -37.5t-15 -37t-38 -15q-22 0 -37 15t-15 37z" />
    <glyph glyph-name="semicolon" unicode=";" horiz-adv-x="262" 
d="M77 47q0 20 15 34.5t38 14.5q22 0 40 -17.5t18 -51.5q0 -38 -10.5 -67t-26.5 -50.5t-37 -35t-43 -18.5v36q33 11 53 43t21 66q-5 -5 -19 -5q-21 0 -35 14.5t-14 36.5zM75 428q0 22 15 37.5t37 15.5q23 0 38 -15.5t15 -37.5t-15 -37t-38 -15q-22 0 -37 15t-15 37z" />
    <glyph glyph-name="less" unicode="&#x3c;" horiz-adv-x="524" 
d="M443 174v-61l-402 207v55l402 207v-60l-343 -174z" />
    <glyph glyph-name="equal" unicode="=" horiz-adv-x="591" 
d="M72 420v50h447v-50h-447zM72 226v51h447v-51h-447z" />
    <glyph glyph-name="greater" unicode="&#x3e;" horiz-adv-x="524" 
d="M425 348l-344 174v60l402 -207v-55l-402 -207v61z" />
    <glyph glyph-name="question" unicode="?" horiz-adv-x="489" 
d="M206 189q-2 8 -2.5 17.5t-0.5 20.5q0 47 17 82.5t55 64.5l44 34q32 24 50.5 55t18.5 68q0 27 -9 51t-27 43t-44.5 30t-60.5 11q-38 0 -66 -12.5t-46 -33t-27 -47t-9 -54.5q0 -25 8 -54l-61 9q-8 23 -8 51q0 35 12.5 70.5t38.5 63.5t65 45.5t93 17.5q48 0 86 -16
t64.5 -42.5t40 -61t13.5 -70.5q0 -55 -27.5 -97t-72.5 -75l-45 -33q-28 -20 -37.5 -48.5t-9.5 -57.5q0 -9 0.5 -17t1.5 -15h-55zM234 -4q-21 0 -35.5 14.5t-14.5 34.5q0 21 14.5 35.5t35.5 14.5t35.5 -14.5t14.5 -35.5q0 -20 -14.5 -34.5t-35.5 -14.5z" />
    <glyph glyph-name="at" unicode="@" horiz-adv-x="825" 
d="M601 145q-42 0 -66.5 21.5t-27.5 56.5q-20 -37 -53.5 -58t-71.5 -21q-31 0 -58 12t-46.5 34t-30.5 52.5t-11 68.5q0 45 14.5 86t40.5 71.5t61 49t76 18.5q38 0 70.5 -21t40.5 -60l12 69h51l-50 -250q-3 -15 -3 -28q0 -23 12 -39.5t43 -16.5q24 0 47.5 16t41.5 43.5
t29.5 65.5t11.5 82q0 54 -20.5 104t-59 89t-94.5 62t-127 23q-69 0 -128.5 -25.5t-104 -71t-69.5 -108.5t-25 -137q0 -70 23 -130.5t66.5 -104.5t105.5 -69.5t140 -25.5q66 0 126.5 23t108.5 68l27 -34q-24 -24 -54 -43.5t-64.5 -33t-71 -20.5t-72.5 -7q-86 0 -157.5 28
t-122.5 78t-79.5 119.5t-28.5 152.5q0 84 30 155t82 122.5t120.5 81t146.5 29.5q80 0 145 -26.5t111.5 -71.5t71.5 -103.5t25 -122.5q0 -56 -15.5 -102t-41.5 -80t-59 -52.5t-68 -18.5zM521 383q0 47 -24.5 76t-71.5 29q-28 0 -53 -14t-43.5 -37t-29 -54t-10.5 -65
q0 -25 6 -48t18 -40t30.5 -27.5t44.5 -10.5q33 0 57.5 16.5t41 43t25 61t9.5 70.5z" />
    <glyph glyph-name="A" unicode="A" horiz-adv-x="694" 
d="M516 219h-339l-87 -219h-68l287 709h76l287 -709h-68zM200 277h293l-147 369z" />
    <glyph glyph-name="B" unicode="B" horiz-adv-x="603" 
d="M305 709q51 0 91 -14t67.5 -38.5t42 -59.5t14.5 -77q0 -57 -30 -98t-78 -58q29 -7 53 -23.5t41.5 -39.5t27 -51t9.5 -59q0 -42 -16 -77t-44.5 -60.5t-68.5 -39.5t-89 -14h-224v709h204zM321 386q29 0 54 9.5t43 27t28 41t10 52.5q0 63 -41 100t-116 37h-135v-267h157z
M319 56q73 0 116.5 37.5t43.5 101.5q0 30 -10.5 55t-30 43t-46.5 28t-60 10h-168v-275h155z" />
    <glyph glyph-name="C" unicode="C" horiz-adv-x="746" 
d="M399 -13q-66 0 -128.5 24t-111 70.5t-78 115t-29.5 157.5t29.5 157.5t78.5 115.5t111.5 71t127.5 24q60 0 110.5 -16.5t89.5 -46t66 -71t39 -92.5l-57 -20q-21 88 -86 138t-162 50q-54 0 -105 -20t-90.5 -59t-63.5 -97t-24 -134t24 -133.5t63.5 -96.5t90.5 -59t105 -20
q50 0 91.5 14t74 39.5t54.5 60.5t33 77l55 -20q-13 -50 -40 -92t-66.5 -72.5t-90.5 -47.5t-111 -17z" />
    <glyph glyph-name="D" unicode="D" horiz-adv-x="712" 
d="M318 56q55 0 105 18.5t88 55.5t60.5 93t22.5 130q0 75 -22 131t-59.5 93.5t-87.5 56.5t-105 19h-156v-597h154zM101 0v709h221q67 0 128.5 -23t107.5 -68t73.5 -111.5t27.5 -153.5t-27.5 -153t-74.5 -110.5t-108.5 -67t-128.5 -22.5h-219z" />
    <glyph glyph-name="E" unicode="E" horiz-adv-x="575" 
d="M101 0v709h418v-58h-354v-267h323v-58h-323v-268h354v-58h-418z" />
    <glyph glyph-name="F" unicode="F" horiz-adv-x="571" 
d="M101 0v709h420v-58h-356v-275h325v-58h-325v-318h-64z" />
    <glyph glyph-name="G" unicode="G" horiz-adv-x="766" 
d="M649 0l-6 137q-10 -23 -30 -49t-51 -48.5t-74.5 -37.5t-101.5 -15q-62 0 -122 24t-107 70.5t-76 115t-29 158.5q0 89 29 157.5t77 115t110 70.5t127 24q57 0 106.5 -15.5t89 -43.5t68.5 -67t44 -87l-57 -24q-26 83 -91.5 131t-159.5 48q-54 0 -104 -19.5t-89 -58.5
t-62.5 -97t-23.5 -134q0 -77 23.5 -135t62 -97t87.5 -59t99 -20q70 0 117.5 23.5t77 58.5t42.5 75t14 74h-262v58h322v-333h-50z" />
    <glyph glyph-name="H" unicode="H" horiz-adv-x="736" 
d="M571 0v331h-406v-331h-64v709h64v-320h406v320h64v-709h-64z" />
    <glyph glyph-name="I" unicode="I" horiz-adv-x="266" 
d="M101 0v709h64v-709h-64z" />
    <glyph glyph-name="J" unicode="J" horiz-adv-x="537" 
d="M33 253l63 15v-57q0 -79 38 -122.5t106 -43.5t104 43.5t36 119.5v501h64v-500q0 -48 -14 -89t-40 -70.5t-64 -46t-86 -16.5q-97 0 -152 59.5t-55 161.5v45z" />
    <glyph glyph-name="K" unicode="K" horiz-adv-x="638" 
d="M287 349l-122 -130v-219h-64v709h64v-406l376 406h83l-295 -315l299 -394h-80z" />
    <glyph glyph-name="L" unicode="L" horiz-adv-x="544" 
d="M101 0v709h64v-651h358v-58h-422z" />
    <glyph glyph-name="M" unicode="M" horiz-adv-x="945" 
d="M780 0v614l-278 -614h-60l-277 614v-614h-64v709h90l282 -626l282 626h89v-709h-64z" />
    <glyph glyph-name="N" unicode="N" horiz-adv-x="763" 
d="M594 0l-429 630v-630h-64v709h88l409 -605v605h64v-709h-68z" />
    <glyph glyph-name="O" unicode="O" horiz-adv-x="797" 
d="M116 354q0 -76 23.5 -133.5t63 -96.5t90.5 -59t105 -20t105 20t90.5 59t63.5 96.5t24 133.5t-24 134t-63.5 97t-90.5 59t-105 20t-105 -20t-90.5 -59t-63 -97t-23.5 -134zM52 354q0 89 29.5 157.5t78 115.5t111 71t127.5 24t127.5 -24t111 -71t78.5 -115.5t30 -157.5
t-30 -157.5t-78.5 -115t-111 -70.5t-127.5 -24t-127.5 24t-111 70.5t-78 115t-29.5 157.5z" />
    <glyph glyph-name="P" unicode="P" horiz-adv-x="585" 
d="M325 357q76 0 119.5 40.5t43.5 106.5t-43.5 107t-119.5 41h-160v-295h160zM165 300v-300h-64v709h234q49 0 89 -15.5t68.5 -43t44 -65t15.5 -81.5t-15.5 -81.5t-44 -64.5t-68.5 -42.5t-89 -15.5h-170z" />
    <glyph glyph-name="Q" unicode="Q" horiz-adv-x="797" 
d="M598 50q-44 -32 -95 -47.5t-105 -15.5q-65 0 -127.5 24t-111 70.5t-78 115t-29.5 157.5t29.5 157.5t78 115.5t111 71t127.5 24t127.5 -24t111 -71t78.5 -115.5t30 -157.5q0 -87 -28.5 -153.5t-74.5 -113.5l92 -102l-42 -38zM398 45q88 0 160 49l-141 156l44 38l140 -156
q36 39 58 94.5t22 127.5q0 76 -24 134t-63.5 97t-90.5 59t-105 20t-105 -20t-90.5 -59t-63 -97t-23.5 -134t23.5 -133.5t63 -96.5t90.5 -59t105 -20z" />
    <glyph glyph-name="R" unicode="R" horiz-adv-x="613" 
d="M313 307h-148v-307h-64v709h247q48 0 86.5 -15.5t66.5 -42.5t43 -64t15 -80q0 -39 -12.5 -72.5t-35.5 -59t-56 -42.5t-73 -22l176 -311h-74zM338 364q71 0 114 39t43 104q0 66 -43 105.5t-114 39.5h-173v-288h173z" />
    <glyph glyph-name="S" unicode="S" horiz-adv-x="582" 
d="M467 528q-6 27 -18.5 52t-33.5 44t-51 30.5t-70 11.5q-32 0 -61 -10t-51.5 -28.5t-36 -44.5t-13.5 -57q0 -48 29 -80t83 -45l108 -25q83 -20 130.5 -67.5t47.5 -122.5q0 -41 -16.5 -77t-47.5 -63t-74 -43t-97 -16q-59 0 -104 18t-77 47t-50.5 67t-22.5 79l59 19
q3 -35 17.5 -66t39.5 -55t59.5 -38t78.5 -14q41 0 73 10.5t54 29t33.5 43.5t11.5 54q0 50 -33 84.5t-94 48.5l-107 25q-36 8 -66 23.5t-51.5 38.5t-34 53t-12.5 68q0 41 18.5 77.5t49 63.5t71 43t84.5 16q54 0 94.5 -14.5t68 -38.5t44 -55.5t24.5 -65.5z" />
    <glyph glyph-name="T" unicode="T" horiz-adv-x="603" 
d="M333 651v-651h-64v651h-250v58h565v-58h-251z" />
    <glyph glyph-name="U" unicode="U" horiz-adv-x="672" 
d="M336 -13q-54 0 -98.5 16t-77 47.5t-50 78t-17.5 107.5v473h64v-470q0 -94 45.5 -144t133.5 -50t133.5 50t45.5 144v470h64v-473q0 -60 -17.5 -106.5t-49.5 -78t-77 -48t-99 -16.5z" />
    <glyph glyph-name="V" unicode="V" horiz-adv-x="655" 
d="M564 709h67l-273 -709h-63l-269 709h68l234 -633z" />
    <glyph glyph-name="W" unicode="W" horiz-adv-x="990" 
d="M900 709h65l-204 -709h-69l-198 626l-198 -626h-66l-207 709h66l175 -620l196 620h69l197 -620z" />
    <glyph glyph-name="X" unicode="X" horiz-adv-x="591" 
d="M332 356l238 -356h-75l-199 305l-203 -305h-74l240 356l-238 353h76l199 -304l200 304h75z" />
    <glyph glyph-name="Y" unicode="Y" horiz-adv-x="616" 
d="M29 709h75l204 -347l205 347h74l-248 -406v-303h-62v303z" />
    <glyph glyph-name="Z" unicode="Z" horiz-adv-x="624" 
d="M40 0v65l466 586h-460v58h534v-63l-467 -588h470v-58h-543z" />
    <glyph glyph-name="bracketleft" unicode="[" horiz-adv-x="260" 
d="M76 -141v918h154v-49h-101v-820h101v-49h-154z" />
    <glyph glyph-name="backslash" unicode="\" horiz-adv-x="466" 
d="M31 709h61l341 -709h-60z" />
    <glyph glyph-name="bracketright" unicode="]" horiz-adv-x="260" 
d="M30 -141v49h101v820h-101v49h154v-918h-154z" />
    <glyph glyph-name="asciicircum" unicode="^" horiz-adv-x="530" 
d="M422 355l-156 293l-158 -293h-63l194 354h53l193 -354h-63z" />
    <glyph glyph-name="underscore" unicode="_" horiz-adv-x="522" 
d="M5 -50v50h512v-50h-512z" />
    <glyph glyph-name="grave" unicode="`" horiz-adv-x="248" 
d="M41 676h76l89 -139h-47z" />
    <glyph glyph-name="a" unicode="a" horiz-adv-x="500" 
d="M201 -12q-38 0 -67 11.5t-48.5 30t-30 43t-10.5 50.5q0 61 38.5 96t104.5 45l127 19q31 5 40.5 17t9.5 29q0 48 -30.5 78t-89.5 30q-57 0 -92.5 -29.5t-41.5 -81.5l-56 12q4 34 20 62t40.5 47.5t57.5 30.5t71 11q46 0 80.5 -13t56.5 -35.5t33 -53t11 -64.5v-241
q0 -29 2 -48t5 -34h-59q-2 8 -4 30.5t-2 51.5q-8 -17 -23 -33.5t-36 -30t-47.5 -22t-59.5 -8.5zM208 39q34 0 63 11t50 31t32.5 49t11.5 65v54q-2 -2 -11.5 -6t-23.5 -6l-133 -20q-42 -6 -66.5 -29t-24.5 -62q0 -33 26 -60t76 -27z" />
    <glyph glyph-name="b" unicode="b" horiz-adv-x="577" 
d="M80 0v722h60v-337q8 18 22.5 36.5t36 33.5t50 25t64.5 10q50 0 90 -19.5t68 -53t43 -79.5t15 -99t-15.5 -99t-44 -80t-68.5 -53.5t-90 -19.5q-35 0 -62.5 9.5t-48.5 24.5t-36.5 34t-24.5 38v-93h-59zM304 41q37 0 67 14.5t52 41t34 62.5t12 80q0 43 -12 79t-34 62.5
t-52 41t-67 14.5t-67.5 -14.5t-52 -41t-33.5 -62.5t-12 -79q0 -44 12 -80t33.5 -62.5t52 -41t67.5 -14.5z" />
    <glyph glyph-name="c" unicode="c" horiz-adv-x="529" 
d="M281 436q-36 0 -67.5 -13.5t-55 -39t-37.5 -62.5t-14 -83q0 -45 13.5 -81.5t37.5 -62t55.5 -39.5t67.5 -14q34 0 60.5 11t45.5 28t31 37.5t18 40.5l53 -22q-9 -28 -26 -54.5t-43.5 -47.5t-61 -34t-77.5 -13q-51 0 -93.5 18.5t-74 52t-49 79.5t-17.5 101t17.5 101.5t49 80
t74.5 52t93 18.5q43 0 77 -12t59.5 -33t42.5 -48t25 -57l-53 -22q-6 21 -17.5 42t-29.5 38t-44 27.5t-60 10.5z" />
    <glyph glyph-name="d" unicode="d" horiz-adv-x="574" 
d="M107 239q0 -42 11.5 -78t33 -63t52 -42t68.5 -15q37 0 67 15t51 42t32.5 63t11.5 78t-11.5 78.5t-32.5 62.5t-50.5 41t-66.5 15q-38 0 -68.5 -14.5t-52 -41t-33.5 -62.5t-12 -79zM434 94q-8 -18 -22 -37t-34.5 -34.5t-48 -25.5t-62.5 -10q-50 0 -91 19.5t-69.5 53.5
t-44 80t-15.5 99q0 52 16 98t44.5 80t69 53.5t90.5 19.5q38 0 66.5 -10.5t48.5 -26t32.5 -33.5t18.5 -33v335h60v-631q0 -38 2 -62.5t3 -28.5h-59q-2 9 -3.5 29t-1.5 46v19z" />
    <glyph glyph-name="e" unicode="e" horiz-adv-x="535" 
d="M428 277q-1 33 -12 62t-31 50.5t-49.5 34t-66.5 12.5q-33 0 -61.5 -12.5t-49.5 -34t-33.5 -50.5t-14.5 -62h318zM488 135q-10 -30 -28.5 -57t-45 -47.5t-60.5 -32t-75 -11.5q-47 0 -89.5 17t-74 49.5t-50 79.5t-18.5 107q0 56 18 102t48 79t70 51t85 18q53 0 94 -18
t69.5 -50t44 -76t15.5 -97v-11t-1 -11h-382v-4q0 -41 13.5 -74.5t37 -57.5t54.5 -37t66 -13q64 0 102.5 33t53.5 80z" />
    <glyph glyph-name="f" unicode="f" horiz-adv-x="326" 
d="M175 423v-423h-60v423h-98v54h98v99q0 76 41 115t101 39q19 0 32.5 -3t21.5 -7v-54q-7 3 -18 5.5t-27 2.5q-18 0 -34.5 -5t-29 -17t-20 -31.5t-7.5 -47.5v-96h133v-54h-133z" />
    <glyph glyph-name="g" unicode="g" horiz-adv-x="562" 
d="M105 -13q3 -28 15.5 -53t32.5 -43.5t46.5 -29.5t58.5 -11q47 0 78.5 15t50.5 40t27 58.5t8 70.5v88q-8 -18 -22 -35.5t-34 -31t-46 -22t-59 -8.5q-47 0 -86 17.5t-67.5 48.5t-44 73.5t-15.5 92.5q0 49 15.5 91t43.5 73t67 49t87 18q33 0 59.5 -7.5t46 -20.5t33.5 -30
t23 -35v82h59v-442q0 -42 -10.5 -84t-36 -76.5t-69 -56t-109.5 -21.5q-44 0 -80 13.5t-63.5 37t-44.5 55.5t-21 70zM268 77q35 0 64 13.5t49.5 37.5t31.5 57t11 72t-11 71.5t-31.5 56.5t-49.5 37.5t-64 13.5q-36 0 -65.5 -13.5t-50.5 -37t-32.5 -56.5t-11.5 -72t11.5 -72
t32.5 -57t50.5 -37.5t65.5 -13.5z" />
    <glyph glyph-name="h" unicode="h" horiz-adv-x="537" 
d="M140 0h-60v722h60v-320q19 36 58 62t95 26q42 0 74 -14t53 -38t31.5 -56.5t10.5 -69.5v-312h-60v302q0 28 -7.5 52.5t-23.5 42.5t-40 28.5t-58 10.5q-30 0 -55 -12.5t-42 -33t-26.5 -47.5t-9.5 -56v-287z" />
    <glyph glyph-name="i" unicode="i" horiz-adv-x="220" 
d="M80 0v477h60v-477h-60zM60 675q0 22 14.5 36t35.5 14t35.5 -14t14.5 -36t-14.5 -36t-35.5 -14t-35.5 14t-14.5 36z" />
    <glyph glyph-name="j" unicode="j" horiz-adv-x="220" 
d="M80 477h60v-542q0 -66 -34.5 -102t-91.5 -36q-20 0 -32.5 2.5t-20.5 6.5v51q16 -6 41 -6q78 0 78 86v540zM60 675q0 22 14.5 36t35.5 14t35.5 -14t14.5 -36t-14.5 -36t-35.5 -14t-35.5 14t-14.5 36z" />
    <glyph glyph-name="k" unicode="k" horiz-adv-x="496" 
d="M270 274l207 -274h-75l-174 233l-88 -87v-146h-60v722h60v-497l250 252h83z" />
    <glyph glyph-name="l" unicode="l" horiz-adv-x="220" 
d="M80 0v722h60v-722h-60z" />
    <glyph glyph-name="m" unicode="m" horiz-adv-x="845" 
d="M80 0v477h59v-79q16 38 56 65t96 27t96 -28.5t54 -79.5q22 52 64.5 80t99.5 28q35 0 65 -11.5t52.5 -34t35 -55t12.5 -73.5v-316h-60v309q0 54 -31 91t-91 37q-30 0 -54.5 -11.5t-42 -31t-27 -46t-9.5 -55.5v-293h-60v309q0 54 -30.5 91t-91.5 37q-30 0 -54.5 -11.5
t-42 -31t-27 -45.5t-9.5 -56v-293h-60z" />
    <glyph glyph-name="n" unicode="n" horiz-adv-x="537" 
d="M140 0h-60v477h58v-76q20 38 60 63t95 25q42 0 73.5 -14t53 -38t32 -56.5t10.5 -69.5v-311h-60v301q0 28 -7 52.5t-23 42.5t-40.5 28.5t-58.5 10.5q-31 0 -55.5 -12t-42 -32.5t-26.5 -48t-9 -57.5v-285z" />
    <glyph glyph-name="o" unicode="o" horiz-adv-x="568" 
d="M284 -13q-50 0 -93 18.5t-75 51.5t-50.5 79t-18.5 102t18 102.5t50 79.5t75.5 51t93.5 18t93 -18t75 -51t50.5 -79.5t18.5 -102.5t-18.5 -102t-50.5 -79t-75 -51.5t-93 -18.5zM108 238q0 -47 14.5 -83.5t38.5 -61.5t56 -38.5t67 -13.5t67 13.5t56 38.5t38.5 61.5
t14.5 83.5t-14.5 83.5t-38.5 62t-56 38.5t-67 13t-67 -13t-56 -38.5t-38.5 -62t-14.5 -83.5z" />
    <glyph glyph-name="p" unicode="p" horiz-adv-x="577" 
d="M80 -190v667h59v-95q9 18 23.5 37.5t36.5 35t50 25.5t64 10q51 0 91 -19.5t67.5 -53t42.5 -79.5t15 -99t-15 -99t-43.5 -80t-69 -53.5t-90.5 -19.5q-35 0 -62.5 9.5t-48.5 24t-36 33t-24 36.5v-280h-60zM469 239q0 42 -12 78t-33.5 62.5t-52.5 41.5t-68 15t-67.5 -15
t-52 -41.5t-33 -62.5t-11.5 -78t11.5 -78.5t33 -63t52 -41.5t67.5 -15t68 15t52.5 42t33.5 63t12 78z" />
    <glyph glyph-name="q" unicode="q" horiz-adv-x="574" 
d="M434 -190v281q-9 -19 -23.5 -37.5t-35.5 -33.5t-48 -24t-61 -9q-50 0 -90 19.5t-68.5 53.5t-44 80t-15.5 99q0 52 15.5 98t44 80t68.5 53.5t89 19.5q37 0 65.5 -10t49.5 -25.5t34 -34.5t21 -37v94h59v-667h-60zM108 239q0 -42 11.5 -78t33 -63t52 -42t67.5 -15t67 15
t51.5 42t33 63t11.5 78t-11.5 78.5t-33 62.5t-51.5 41t-67 15q-38 0 -68 -15t-51.5 -41t-33 -62.5t-11.5 -78.5z" />
    <glyph glyph-name="r" unicode="r" horiz-adv-x="337" 
d="M323 415q-18 5 -42 5q-61 0 -101 -39.5t-40 -121.5v-259h-60v477h59v-89q22 50 60.5 72.5t86.5 22.5q24 0 37 -5v-63z" />
    <glyph glyph-name="s" unicode="s" horiz-adv-x="439" 
d="M95 144q7 -44 39.5 -74.5t91.5 -30.5q45 0 75.5 23.5t30.5 61.5q0 33 -21.5 52t-59.5 28l-77 18q-53 12 -85 43.5t-32 83.5q0 29 13 54.5t35 44.5t51 30t62 11q42 0 72 -11t50.5 -29t32 -40t16.5 -43l-53 -20q-3 17 -11.5 33.5t-22.5 29t-35 20.5t-49 8q-20 0 -38.5 -6
t-32.5 -17t-22.5 -26.5t-8.5 -34.5q0 -59 75 -76l76 -17q60 -14 92 -47t32 -85q0 -27 -11 -52t-32 -45t-52 -32t-71 -12q-44 0 -77 12.5t-56 32.5t-36 44.5t-16 48.5z" />
    <glyph glyph-name="t" unicode="t" horiz-adv-x="328" 
d="M177 477h124v-54h-124v-288q0 -86 81 -86q13 0 24.5 2.5t18.5 5.5v-53q-6 -3 -21.5 -6t-37.5 -3q-58 0 -91.5 34t-33.5 100v294h-101v54h36q35 0 51 16.5t16 53.5v81h58v-151z" />
    <glyph glyph-name="u" unicode="u" horiz-adv-x="539" 
d="M402 74q-17 -35 -55 -61t-95 -26q-45 0 -78.5 15.5t-55.5 42t-33 60.5t-11 72v300h60v-290q0 -29 7 -55t22.5 -46.5t40 -32.5t59.5 -12q32 0 57 11.5t42.5 31t26.5 46t9 56.5v291h60v-386q0 -27 2 -51t4 -40h-57q-2 8 -3.5 26t-1.5 41v7z" />
    <glyph glyph-name="v" unicode="v" horiz-adv-x="499" 
d="M281 0h-63l-189 477h68l152 -409l154 409h67z" />
    <glyph glyph-name="w" unicode="w" horiz-adv-x="795" 
d="M431 477l142 -403l125 403h65l-156 -477h-67l-142 404l-142 -404h-67l-158 477h66l127 -403l142 403h65z" />
    <glyph glyph-name="x" unicode="x" horiz-adv-x="478" 
d="M202 243l-174 234h71l140 -191l140 191h71l-176 -234l183 -243h-72l-147 200l-146 -200h-72z" />
    <glyph glyph-name="y" unicode="y" horiz-adv-x="501" 
d="M109 -190l119 252l-203 415h67l167 -352l158 352h66l-309 -667h-65z" />
    <glyph glyph-name="z" unicode="z" horiz-adv-x="464" 
d="M43 0v53l302 370h-299v54h371v-53l-300 -370h305v-54h-379z" />
    <glyph glyph-name="braceleft" unicode="{" horiz-adv-x="311" 
d="M23 347q45 3 75 29t30 77v160q0 158 147 158h9v-49h-9q-54 0 -74 -26t-20 -80v-175q0 -49 -28 -82t-77 -41q50 -8 77.5 -41t27.5 -82v-175q0 -54 20 -80t74 -26h9v-48h-9q-147 0 -147 158v159q0 51 -30 77t-75 29v58z" />
    <glyph glyph-name="bar" unicode="|" horiz-adv-x="205" 
d="M76 -141v918h53v-918h-53z" />
    <glyph glyph-name="braceright" unicode="}" horiz-adv-x="311" 
d="M288 289q-45 -3 -75 -29t-30 -77v-159q0 -158 -147 -158h-9v48h9q54 0 74 26t20 80v175q0 49 27.5 82t77.5 41q-49 8 -77 41t-28 82v175q0 54 -20 80t-74 26h-9v49h9q147 0 147 -158v-160q0 -51 30 -77t75 -29v-58z" />
    <glyph glyph-name="asciitilde" unicode="~" horiz-adv-x="619" 
d="M272 278q-35 19 -64 19q-32 0 -55.5 -14.5t-43.5 -42.5l-37 30q52 80 135 80q44 0 91 -26l46 -25q17 -9 35.5 -14.5t33.5 -5.5q32 0 55.5 14t41.5 41l37 -30q-26 -39 -58.5 -59t-75.5 -20q-22 0 -45.5 7.5t-48.5 20.5z" />
    <glyph glyph-name="uni00A0" unicode="&#xa0;" horiz-adv-x="259" 
 />
    <glyph glyph-name="exclamdown" unicode="&#xa1;" horiz-adv-x="213" 
d="M85 294h41l18 -520h-76zM108 487q21 0 35.5 -14.5t14.5 -34.5q0 -21 -14.5 -35.5t-35.5 -14.5t-35.5 14.5t-14.5 35.5q0 20 14.5 34.5t35.5 14.5z" />
    <glyph glyph-name="cent" unicode="&#xa2;" horiz-adv-x="540" 
d="M309 0h-50v99q-45 4 -83 24.5t-65.5 53t-43 76t-15.5 95.5q0 51 15.5 95t43 76.5t65.5 53t83 25.5v111h50v-111q74 -6 120.5 -48.5t62.5 -101.5l-53 -21q-5 19 -15 38t-25.5 35t-37.5 27.5t-52 15.5v-389q29 3 51.5 14.5t39 28t27.5 35.5t17 37l51 -20q-8 -28 -24 -53.5
t-39.5 -46t-54.5 -34.5t-68 -17v-98zM111 348q0 -39 10.5 -72.5t30 -59t47 -42t60.5 -20.5v388q-33 -5 -60.5 -21.5t-47 -42t-30 -58.5t-10.5 -72z" />
    <glyph glyph-name="sterling" unicode="&#xa3;" horiz-adv-x="593" 
d="M221 310q3 -14 5.5 -28t2.5 -31q0 -34 -8 -63.5t-21.5 -54t-31.5 -44t-37 -34.5h233q60 0 93 37t37 97l57 -8q-5 -81 -50.5 -131t-126.5 -50h-320v56q22 14 42 33.5t36 43.5t25.5 53.5t9.5 62.5q0 31 -9 61h-95v53h79q-14 35 -28 72.5t-14 83.5q0 43 14.5 80t41.5 64
t65.5 42.5t85.5 15.5t83.5 -14.5t62 -39.5t40 -57.5t17.5 -68.5l-58 -13q-2 30 -13 55t-30 43.5t-44.5 29t-56.5 10.5q-32 0 -58.5 -10.5t-46 -29.5t-30.5 -47t-11 -62q0 -23 4.5 -42.5t11 -38t14.5 -36.5t15 -37h195v-53h-181z" />
    <glyph glyph-name="currency" unicode="&#xa4;" horiz-adv-x="614" 
d="M436 177q-54 -42 -126 -42q-37 0 -71 12t-60 34l-72 -75l-38 38l73 75q-45 54 -45 129q0 38 12.5 72t34.5 60l-74 77l38 37l74 -76q27 20 60 31.5t68 11.5q71 0 123 -40l72 73l37 -37l-69 -73q23 -27 37 -62t14 -74q0 -38 -13 -73t-36 -61l69 -70l-38 -38zM151 348
q0 -34 12.5 -63.5t34 -51t50.5 -34t62 -12.5t62 12.5t50.5 34t33.5 51t12 63.5t-12 63.5t-33.5 51.5t-50.5 34t-62 12t-62 -12t-50.5 -34t-34 -51.5t-12.5 -63.5z" />
    <glyph glyph-name="yen" unicode="&#xa5;" horiz-adv-x="618" 
d="M278 0v175h-189v50h189v84h-189v50h160l-214 350h73l203 -338l202 338h70l-214 -350h162v-50h-190v-84h190v-50h-190v-175h-63z" />
    <glyph glyph-name="brokenbar" unicode="&#xa6;" horiz-adv-x="215" 
d="M134 777v-399h-53v399h53zM134 259v-400h-53v400h53z" />
    <glyph glyph-name="section" unicode="&#xa7;" horiz-adv-x="501" 
d="M68 281q0 22 7.5 42t19.5 36.5t28 28.5t33 19q-44 27 -67 63t-23 84q0 38 15.5 69t41 53t59 34t70.5 12q43 0 77.5 -13.5t58.5 -37.5t37 -56.5t14 -71.5l-58 -13q-1 64 -35 102.5t-95 38.5q-25 0 -47.5 -8t-40 -22.5t-27.5 -35t-10 -46.5q0 -38 20.5 -64t55.5 -45
l106 -57q27 -14 50 -29t40 -33.5t26.5 -41t9.5 -51.5q0 -46 -26.5 -78t-63.5 -48q94 -56 94 -147q0 -38 -15 -69t-41 -53t-60.5 -34t-72.5 -12q-44 0 -78 13t-58.5 37t-38 57t-14.5 73l57 12q2 -63 36.5 -102t97.5 -39q54 0 90.5 30t36.5 81q0 39 -20.5 65t-57.5 46l-106 57
q-27 14 -50.5 29t-40 33t-26 40.5t-9.5 51.5zM304 134q28 10 49.5 35t21.5 60t-20 59t-58 44l-100 53q-28 -11 -48.5 -36.5t-20.5 -58.5q0 -34 19.5 -58t57.5 -44z" />
    <glyph glyph-name="dieresis" unicode="&#xa8;" horiz-adv-x="350" 
d="M221 611q0 17 12.5 29.5t29.5 12.5t29.5 -12.5t12.5 -29.5t-12.5 -29.5t-29.5 -12.5t-29.5 12.5t-12.5 29.5zM45 611q0 17 12.5 29.5t29.5 12.5t29.5 -12.5t12.5 -29.5t-12.5 -29.5t-29.5 -12.5t-29.5 12.5t-12.5 29.5z" />
    <glyph glyph-name="copyright" unicode="&#xa9;" horiz-adv-x="834" 
d="M420 513q-29 0 -54.5 -11t-44.5 -31.5t-29.5 -49.5t-10.5 -66t10.5 -66t29.5 -49.5t44 -31.5t55 -11q28 0 49.5 8.5t37.5 21.5t26 29.5t15 33.5l45 -20q-7 -23 -21.5 -44.5t-36 -38.5t-50 -27.5t-63.5 -10.5q-42 0 -77.5 15.5t-61 42.5t-40 65t-14.5 83t14.5 83t40 65.5
t60.5 42.5t76 15q36 0 64.5 -10t49.5 -27t35 -39.5t21 -46.5l-47 -18q-11 38 -40.5 65.5t-82.5 27.5zM417 674q-65 0 -122 -24.5t-99 -68t-66.5 -102t-24.5 -125.5t24.5 -125.5t66.5 -101.5t99 -67.5t122 -24.5t122 24.5t99 67.5t66.5 101.5t24.5 125.5t-24.5 125.5
t-66.5 102t-99 68t-122 24.5zM417 -13q-76 0 -142 28.5t-115.5 78.5t-78 116.5t-28.5 143.5t28.5 144t78 117t115.5 78.5t142 28.5t142 -28.5t115.5 -78.5t78 -117t28.5 -144t-28.5 -143.5t-78 -116.5t-115.5 -78.5t-142 -28.5z" />
    <glyph glyph-name="ordfeminine" unicode="&#xaa;" horiz-adv-x="393" 
d="M275 549q-3 -4 -7.5 -5.5t-15.5 -3.5l-91 -15q-27 -5 -43 -19.5t-16 -40.5q0 -23 17 -40.5t52 -17.5q51 0 77.5 31.5t26.5 87.5v23zM51 463q0 42 27 67t72 31l93 14q18 3 25 11.5t7 19.5q0 31 -21 51t-61 20q-38 0 -61.5 -21t-28.5 -56l-46 12q5 47 41.5 77.5t93.5 30.5
q35 0 60.5 -9.5t41.5 -26t23.5 -38.5t7.5 -46v-169q0 -18 1 -33.5t3 -23.5h-49q-2 8 -3 20.5t-1 32.5q-12 -23 -40.5 -42.5t-71.5 -19.5q-27 0 -48.5 8t-35.5 21.5t-21.5 31.5t-7.5 37z" />
    <glyph glyph-name="guillemotleft" unicode="&#xab;" horiz-adv-x="465" 
d="M181 95l-133 191l133 191h60l-132 -191l132 -191h-60zM350 95l-133 191l133 191h60l-132 -191l132 -191h-60z" />
    <glyph glyph-name="logicalnot" unicode="&#xac;" horiz-adv-x="578" 
d="M445 218v201h-385v53h440v-254h-55z" />
    <glyph glyph-name="uni00AD" unicode="&#xad;" horiz-adv-x="401" 
d="M69 261v52h263v-52h-263z" />
    <glyph glyph-name="registered" unicode="&#xae;" horiz-adv-x="834" 
d="M426 362q39 0 61.5 19.5t22.5 54.5q0 36 -22.5 56t-61.5 20h-74v-150h74zM352 156h-50v400h131q28 0 51.5 -9t40 -25t26 -38t9.5 -47q0 -44 -26 -75t-68 -40l96 -166h-59l-92 162h-59v-162zM417 674q-65 0 -122 -24.5t-99 -68t-66.5 -102t-24.5 -125.5t24.5 -125.5
t66.5 -101.5t99 -67.5t122 -24.5t122 24.5t99 67.5t66.5 101.5t24.5 125.5t-24.5 125.5t-66.5 102t-99 68t-122 24.5zM417 -13q-76 0 -142 28.5t-115.5 78.5t-78 116.5t-28.5 143.5t28.5 144t78 117t115.5 78.5t142 28.5t142 -28.5t115.5 -78.5t78 -117t28.5 -144
t-28.5 -143.5t-78 -116.5t-115.5 -78.5t-142 -28.5z" />
    <glyph glyph-name="macron" unicode="&#xaf;" horiz-adv-x="344" 
d="M45 583v50h254v-50h-254z" />
    <glyph glyph-name="degree" unicode="&#xb0;" horiz-adv-x="392" 
d="M196 462q43 0 71.5 29.5t28.5 74.5q0 44 -28.5 73.5t-71.5 29.5q-21 0 -39.5 -8t-32 -22t-21 -32.5t-7.5 -40.5t7.5 -41t21 -33t32 -22t39.5 -8zM42 566q0 32 12 60t33 48.5t49 32.5t60 12t60 -12t49 -32.5t33 -48.5t12 -60t-12 -60t-33 -49t-49 -33t-60 -12t-60 12
t-49 33t-33 49t-12 60z" />
    <glyph glyph-name="plusminus" unicode="&#xb1;" horiz-adv-x="604" 
d="M328 384v-145h-53v145h-188v50h188v145h53v-145h189v-50h-189zM87 125v51h430v-51h-430z" />
    <glyph glyph-name="twosuperior" unicode="&#xb2;" horiz-adv-x="337" 
d="M43 578q-1 5 -1.5 12t-0.5 12q0 23 9 44t25.5 36.5t40 24.5t53.5 9q58 0 91.5 -32.5t33.5 -77.5q0 -35 -20 -61.5t-52 -46.5l-74 -46q-17 -11 -30 -26t-16 -35h196v-44h-258v5q0 40 18 74.5t60 60.5l69 42q24 15 39.5 34.5t15.5 43.5q0 26 -19.5 46t-54.5 20
q-34 0 -55.5 -20t-21.5 -55q0 -4 0.5 -10.5t1.5 -12.5z" />
    <glyph glyph-name="threesuperior" unicode="&#xb3;" horiz-adv-x="355" 
d="M126 562l114 104h-195v44h262v-42l-116 -104q2 0 4.5 0.5t4.5 0.5q22 -1 43 -8t37 -20t25.5 -33t9.5 -46q0 -24 -10 -45.5t-28 -37.5t-43.5 -25.5t-56.5 -9.5q-61 0 -98.5 30.5t-43.5 75.5l46 17q3 -37 31 -58.5t64 -21.5q38 0 62.5 21.5t24.5 53.5q0 35 -25 52.5
t-58 17.5q-17 0 -32 -5z" />
    <glyph glyph-name="acute" unicode="&#xb4;" horiz-adv-x="249" 
d="M90 537h-49l89 139h78z" />
    <glyph glyph-name="mu" unicode="&#xb5;" horiz-adv-x="531" 
d="M251 -13q-41 0 -71 14t-48 40v-231h-60v667h60v-291q0 -29 7 -55t22.5 -46t40.5 -32t60 -12q32 0 57 11.5t42.5 31t26.5 46t9 56.5v291h60v-386q0 -27 2 -51t4 -40h-57q-2 8 -3.5 26t-1.5 41v7q-17 -35 -55 -61t-95 -26z" />
    <glyph glyph-name="paragraph" unicode="&#xb6;" horiz-adv-x="614" 
d="M312 -190h-54v517h-33q-39 0 -73.5 15t-61 40.5t-41.5 60.5t-15 74q0 42 16.5 77.5t45.5 61t68.5 39.5t86.5 14h318v-50h-92v-849h-54v849h-111v-849z" />
    <glyph glyph-name="periodcentered" unicode="&#xb7;" horiz-adv-x="243" 
d="M69 284q0 22 15 37.5t37 15.5q23 0 38 -15.5t15 -37.5t-15 -37t-38 -15q-22 0 -37 15t-15 37z" />
    <glyph glyph-name="cedilla" unicode="&#xb8;" horiz-adv-x="306" 
d="M96 -66l48 74h48l-43 -64q11 4 24 4q40 0 64 -21t24 -55q0 -35 -27 -58.5t-81 -23.5q-35 0 -64 14t-44 33l27 32q11 -14 31.5 -26.5t48.5 -12.5q29 0 45.5 11t16.5 31q0 19 -14.5 30t-42.5 11q-9 0 -18.5 -1.5t-18.5 -6.5z" />
    <glyph glyph-name="onesuperior" unicode="&#xb9;" horiz-adv-x="217" 
d="M114 347v286q-13 -14 -36 -24.5t-51 -12.5v39q38 5 61 26.5t28 48.5h49v-363h-51z" />
    <glyph glyph-name="ordmasculine" unicode="&#xba;" horiz-adv-x="423" 
d="M211 365q-36 0 -66.5 13t-53 36.5t-35.5 56t-13 72.5q0 39 13 72t35.5 56t53 36t66.5 13t66.5 -13t53.5 -36t36 -56t13 -72q0 -40 -13 -72.5t-35.5 -56t-53.5 -36.5t-67 -13zM93 543q0 -32 9.5 -56.5t26 -41.5t37.5 -26t45 -9t45 9t37.5 26t26 41.5t9.5 56.5
q0 31 -9.5 56t-26 41.5t-37.5 25.5t-45 9t-45 -9t-37.5 -25.5t-26 -41.5t-9.5 -56z" />
    <glyph glyph-name="guillemotright" unicode="&#xbb;" horiz-adv-x="465" 
d="M224 95l132 191l-132 191h60l133 -191l-133 -191h-60zM55 95l132 191l-132 191h60l133 -191l-133 -191h-60z" />
    <glyph glyph-name="onequarter" unicode="&#xbc;" horiz-adv-x="749" 
d="M86 0l474 709h55l-472 -709h-57zM126 346v286q-13 -14 -36 -24.5t-51 -12.5v39q38 5 61 26.5t28 48.5h49v-363h-51zM401 133l180 230h61v-236h71v-45h-71v-82h-51v82h-190v51zM591 306l-140 -179h140v179z" />
    <glyph glyph-name="onehalf" unicode="&#xbd;" horiz-adv-x="766" 
d="M84 0l474 709h55l-472 -709h-57zM124 346v286q-13 -14 -36 -24.5t-51 -12.5v39q38 5 61 26.5t28 48.5h49v-363h-51zM466 231q-1 5 -1.5 12t-0.5 12q0 23 9 44t25.5 36.5t40 24.5t53.5 9q58 0 91.5 -32.5t33.5 -77.5q0 -35 -20 -61.5t-52 -46.5l-74 -46q-17 -11 -30 -26
t-16 -35h196v-44h-258v5q0 40 18 74.5t60 60.5l69 42q24 15 39.5 34.5t15.5 43.5q0 26 -19.5 46t-54.5 20q-34 0 -55.5 -20t-21.5 -55q0 -4 0.5 -10.5t1.5 -12.5z" />
    <glyph glyph-name="threequarters" unicode="&#xbe;" horiz-adv-x="828" 
d="M165 0l474 709h55l-472 -709h-57zM480 133l180 230h61v-236h71v-45h-71v-82h-51v82h-190v51zM670 306l-140 -179h140v179zM133 561l114 104h-195v44h262v-42l-116 -104q2 0 4.5 0.5t4.5 0.5q22 -1 43 -8t37 -20t25.5 -33t9.5 -46q0 -24 -10 -45.5t-28 -37.5t-43.5 -25.5
t-56.5 -9.5q-61 0 -98.5 30.5t-43.5 75.5l46 17q3 -37 31 -58.5t64 -21.5q38 0 62.5 21.5t24.5 53.5q0 35 -25 52.5t-58 17.5q-17 0 -32 -5z" />
    <glyph glyph-name="questiondown" unicode="&#xbf;" horiz-adv-x="479" 
d="M278 294q2 -8 2.5 -17.5t0.5 -20.5q0 -47 -17 -82.5t-55 -64.5l-44 -34q-32 -24 -50.5 -55t-18.5 -68q0 -27 9 -51t27 -43t44 -30t61 -11q38 0 66 12.5t46 33t27 47t9 54.5q0 25 -8 54l61 -9q8 -23 8 -51q0 -35 -12.5 -70.5t-38.5 -63.5t-65 -45.5t-93 -17.5
q-48 0 -86 16t-64.5 42.5t-40 61t-13.5 70.5q0 55 27.5 97t72.5 75l45 33q28 20 37.5 48.5t9.5 57.5q0 9 -0.5 17t-1.5 15h55zM250 487q21 0 35.5 -14.5t14.5 -34.5q0 -21 -14.5 -35.5t-35.5 -14.5t-35.5 14.5t-14.5 35.5q0 20 14.5 34.5t35.5 14.5z" />
    <glyph glyph-name="Agrave" unicode="&#xc0;" horiz-adv-x="694" 
d="M516 219h-339l-87 -219h-68l287 709h76l287 -709h-68zM200 277h293l-147 369zM181 878h84l107 -119h-57z" />
    <glyph glyph-name="Aacute" unicode="&#xc1;" horiz-adv-x="694" 
d="M516 219h-339l-87 -219h-68l287 709h76l287 -709h-68zM200 277h293l-147 369zM378 759h-57l107 119h84z" />
    <glyph glyph-name="Acircumflex" unicode="&#xc2;" horiz-adv-x="694" 
d="M516 219h-339l-87 -219h-68l287 709h76l287 -709h-68zM200 277h293l-147 369zM190 759l115 119h82l116 -119h-59l-98 84l-97 -84h-59z" />
    <glyph glyph-name="Atilde" unicode="&#xc3;" horiz-adv-x="694" 
d="M516 219h-339l-87 -219h-68l287 709h76l287 -709h-68zM200 277h293l-147 369zM501 860q0 -48 -25 -72.5t-59 -24.5q-20 0 -36 6.5t-30 16.5l-21 15q-12 8 -24 14t-26 6q-39 0 -39 -55h-47v12q0 46 25 70.5t61 24.5q21 0 39 -8t33 -19l18 -13q11 -8 21.5 -13t23.5 -5
q39 0 39 56h47v-11z" />
    <glyph glyph-name="Adieresis" unicode="&#xc4;" horiz-adv-x="694" 
d="M423 819q0 18 12.5 30.5t30.5 12.5t30.5 -12.5t12.5 -30.5t-12.5 -30.5t-30.5 -12.5t-30.5 12.5t-12.5 30.5zM185 819q0 18 12.5 30.5t30.5 12.5t30.5 -12.5t12.5 -30.5t-12.5 -30.5t-30.5 -12.5t-30.5 12.5t-12.5 30.5zM516 219h-339l-87 -219h-68l287 709h76l287 -709
h-68zM200 277h293l-147 369z" />
    <glyph glyph-name="Aring" unicode="&#xc5;" horiz-adv-x="694" 
d="M200 277h293l-147 369zM404 768q0 26 -16.5 43t-41.5 17q-24 0 -40.5 -17t-16.5 -43t16.5 -42.5t40.5 -16.5q25 0 41.5 16.5t16.5 42.5zM452 768q0 -29 -16 -53t-39 -37l275 -678h-68l-88 219h-339l-87 -219h-68l275 677q-25 13 -40.5 37t-15.5 54q0 22 8.5 41t23 33.5
t34 22.5t40.5 8t40.5 -8t33.5 -22.5t22.5 -33.5t8.5 -41z" />
    <glyph glyph-name="AE" unicode="&#xc6;" horiz-adv-x="979" 
d="M505 0v219h-283l-143 -219h-79l472 709h451v-58h-354v-267h323v-58h-323v-268h354v-58h-418zM260 277h245v375z" />
    <glyph glyph-name="Ccedilla" unicode="&#xc7;" horiz-adv-x="746" 
d="M349 -66l34 53q-64 3 -123.5 28.5t-105.5 72t-74 113.5t-28 153q0 89 29.5 157.5t78.5 115.5t111.5 71t127.5 24q60 0 110.5 -16.5t89.5 -46t66 -71t39 -92.5l-57 -20q-21 88 -86 138t-162 50q-54 0 -105 -20t-90.5 -59t-63.5 -97t-24 -134t24 -133.5t63.5 -96.5
t90.5 -59t105 -20q50 0 91.5 14t74 39.5t54.5 60.5t33 77l55 -20q-12 -47 -36.5 -86.5t-60 -69t-80.5 -48.5t-98 -23l-30 -45q11 4 24 4q40 0 64 -21t24 -55q0 -35 -27 -58.5t-81 -23.5q-35 0 -64 14t-44 33l27 32q11 -14 31.5 -26.5t48.5 -12.5q29 0 45.5 11t16.5 31
q0 19 -14.5 30t-42.5 11q-9 0 -18.5 -1.5t-18.5 -6.5z" />
    <glyph glyph-name="Egrave" unicode="&#xc8;" horiz-adv-x="575" 
d="M173 878h84l107 -119h-57zM101 0v709h418v-58h-354v-267h323v-58h-323v-268h354v-58h-418z" />
    <glyph glyph-name="Eacute" unicode="&#xc9;" horiz-adv-x="575" 
d="M308 759h-57l107 119h84zM101 0v709h418v-58h-354v-267h323v-58h-323v-268h354v-58h-418z" />
    <glyph glyph-name="Ecircumflex" unicode="&#xca;" horiz-adv-x="575" 
d="M155 759l115 119h82l116 -119h-59l-98 84l-97 -84h-59zM101 0v709h418v-58h-354v-267h323v-58h-323v-268h354v-58h-418z" />
    <glyph glyph-name="Edieresis" unicode="&#xcb;" horiz-adv-x="575" 
d="M101 0v709h418v-58h-354v-267h323v-58h-323v-268h354v-58h-418zM167 819q0 18 12.5 30.5t30.5 12.5t30.5 -12.5t12.5 -30.5t-12.5 -30.5t-30.5 -12.5t-30.5 12.5t-12.5 30.5zM371 819q0 18 12.5 30.5t30.5 12.5t30.5 -12.5t12.5 -30.5t-12.5 -30.5t-30.5 -12.5
t-30.5 12.5t-12.5 30.5z" />
    <glyph glyph-name="Igrave" unicode="&#xcc;" horiz-adv-x="266" 
d="M101 0v709h64v-709h-64zM-29 878h84l107 -119h-57z" />
    <glyph glyph-name="Iacute" unicode="&#xcd;" horiz-adv-x="266" 
d="M101 0v709h64v-709h-64zM162 759h-57l107 119h84z" />
    <glyph glyph-name="Icircumflex" unicode="&#xce;" horiz-adv-x="266" 
d="M101 0v709h64v-709h-64zM-22 759l115 119h82l116 -119h-59l-98 84l-97 -84h-59z" />
    <glyph glyph-name="Idieresis" unicode="&#xcf;" horiz-adv-x="266" 
d="M101 0v709h64v-709h-64zM28 819q0 17 11.5 28.5t28.5 11.5t28.5 -11.5t11.5 -28.5t-11.5 -28.5t-28.5 -11.5t-28.5 11.5t-11.5 28.5zM161 819q0 17 11.5 28.5t28.5 11.5t28.5 -11.5t11.5 -28.5t-11.5 -28.5t-28.5 -11.5t-28.5 11.5t-11.5 28.5z" />
    <glyph glyph-name="Eth" unicode="&#xd0;" horiz-adv-x="713" 
d="M102 0v339h-78v54h78v316h221q67 0 128.5 -23t107.5 -68t73.5 -111.5t27.5 -153.5t-27.5 -153t-74.5 -110.5t-108.5 -67t-128.5 -22.5h-219zM319 56q55 0 105 18.5t88 55.5t60.5 93t22.5 130q0 75 -22 131t-59.5 93.5t-87.5 56.5t-105 19h-156v-260h143v-54h-143v-283
h154z" />
    <glyph glyph-name="Ntilde" unicode="&#xd1;" horiz-adv-x="763" 
d="M542 860q0 -48 -25 -72.5t-59 -24.5q-20 0 -36 6.5t-30 16.5l-21 15q-12 8 -24 14t-26 6q-39 0 -39 -55h-47v12q0 46 25 70.5t61 24.5q21 0 39 -8t33 -19l18 -13q11 -8 21.5 -13t23.5 -5q39 0 39 56h47v-11zM594 0l-429 630v-630h-64v709h88l409 -605v605h64v-709h-68z
" />
    <glyph glyph-name="Ograve" unicode="&#xd2;" horiz-adv-x="797" 
d="M243 878h84l107 -119h-57zM116 354q0 -76 23.5 -133.5t63 -96.5t90.5 -59t105 -20t105 20t90.5 59t63.5 96.5t24 133.5t-24 134t-63.5 97t-90.5 59t-105 20t-105 -20t-90.5 -59t-63 -97t-23.5 -134zM52 354q0 89 29.5 157.5t78 115.5t111 71t127.5 24t127.5 -24t111 -71
t78.5 -115.5t30 -157.5t-30 -157.5t-78.5 -115t-111 -70.5t-127.5 -24t-127.5 24t-111 70.5t-78 115t-29.5 157.5z" />
    <glyph glyph-name="Oacute" unicode="&#xd3;" horiz-adv-x="797" 
d="M419 759h-57l107 119h84zM116 354q0 -76 23.5 -133.5t63 -96.5t90.5 -59t105 -20t105 20t90.5 59t63.5 96.5t24 133.5t-24 134t-63.5 97t-90.5 59t-105 20t-105 -20t-90.5 -59t-63 -97t-23.5 -134zM52 354q0 89 29.5 157.5t78 115.5t111 71t127.5 24t127.5 -24t111 -71
t78.5 -115.5t30 -157.5t-30 -157.5t-78.5 -115t-111 -70.5t-127.5 -24t-127.5 24t-111 70.5t-78 115t-29.5 157.5z" />
    <glyph glyph-name="Ocircumflex" unicode="&#xd4;" horiz-adv-x="797" 
d="M242 759l115 119h82l116 -119h-59l-98 84l-97 -84h-59zM116 354q0 -76 23.5 -133.5t63 -96.5t90.5 -59t105 -20t105 20t90.5 59t63.5 96.5t24 133.5t-24 134t-63.5 97t-90.5 59t-105 20t-105 -20t-90.5 -59t-63 -97t-23.5 -134zM52 354q0 89 29.5 157.5t78 115.5t111 71
t127.5 24t127.5 -24t111 -71t78.5 -115.5t30 -157.5t-30 -157.5t-78.5 -115t-111 -70.5t-127.5 -24t-127.5 24t-111 70.5t-78 115t-29.5 157.5z" />
    <glyph glyph-name="Otilde" unicode="&#xd5;" horiz-adv-x="797" 
d="M553 860q0 -48 -25 -72.5t-59 -24.5q-20 0 -36 6.5t-30 16.5l-21 15q-12 8 -24 14t-26 6q-39 0 -39 -55h-47v12q0 46 25 70.5t61 24.5q21 0 39 -8t33 -19l18 -13q11 -8 21.5 -13t23.5 -5q39 0 39 56h47v-11zM116 354q0 -76 23.5 -133.5t63 -96.5t90.5 -59t105 -20t105 20
t90.5 59t63.5 96.5t24 133.5t-24 134t-63.5 97t-90.5 59t-105 20t-105 -20t-90.5 -59t-63 -97t-23.5 -134zM52 354q0 89 29.5 157.5t78 115.5t111 71t127.5 24t127.5 -24t111 -71t78.5 -115.5t30 -157.5t-30 -157.5t-78.5 -115t-111 -70.5t-127.5 -24t-127.5 24t-111 70.5
t-78 115t-29.5 157.5z" />
    <glyph glyph-name="Odieresis" unicode="&#xd6;" horiz-adv-x="797" 
d="M213 819q0 18 12.5 30.5t30.5 12.5t30.5 -12.5t12.5 -30.5t-12.5 -30.5t-30.5 -12.5t-30.5 12.5t-12.5 30.5zM497 819q0 18 12.5 30.5t30.5 12.5t30.5 -12.5t12.5 -30.5t-12.5 -30.5t-30.5 -12.5t-30.5 12.5t-12.5 30.5zM116 354q0 -76 23.5 -133.5t63 -96.5t90.5 -59
t105 -20t105 20t90.5 59t63.5 96.5t24 133.5t-24 134t-63.5 97t-90.5 59t-105 20t-105 -20t-90.5 -59t-63 -97t-23.5 -134zM52 354q0 89 29.5 157.5t78 115.5t111 71t127.5 24t127.5 -24t111 -71t78.5 -115.5t30 -157.5t-30 -157.5t-78.5 -115t-111 -70.5t-127.5 -24
t-127.5 24t-111 70.5t-78 115t-29.5 157.5z" />
    <glyph glyph-name="multiply" unicode="&#xd7;" horiz-adv-x="569" 
d="M285 385l177 184l36 -36l-179 -185l180 -186l-36 -37l-179 186l-178 -185l-36 36l178 186l-177 184l36 37z" />
    <glyph glyph-name="Oslash" unicode="&#xd8;" horiz-adv-x="798" 
d="M52 354q0 89 29.5 157.5t78 115.5t111 71t127.5 24q55 0 108.5 -17.5t98.5 -51.5l74 96l43 -32l-77 -99q45 -47 72.5 -113t27.5 -151q0 -89 -30 -157.5t-78.5 -115t-111 -70.5t-127.5 -24q-52 0 -102 15.5t-94 44.5l-70 -90l-43 32l71 92q-49 47 -78.5 115t-29.5 158z
M116 354q0 -74 22 -130t59 -95l372 478q-37 29 -81 43t-90 14q-54 0 -105 -20t-90.5 -59t-63 -97t-23.5 -134zM681 354q0 69 -20 123t-54 93l-369 -476q35 -25 76 -37t84 -12q54 0 105 20t90.5 59t63.5 96.5t24 133.5z" />
    <glyph glyph-name="Ugrave" unicode="&#xd9;" horiz-adv-x="672" 
d="M198 878h84l107 -119h-57zM336 -13q-54 0 -98.5 16t-77 47.5t-50 78t-17.5 107.5v473h64v-470q0 -94 45.5 -144t133.5 -50t133.5 50t45.5 144v470h64v-473q0 -60 -17.5 -106.5t-49.5 -78t-77 -48t-99 -16.5z" />
    <glyph glyph-name="Uacute" unicode="&#xda;" horiz-adv-x="672" 
d="M340 759h-57l107 119h84zM336 -13q-54 0 -98.5 16t-77 47.5t-50 78t-17.5 107.5v473h64v-470q0 -94 45.5 -144t133.5 -50t133.5 50t45.5 144v470h64v-473q0 -60 -17.5 -106.5t-49.5 -78t-77 -48t-99 -16.5z" />
    <glyph glyph-name="Ucircumflex" unicode="&#xdb;" horiz-adv-x="672" 
d="M180 759l115 119h82l116 -119h-59l-98 84l-97 -84h-59zM336 -13q-54 0 -98.5 16t-77 47.5t-50 78t-17.5 107.5v473h64v-470q0 -94 45.5 -144t133.5 -50t133.5 50t45.5 144v470h64v-473q0 -60 -17.5 -106.5t-49.5 -78t-77 -48t-99 -16.5z" />
    <glyph glyph-name="Udieresis" unicode="&#xdc;" horiz-adv-x="672" 
d="M195 819q0 18 12.5 30.5t30.5 12.5t30.5 -12.5t12.5 -30.5t-12.5 -30.5t-30.5 -12.5t-30.5 12.5t-12.5 30.5zM394 819q0 18 12.5 30.5t30.5 12.5t30.5 -12.5t12.5 -30.5t-12.5 -30.5t-30.5 -12.5t-30.5 12.5t-12.5 30.5zM336 -13q-54 0 -98.5 16t-77 47.5t-50 78
t-17.5 107.5v473h64v-470q0 -94 45.5 -144t133.5 -50t133.5 50t45.5 144v470h64v-473q0 -60 -17.5 -106.5t-49.5 -78t-77 -48t-99 -16.5z" />
    <glyph glyph-name="Yacute" unicode="&#xdd;" horiz-adv-x="616" 
d="M29 709h75l204 -347l205 347h74l-248 -406v-303h-62v303zM311 759h-57l107 119h84z" />
    <glyph glyph-name="Thorn" unicode="&#xde;" horiz-adv-x="585" 
d="M101 0v709h64v-146h170q49 0 89 -15.5t68.5 -43t44 -65t15.5 -81.5t-15.5 -81.5t-44 -64.5t-68.5 -42.5t-89 -15.5h-170v-154h-64zM325 211q76 0 119.5 40.5t43.5 106.5t-43.5 107t-119.5 41h-160v-295h160z" />
    <glyph glyph-name="germandbls" unicode="&#xdf;" horiz-adv-x="545" 
d="M331 343q0 -16 12.5 -25.5t31.5 -20.5l38 -20q41 -21 69 -57.5t28 -86.5q0 -26 -9.5 -52t-29 -47t-48.5 -34t-68 -13q-42 0 -71 13.5t-48 34t-27.5 45t-9.5 46.5l56 14q0 -15 5.5 -33t17.5 -33t31 -25t46 -10q24 0 42 8t29.5 20.5t17.5 28.5t6 32q0 36 -20 60t-50 40
l-38 20q-12 6 -25 14.5t-23 20t-16.5 26t-6.5 32.5q0 28 13.5 48.5t36.5 36.5l38 26q26 17 41.5 41t15.5 59q0 24 -9 45t-25.5 36.5t-41.5 25t-56 9.5q-30 0 -56 -11.5t-45.5 -34t-31 -56t-11.5 -77.5v-489h-60v492q0 55 16 97.5t43.5 72t65 45t79.5 15.5q44 0 79.5 -13
t60.5 -36t38.5 -53.5t13.5 -66.5q0 -54 -24 -87.5t-54 -53.5l-37 -25q-14 -9 -22 -18.5t-8 -25.5z" />
    <glyph glyph-name="agrave" unicode="&#xe0;" horiz-adv-x="500" 
d="M201 -12q-38 0 -67 11.5t-48.5 30t-30 43t-10.5 50.5q0 61 38.5 96t104.5 45l127 19q31 5 40.5 17t9.5 29q0 48 -30.5 78t-89.5 30q-57 0 -92.5 -29.5t-41.5 -81.5l-56 12q4 34 20 62t40.5 47.5t57.5 30.5t71 11q46 0 80.5 -13t56.5 -35.5t33 -53t11 -64.5v-241
q0 -29 2 -48t5 -34h-59q-2 8 -4 30.5t-2 51.5q-8 -17 -23 -33.5t-36 -30t-47.5 -22t-59.5 -8.5zM208 39q34 0 63 11t50 31t32.5 49t11.5 65v54q-2 -2 -11.5 -6t-23.5 -6l-133 -20q-42 -6 -66.5 -29t-24.5 -62q0 -33 26 -60t76 -27zM112 676h76l89 -139h-47z" />
    <glyph glyph-name="aacute" unicode="&#xe1;" horiz-adv-x="500" 
d="M201 -12q-38 0 -67 11.5t-48.5 30t-30 43t-10.5 50.5q0 61 38.5 96t104.5 45l127 19q31 5 40.5 17t9.5 29q0 48 -30.5 78t-89.5 30q-57 0 -92.5 -29.5t-41.5 -81.5l-56 12q4 34 20 62t40.5 47.5t57.5 30.5t71 11q46 0 80.5 -13t56.5 -35.5t33 -53t11 -64.5v-241
q0 -29 2 -48t5 -34h-59q-2 8 -4 30.5t-2 51.5q-8 -17 -23 -33.5t-36 -30t-47.5 -22t-59.5 -8.5zM208 39q34 0 63 11t50 31t32.5 49t11.5 65v54q-2 -2 -11.5 -6t-23.5 -6l-133 -20q-42 -6 -66.5 -29t-24.5 -62q0 -33 26 -60t76 -27zM264 537h-49l89 139h78z" />
    <glyph glyph-name="acircumflex" unicode="&#xe2;" horiz-adv-x="500" 
d="M103 538l110 137h72l110 -137h-54l-92 99l-92 -99h-54zM201 -12q-38 0 -67 11.5t-48.5 30t-30 43t-10.5 50.5q0 61 38.5 96t104.5 45l127 19q31 5 40.5 17t9.5 29q0 48 -30.5 78t-89.5 30q-57 0 -92.5 -29.5t-41.5 -81.5l-56 12q4 34 20 62t40.5 47.5t57.5 30.5t71 11
q46 0 80.5 -13t56.5 -35.5t33 -53t11 -64.5v-241q0 -29 2 -48t5 -34h-59q-2 8 -4 30.5t-2 51.5q-8 -17 -23 -33.5t-36 -30t-47.5 -22t-59.5 -8.5zM208 39q34 0 63 11t50 31t32.5 49t11.5 65v54q-2 -2 -11.5 -6t-23.5 -6l-133 -20q-42 -6 -66.5 -29t-24.5 -62q0 -33 26 -60
t76 -27z" />
    <glyph glyph-name="atilde" unicode="&#xe3;" horiz-adv-x="500" 
d="M201 -12q-38 0 -67 11.5t-48.5 30t-30 43t-10.5 50.5q0 61 38.5 96t104.5 45l127 19q31 5 40.5 17t9.5 29q0 48 -30.5 78t-89.5 30q-57 0 -92.5 -29.5t-41.5 -81.5l-56 12q4 34 20 62t40.5 47.5t57.5 30.5t71 11q46 0 80.5 -13t56.5 -35.5t33 -53t11 -64.5v-241
q0 -29 2 -48t5 -34h-59q-2 8 -4 30.5t-2 51.5q-8 -17 -23 -33.5t-36 -30t-47.5 -22t-59.5 -8.5zM208 39q34 0 63 11t50 31t32.5 49t11.5 65v54q-2 -2 -11.5 -6t-23.5 -6l-133 -20q-42 -6 -66.5 -29t-24.5 -62q0 -33 26 -60t76 -27zM401 648q0 -48 -24.5 -72.5t-58.5 -24.5
q-20 0 -35.5 6.5t-29.5 16.5l-21 15q-12 8 -23.5 14t-25.5 6q-38 0 -38 -55h-47v12q0 46 24.5 70.5t60.5 24.5q21 0 38.5 -8t32.5 -19l18 -13q11 -8 21 -13t23 -5q38 0 38 56h47v-11z" />
    <glyph glyph-name="adieresis" unicode="&#xe4;" horiz-adv-x="500" 
d="M291 611q0 17 12.5 29.5t29.5 12.5t29.5 -12.5t12.5 -29.5t-12.5 -29.5t-29.5 -12.5t-29.5 12.5t-12.5 29.5zM115 611q0 17 12.5 29.5t29.5 12.5t29.5 -12.5t12.5 -29.5t-12.5 -29.5t-29.5 -12.5t-29.5 12.5t-12.5 29.5zM201 -12q-38 0 -67 11.5t-48.5 30t-30 43
t-10.5 50.5q0 61 38.5 96t104.5 45l127 19q31 5 40.5 17t9.5 29q0 48 -30.5 78t-89.5 30q-57 0 -92.5 -29.5t-41.5 -81.5l-56 12q4 34 20 62t40.5 47.5t57.5 30.5t71 11q46 0 80.5 -13t56.5 -35.5t33 -53t11 -64.5v-241q0 -29 2 -48t5 -34h-59q-2 8 -4 30.5t-2 51.5
q-8 -17 -23 -33.5t-36 -30t-47.5 -22t-59.5 -8.5zM208 39q34 0 63 11t50 31t32.5 49t11.5 65v54q-2 -2 -11.5 -6t-23.5 -6l-133 -20q-42 -6 -66.5 -29t-24.5 -62q0 -33 26 -60t76 -27z" />
    <glyph glyph-name="aring" unicode="&#xe5;" horiz-adv-x="500" 
d="M201 -12q-38 0 -67 11.5t-48.5 30t-30 43t-10.5 50.5q0 61 38.5 96t104.5 45l127 19q31 5 40.5 17t9.5 29q0 48 -30.5 78t-89.5 30q-57 0 -92.5 -29.5t-41.5 -81.5l-56 12q4 34 20 62t40.5 47.5t57.5 30.5t71 11q46 0 80.5 -13t56.5 -35.5t33 -53t11 -64.5v-241
q0 -29 2 -48t5 -34h-59q-2 8 -4 30.5t-2 51.5q-8 -17 -23 -33.5t-36 -30t-47.5 -22t-59.5 -8.5zM208 39q34 0 63 11t50 31t32.5 49t11.5 65v54q-2 -2 -11.5 -6t-23.5 -6l-133 -20q-42 -6 -66.5 -29t-24.5 -62q0 -33 26 -60t76 -27zM351 635q0 -22 -8.5 -41t-22.5 -33.5
t-33 -22.5t-41 -8q-21 0 -40.5 8t-33.5 22.5t-22.5 33.5t-8.5 41t8.5 41t22.5 33t33.5 22.5t40.5 8.5q22 0 41 -8.5t33 -22.5t22.5 -33t8.5 -41zM307 635q0 26 -17.5 44.5t-43.5 18.5t-43.5 -18.5t-17.5 -44.5t17.5 -44.5t43.5 -18.5t43.5 18.5t17.5 44.5z" />
    <glyph glyph-name="ae" unicode="&#xe6;" horiz-adv-x="853" 
d="M209 38q34 0 63 11t50 31t32.5 49.5t11.5 65.5v58q-3 -3 -10 -6t-16 -6t-19 -5t-18 -3l-107 -16q-42 -6 -65.5 -29t-23.5 -62q0 -34 26 -61t76 -27zM746 277q-1 33 -12 62t-31 50.5t-49.5 34t-66.5 12.5q-33 0 -61.5 -12.5t-49.5 -34t-33.5 -50.5t-14.5 -62h318zM202 -13
q-38 0 -67 11.5t-49 30.5t-30.5 43.5t-10.5 50.5q0 61 39 95.5t105 45.5l127 19q29 5 39.5 17.5t10.5 29.5q0 48 -31 78t-89 30q-57 0 -92.5 -30t-40.5 -82l-58 13q4 34 20 62t41 48t58 30.5t71 10.5q66 0 107.5 -25.5t59.5 -67.5q30 45 75.5 69t98.5 24t94 -18t69.5 -50
t44 -76t15.5 -97v-11t-1 -11h-382v-12q1 -40 15 -72t37.5 -54.5t53.5 -35t65 -12.5q64 0 102.5 33t53.5 80l53 -19q-10 -30 -28.5 -57t-45 -47.5t-60.5 -32t-75 -11.5q-65 0 -118.5 31.5t-83.5 91.5q-10 -24 -26.5 -46.5t-40.5 -39.5t-55 -27t-71 -10z" />
    <glyph glyph-name="ccedilla" unicode="&#xe7;" horiz-adv-x="529" 
d="M228 -66l35 54q-47 3 -87 23t-68.5 53t-44.5 77t-16 97q0 55 17.5 101.5t49 80t74.5 52t93 18.5q43 0 77 -12t59.5 -33t42.5 -48t25 -57l-53 -22q-6 21 -17.5 42t-29.5 38t-44 27.5t-60 10.5q-36 0 -67.5 -13.5t-55 -39t-37.5 -62.5t-14 -83q0 -45 13.5 -81.5t37.5 -62
t55.5 -39.5t67.5 -14q34 0 60.5 11t45.5 28t31 37.5t18 40.5l53 -22q-8 -26 -23 -50.5t-37.5 -44.5t-52 -34t-65.5 -18l-30 -45q11 4 24 4q40 0 64 -21t24 -55q0 -35 -27 -58.5t-81 -23.5q-35 0 -64 14t-44 33l27 32q11 -14 31.5 -26.5t48.5 -12.5q29 0 45.5 11t16.5 31
q0 19 -14.5 30t-42.5 11q-9 0 -18.5 -1.5t-18.5 -6.5z" />
    <glyph glyph-name="egrave" unicode="&#xe8;" horiz-adv-x="535" 
d="M428 277q-1 33 -12 62t-31 50.5t-49.5 34t-66.5 12.5q-33 0 -61.5 -12.5t-49.5 -34t-33.5 -50.5t-14.5 -62h318zM488 135q-10 -30 -28.5 -57t-45 -47.5t-60.5 -32t-75 -11.5q-47 0 -89.5 17t-74 49.5t-50 79.5t-18.5 107q0 56 18 102t48 79t70 51t85 18q53 0 94 -18
t69.5 -50t44 -76t15.5 -97v-11t-1 -11h-382v-4q0 -41 13.5 -74.5t37 -57.5t54.5 -37t66 -13q64 0 102.5 33t53.5 80zM137 676h76l89 -139h-47z" />
    <glyph glyph-name="eacute" unicode="&#xe9;" horiz-adv-x="535" 
d="M295 537h-49l89 139h78zM428 277q-1 33 -12 62t-31 50.5t-49.5 34t-66.5 12.5q-33 0 -61.5 -12.5t-49.5 -34t-33.5 -50.5t-14.5 -62h318zM488 135q-10 -30 -28.5 -57t-45 -47.5t-60.5 -32t-75 -11.5q-47 0 -89.5 17t-74 49.5t-50 79.5t-18.5 107q0 56 18 102t48 79t70 51
t85 18q53 0 94 -18t69.5 -50t44 -76t15.5 -97v-11t-1 -11h-382v-4q0 -41 13.5 -74.5t37 -57.5t54.5 -37t66 -13q64 0 102.5 33t53.5 80z" />
    <glyph glyph-name="ecircumflex" unicode="&#xea;" horiz-adv-x="535" 
d="M123 538l110 137h72l110 -137h-54l-92 99l-92 -99h-54zM428 277q-1 33 -12 62t-31 50.5t-49.5 34t-66.5 12.5q-33 0 -61.5 -12.5t-49.5 -34t-33.5 -50.5t-14.5 -62h318zM488 135q-10 -30 -28.5 -57t-45 -47.5t-60.5 -32t-75 -11.5q-47 0 -89.5 17t-74 49.5t-50 79.5
t-18.5 107q0 56 18 102t48 79t70 51t85 18q53 0 94 -18t69.5 -50t44 -76t15.5 -97v-11t-1 -11h-382v-4q0 -41 13.5 -74.5t37 -57.5t54.5 -37t66 -13q64 0 102.5 33t53.5 80z" />
    <glyph glyph-name="edieresis" unicode="&#xeb;" horiz-adv-x="535" 
d="M316 611q0 17 12.5 29.5t29.5 12.5t29.5 -12.5t12.5 -29.5t-12.5 -29.5t-29.5 -12.5t-29.5 12.5t-12.5 29.5zM140 611q0 17 12.5 29.5t29.5 12.5t29.5 -12.5t12.5 -29.5t-12.5 -29.5t-29.5 -12.5t-29.5 12.5t-12.5 29.5zM428 277q-1 33 -12 62t-31 50.5t-49.5 34
t-66.5 12.5q-33 0 -61.5 -12.5t-49.5 -34t-33.5 -50.5t-14.5 -62h318zM488 135q-10 -30 -28.5 -57t-45 -47.5t-60.5 -32t-75 -11.5q-47 0 -89.5 17t-74 49.5t-50 79.5t-18.5 107q0 56 18 102t48 79t70 51t85 18q53 0 94 -18t69.5 -50t44 -76t15.5 -97v-11t-1 -11h-382v-4
q0 -41 13.5 -74.5t37 -57.5t54.5 -37t66 -13q64 0 102.5 33t53.5 80z" />
    <glyph glyph-name="igrave" unicode="&#xec;" horiz-adv-x="220" 
d="M80 0v477h60v-477h-60zM-27 676h76l89 -139h-47z" />
    <glyph glyph-name="iacute" unicode="&#xed;" horiz-adv-x="220" 
d="M134 537h-49l89 139h78zM80 0v477h60v-477h-60z" />
    <glyph glyph-name="icircumflex" unicode="&#xee;" horiz-adv-x="220" 
d="M-35 538l110 137h72l110 -137h-54l-92 99l-92 -99h-54zM80 0v477h60v-477h-60z" />
    <glyph glyph-name="idieresis" unicode="&#xef;" horiz-adv-x="220" 
d="M80 0v477h60v-477h-60zM8 610q0 17 11.5 28.5t28.5 11.5t28.5 -11.5t11.5 -28.5t-11.5 -28.5t-28.5 -11.5t-28.5 11.5t-11.5 28.5zM134 610q0 17 11.5 28.5t28.5 11.5t28.5 -11.5t11.5 -28.5t-11.5 -28.5t-28.5 -11.5t-28.5 11.5t-11.5 28.5z" />
    <glyph glyph-name="eth" unicode="&#xf0;" horiz-adv-x="566" 
d="M374 603q61 -60 100 -148t39 -200q0 -57 -15.5 -106t-45.5 -85t-73.5 -56.5t-98.5 -20.5q-51 0 -94 18.5t-74 50.5t-48 76t-17 95q0 55 19 98.5t50 74t71.5 47t84.5 16.5q51 0 93.5 -19t68.5 -58q-16 57 -45 104.5t-69 85.5l-133 -67l-19 41l111 55q-64 49 -137 68l19 49
q38 -10 84 -31.5t91 -56.5l113 57l20 -41zM280 41q39 0 70.5 14.5t54.5 40.5t35.5 61.5t12.5 78.5q0 40 -14 72.5t-38 54.5t-55.5 34t-65.5 12q-35 0 -66 -12.5t-55 -35.5t-38 -57t-14 -77q0 -42 13.5 -76.5t37 -59t55 -37.5t67.5 -13z" />
    <glyph glyph-name="ntilde" unicode="&#xf1;" horiz-adv-x="537" 
d="M430 648q0 -48 -24.5 -72.5t-58.5 -24.5q-20 0 -35.5 6.5t-29.5 16.5l-21 15q-12 8 -23.5 14t-25.5 6q-38 0 -38 -55h-47v12q0 46 24.5 70.5t60.5 24.5q21 0 38.5 -8t32.5 -19l18 -13q11 -8 21 -13t23 -5q38 0 38 56h47v-11zM140 0h-60v477h58v-76q20 38 60 63t95 25
q42 0 73.5 -14t53 -38t32 -56.5t10.5 -69.5v-311h-60v301q0 28 -7 52.5t-23 42.5t-40.5 28.5t-58.5 10.5q-31 0 -55.5 -12t-42 -32.5t-26.5 -48t-9 -57.5v-285z" />
    <glyph glyph-name="ograve" unicode="&#xf2;" horiz-adv-x="568" 
d="M144 676h76l89 -139h-47zM284 -13q-50 0 -93 18.5t-75 51.5t-50.5 79t-18.5 102t18 102.5t50 79.5t75.5 51t93.5 18t93 -18t75 -51t50.5 -79.5t18.5 -102.5t-18.5 -102t-50.5 -79t-75 -51.5t-93 -18.5zM108 238q0 -47 14.5 -83.5t38.5 -61.5t56 -38.5t67 -13.5t67 13.5
t56 38.5t38.5 61.5t14.5 83.5t-14.5 83.5t-38.5 62t-56 38.5t-67 13t-67 -13t-56 -38.5t-38.5 -62t-14.5 -83.5z" />
    <glyph glyph-name="oacute" unicode="&#xf3;" horiz-adv-x="568" 
d="M297 537h-49l89 139h78zM284 -13q-50 0 -93 18.5t-75 51.5t-50.5 79t-18.5 102t18 102.5t50 79.5t75.5 51t93.5 18t93 -18t75 -51t50.5 -79.5t18.5 -102.5t-18.5 -102t-50.5 -79t-75 -51.5t-93 -18.5zM108 238q0 -47 14.5 -83.5t38.5 -61.5t56 -38.5t67 -13.5t67 13.5
t56 38.5t38.5 61.5t14.5 83.5t-14.5 83.5t-38.5 62t-56 38.5t-67 13t-67 -13t-56 -38.5t-38.5 -62t-14.5 -83.5z" />
    <glyph glyph-name="ocircumflex" unicode="&#xf4;" horiz-adv-x="568" 
d="M135 538l110 137h72l110 -137h-54l-92 99l-92 -99h-54zM284 -13q-50 0 -93 18.5t-75 51.5t-50.5 79t-18.5 102t18 102.5t50 79.5t75.5 51t93.5 18t93 -18t75 -51t50.5 -79.5t18.5 -102.5t-18.5 -102t-50.5 -79t-75 -51.5t-93 -18.5zM108 238q0 -47 14.5 -83.5t38.5 -61.5
t56 -38.5t67 -13.5t67 13.5t56 38.5t38.5 61.5t14.5 83.5t-14.5 83.5t-38.5 62t-56 38.5t-67 13t-67 -13t-56 -38.5t-38.5 -62t-14.5 -83.5z" />
    <glyph glyph-name="otilde" unicode="&#xf5;" horiz-adv-x="568" 
d="M284 -13q-50 0 -93 18.5t-75 51.5t-50.5 79t-18.5 102t18 102.5t50 79.5t75.5 51t93.5 18t93 -18t75 -51t50.5 -79.5t18.5 -102.5t-18.5 -102t-50.5 -79t-75 -51.5t-93 -18.5zM108 238q0 -47 14.5 -83.5t38.5 -61.5t56 -38.5t67 -13.5t67 13.5t56 38.5t38.5 61.5
t14.5 83.5t-14.5 83.5t-38.5 62t-56 38.5t-67 13t-67 -13t-56 -38.5t-38.5 -62t-14.5 -83.5zM434 648q0 -48 -24.5 -72.5t-58.5 -24.5q-20 0 -35.5 6.5t-29.5 16.5l-21 15q-12 8 -23.5 14t-25.5 6q-38 0 -38 -55h-47v12q0 46 24.5 70.5t60.5 24.5q21 0 38.5 -8t32.5 -19
l18 -13q11 -8 21 -13t23 -5q38 0 38 56h47v-11z" />
    <glyph glyph-name="odieresis" unicode="&#xf6;" horiz-adv-x="568" 
d="M328 611q0 17 12.5 29.5t29.5 12.5t29.5 -12.5t12.5 -29.5t-12.5 -29.5t-29.5 -12.5t-29.5 12.5t-12.5 29.5zM152 611q0 17 12.5 29.5t29.5 12.5t29.5 -12.5t12.5 -29.5t-12.5 -29.5t-29.5 -12.5t-29.5 12.5t-12.5 29.5zM284 -13q-50 0 -93 18.5t-75 51.5t-50.5 79
t-18.5 102t18 102.5t50 79.5t75.5 51t93.5 18t93 -18t75 -51t50.5 -79.5t18.5 -102.5t-18.5 -102t-50.5 -79t-75 -51.5t-93 -18.5zM108 238q0 -47 14.5 -83.5t38.5 -61.5t56 -38.5t67 -13.5t67 13.5t56 38.5t38.5 61.5t14.5 83.5t-14.5 83.5t-38.5 62t-56 38.5t-67 13
t-67 -13t-56 -38.5t-38.5 -62t-14.5 -83.5z" />
    <glyph glyph-name="divide" unicode="&#xf7;" horiz-adv-x="600" 
d="M251 170q0 20 14.5 33.5t33.5 13.5q20 0 34 -13.5t14 -33.5t-14 -34t-34 -14q-19 0 -33.5 14t-14.5 34zM79 322v53h442v-53h-442zM251 525q0 20 14.5 34t33.5 14q20 0 34 -14t14 -34q0 -19 -14 -33.5t-34 -14.5q-19 0 -33.5 14.5t-14.5 33.5z" />
    <glyph glyph-name="oslash" unicode="&#xf8;" 
d="M282 490q77 0 135 -43l55 71l39 -31l-57 -73q29 -33 46 -77.5t17 -98.5q0 -56 -18 -102t-50 -79t-75 -51.5t-92 -18.5q-37 0 -70 10t-61 29l-52 -67l-38 31l53 68q-31 33 -48.5 78.5t-17.5 101.5t18 102.5t49.5 79.5t74 51.5t92.5 18.5zM108 238q0 -42 11 -75.5t31 -58.5
l233 299q-44 33 -101 33q-35 0 -66.5 -13.5t-55.5 -39t-38 -62t-14 -83.5zM282 41q35 0 67 13.5t56 38.5t38 61.5t14 83.5q0 40 -10.5 72.5t-28.5 57.5l-232 -298q43 -29 96 -29z" />
    <glyph glyph-name="ugrave" unicode="&#xf9;" horiz-adv-x="539" 
d="M402 74q-17 -35 -55 -61t-95 -26q-45 0 -78.5 15.5t-55.5 42t-33 60.5t-11 72v300h60v-290q0 -29 7 -55t22.5 -46.5t40 -32.5t59.5 -12q32 0 57 11.5t42.5 31t26.5 46t9 56.5v291h60v-386q0 -27 2 -51t4 -40h-57q-2 8 -3.5 26t-1.5 41v7zM144 676h76l89 -139h-47z" />
    <glyph glyph-name="uacute" unicode="&#xfa;" horiz-adv-x="539" 
d="M267 537h-49l89 139h78zM402 74q-17 -35 -55 -61t-95 -26q-45 0 -78.5 15.5t-55.5 42t-33 60.5t-11 72v300h60v-290q0 -29 7 -55t22.5 -46.5t40 -32.5t59.5 -12q32 0 57 11.5t42.5 31t26.5 46t9 56.5v291h60v-386q0 -27 2 -51t4 -40h-57q-2 8 -3.5 26t-1.5 41v7z" />
    <glyph glyph-name="ucircumflex" unicode="&#xfb;" horiz-adv-x="539" 
d="M121 538l110 137h72l110 -137h-54l-92 99l-92 -99h-54zM402 74q-17 -35 -55 -61t-95 -26q-45 0 -78.5 15.5t-55.5 42t-33 60.5t-11 72v300h60v-290q0 -29 7 -55t22.5 -46.5t40 -32.5t59.5 -12q32 0 57 11.5t42.5 31t26.5 46t9 56.5v291h60v-386q0 -27 2 -51t4 -40h-57
q-2 8 -3.5 26t-1.5 41v7z" />
    <glyph glyph-name="udieresis" unicode="&#xfc;" horiz-adv-x="539" 
d="M311 611q0 17 12.5 29.5t29.5 12.5t29.5 -12.5t12.5 -29.5t-12.5 -29.5t-29.5 -12.5t-29.5 12.5t-12.5 29.5zM135 611q0 17 12.5 29.5t29.5 12.5t29.5 -12.5t12.5 -29.5t-12.5 -29.5t-29.5 -12.5t-29.5 12.5t-12.5 29.5zM402 74q-17 -35 -55 -61t-95 -26
q-45 0 -78.5 15.5t-55.5 42t-33 60.5t-11 72v300h60v-290q0 -29 7 -55t22.5 -46.5t40 -32.5t59.5 -12q32 0 57 11.5t42.5 31t26.5 46t9 56.5v291h60v-386q0 -27 2 -51t4 -40h-57q-2 8 -3.5 26t-1.5 41v7z" />
    <glyph glyph-name="yacute" unicode="&#xfd;" horiz-adv-x="501" 
d="M109 -190l119 252l-203 415h67l167 -352l158 352h66l-309 -667h-65zM255 537h-49l89 139h78z" />
    <glyph glyph-name="thorn" unicode="&#xfe;" horiz-adv-x="577" 
d="M140 722v-338q9 18 23.5 37t36 34t50 25t63.5 10q51 0 91 -19.5t67.5 -53t42.5 -79.5t15 -99t-15 -99t-43.5 -80t-69 -53.5t-90.5 -19.5q-35 0 -62.5 9.5t-48.5 24t-36 33t-24 36.5v-280h-60v912h60zM469 239q0 42 -12 78t-33.5 62.5t-52.5 41.5t-68 15t-67.5 -15
t-52 -41.5t-33 -62.5t-11.5 -78t11.5 -78.5t33 -63t52 -41.5t67.5 -15t68 15t52.5 42t33.5 63t12 78z" />
    <glyph glyph-name="ydieresis" unicode="&#xff;" horiz-adv-x="501" 
d="M300 611q0 17 12.5 29.5t29.5 12.5t29.5 -12.5t12.5 -29.5t-12.5 -29.5t-29.5 -12.5t-29.5 12.5t-12.5 29.5zM124 611q0 17 12.5 29.5t29.5 12.5t29.5 -12.5t12.5 -29.5t-12.5 -29.5t-29.5 -12.5t-29.5 12.5t-12.5 29.5zM109 -190l119 252l-203 415h67l167 -352l158 352
h66l-309 -667h-65z" />
    <glyph glyph-name="Amacron" unicode="&#x100;" horiz-adv-x="694" 
d="M516 219h-339l-87 -219h-68l287 709h76l287 -709h-68zM200 277h293l-147 369zM210 793v52h272v-52h-272z" />
    <glyph glyph-name="amacron" unicode="&#x101;" horiz-adv-x="500" 
d="M201 -12q-38 0 -67 11.5t-48.5 30t-30 43t-10.5 50.5q0 61 38.5 96t104.5 45l127 19q31 5 40.5 17t9.5 29q0 48 -30.5 78t-89.5 30q-57 0 -92.5 -29.5t-41.5 -81.5l-56 12q4 34 20 62t40.5 47.5t57.5 30.5t71 11q46 0 80.5 -13t56.5 -35.5t33 -53t11 -64.5v-241
q0 -29 2 -48t5 -34h-59q-2 8 -4 30.5t-2 51.5q-8 -17 -23 -33.5t-36 -30t-47.5 -22t-59.5 -8.5zM208 39q34 0 63 11t50 31t32.5 49t11.5 65v54q-2 -2 -11.5 -6t-23.5 -6l-133 -20q-42 -6 -66.5 -29t-24.5 -62q0 -33 26 -60t76 -27zM121 583v50h254v-50h-254z" />
    <glyph glyph-name="Abreve" unicode="&#x102;" horiz-adv-x="694" 
d="M516 219h-339l-87 -219h-68l287 709h76l287 -709h-68zM200 277h293l-147 369zM347 754q-34 0 -60 10.5t-44.5 28.5t-28.5 40.5t-12 46.5h52q1 -14 7.5 -28t17.5 -25t28 -18t40 -7t39.5 7t28 18t17.5 25t7 28h52q-2 -24 -12 -46.5t-28 -40.5t-44 -28.5t-60 -10.5z" />
    <glyph glyph-name="abreve" unicode="&#x103;" horiz-adv-x="500" 
d="M201 -12q-38 0 -67 11.5t-48.5 30t-30 43t-10.5 50.5q0 61 38.5 96t104.5 45l127 19q31 5 40.5 17t9.5 29q0 48 -30.5 78t-89.5 30q-57 0 -92.5 -29.5t-41.5 -81.5l-56 12q4 34 20 62t40.5 47.5t57.5 30.5t71 11q46 0 80.5 -13t56.5 -35.5t33 -53t11 -64.5v-241
q0 -29 2 -48t5 -34h-59q-2 8 -4 30.5t-2 51.5q-8 -17 -23 -33.5t-36 -30t-47.5 -22t-59.5 -8.5zM208 39q34 0 63 11t50 31t32.5 49t11.5 65v54q-2 -2 -11.5 -6t-23.5 -6l-133 -20q-42 -6 -66.5 -29t-24.5 -62q0 -33 26 -60t76 -27zM247 538q-34 0 -60 12t-43.5 31.5t-27 44
t-9.5 50.5h47q1 -16 6.5 -32t17 -28.5t28.5 -20.5t41 -8t41 8t28.5 20.5t17 28.5t6.5 32h47q0 -26 -9.5 -50.5t-27 -44t-43.5 -31.5t-60 -12z" />
    <glyph glyph-name="Aogonek" unicode="&#x104;" horiz-adv-x="694" 
d="M516 219h-339l-87 -219h-68l287 709h76l287 -709q-14 -7 -28.5 -17.5t-26.5 -24t-20 -29.5t-8 -35q0 -29 18.5 -43t44.5 -14q19 0 34 5v-44q-9 -4 -19.5 -6t-25.5 -2q-43 0 -73 24t-30 69q0 42 22.5 70.5t50.5 46.5h-7zM200 277h293l-147 369z" />
    <glyph glyph-name="aogonek" unicode="&#x105;" horiz-adv-x="500" 
d="M298 -117q0 42 23 71t51 47q-2 9 -3.5 30.5t-1.5 50.5q-8 -17 -23 -33.5t-36 -30t-47.5 -22t-59.5 -8.5q-38 0 -67 11.5t-48.5 30t-30 43t-10.5 50.5q0 61 38.5 96t104.5 45l127 19q31 5 40.5 17t9.5 29q0 48 -30.5 78t-89.5 30q-57 0 -92.5 -29.5t-41.5 -81.5l-56 12
q4 34 20 62t40.5 47.5t57.5 30.5t71 11q46 0 80.5 -13t56.5 -35.5t33 -53t11 -64.5v-241q0 -29 2 -48t5 -34q-14 -7 -28.5 -17.5t-26.5 -24t-20 -29.5t-8 -35q0 -29 18.5 -43t44.5 -14q19 0 34 5v-44q-9 -4 -19.5 -6t-25.5 -2q-43 0 -73 24t-30 69zM208 39q34 0 63 11t50 31
t32.5 49t11.5 65v54q-2 -2 -11.5 -6t-23.5 -6l-133 -20q-42 -6 -66.5 -29t-24.5 -62q0 -33 26 -60t76 -27z" />
    <glyph glyph-name="Cacute" unicode="&#x106;" horiz-adv-x="746" 
d="M411 759h-57l107 119h84zM399 -13q-66 0 -128.5 24t-111 70.5t-78 115t-29.5 157.5t29.5 157.5t78.5 115.5t111.5 71t127.5 24q60 0 110.5 -16.5t89.5 -46t66 -71t39 -92.5l-57 -20q-21 88 -86 138t-162 50q-54 0 -105 -20t-90.5 -59t-63.5 -97t-24 -134t24 -133.5
t63.5 -96.5t90.5 -59t105 -20q50 0 91.5 14t74 39.5t54.5 60.5t33 77l55 -20q-13 -50 -40 -92t-66.5 -72.5t-90.5 -47.5t-111 -17z" />
    <glyph glyph-name="cacute" unicode="&#x107;" horiz-adv-x="529" 
d="M298 537h-49l89 139h78zM281 436q-36 0 -67.5 -13.5t-55 -39t-37.5 -62.5t-14 -83q0 -45 13.5 -81.5t37.5 -62t55.5 -39.5t67.5 -14q34 0 60.5 11t45.5 28t31 37.5t18 40.5l53 -22q-9 -28 -26 -54.5t-43.5 -47.5t-61 -34t-77.5 -13q-51 0 -93.5 18.5t-74 52t-49 79.5
t-17.5 101t17.5 101.5t49 80t74.5 52t93 18.5q43 0 77 -12t59.5 -33t42.5 -48t25 -57l-53 -22q-6 21 -17.5 42t-29.5 38t-44 27.5t-60 10.5z" />
    <glyph glyph-name="Ccircumflex" unicode="&#x108;" horiz-adv-x="746" 
d="M243 759l115 119h82l116 -119h-59l-98 84l-97 -84h-59zM399 -13q-66 0 -128.5 24t-111 70.5t-78 115t-29.5 157.5t29.5 157.5t78.5 115.5t111.5 71t127.5 24q60 0 110.5 -16.5t89.5 -46t66 -71t39 -92.5l-57 -20q-21 88 -86 138t-162 50q-54 0 -105 -20t-90.5 -59
t-63.5 -97t-24 -134t24 -133.5t63.5 -96.5t90.5 -59t105 -20q50 0 91.5 14t74 39.5t54.5 60.5t33 77l55 -20q-13 -50 -40 -92t-66.5 -72.5t-90.5 -47.5t-111 -17z" />
    <glyph glyph-name="ccircumflex" unicode="&#x109;" horiz-adv-x="529" 
d="M137 538l110 137h72l110 -137h-54l-92 99l-92 -99h-54zM281 436q-36 0 -67.5 -13.5t-55 -39t-37.5 -62.5t-14 -83q0 -45 13.5 -81.5t37.5 -62t55.5 -39.5t67.5 -14q34 0 60.5 11t45.5 28t31 37.5t18 40.5l53 -22q-9 -28 -26 -54.5t-43.5 -47.5t-61 -34t-77.5 -13
q-51 0 -93.5 18.5t-74 52t-49 79.5t-17.5 101t17.5 101.5t49 80t74.5 52t93 18.5q43 0 77 -12t59.5 -33t42.5 -48t25 -57l-53 -22q-6 21 -17.5 42t-29.5 38t-44 27.5t-60 10.5z" />
    <glyph glyph-name="Cdotaccent" unicode="&#x10a;" horiz-adv-x="746" 
d="M399 -13q-66 0 -128.5 24t-111 70.5t-78 115t-29.5 157.5t29.5 157.5t78.5 115.5t111.5 71t127.5 24q60 0 110.5 -16.5t89.5 -46t66 -71t39 -92.5l-57 -20q-21 88 -86 138t-162 50q-54 0 -105 -20t-90.5 -59t-63.5 -97t-24 -134t24 -133.5t63.5 -96.5t90.5 -59t105 -20
q50 0 91.5 14t74 39.5t54.5 60.5t33 77l55 -20q-13 -50 -40 -92t-66.5 -72.5t-90.5 -47.5t-111 -17zM354 818q0 20 13.5 33.5t33.5 13.5t33.5 -13.5t13.5 -33.5t-13.5 -33.5t-33.5 -13.5t-33.5 13.5t-13.5 33.5z" />
    <glyph glyph-name="cdotaccent" unicode="&#x10b;" horiz-adv-x="529" 
d="M281 436q-36 0 -67.5 -13.5t-55 -39t-37.5 -62.5t-14 -83q0 -45 13.5 -81.5t37.5 -62t55.5 -39.5t67.5 -14q34 0 60.5 11t45.5 28t31 37.5t18 40.5l53 -22q-9 -28 -26 -54.5t-43.5 -47.5t-61 -34t-77.5 -13q-51 0 -93.5 18.5t-74 52t-49 79.5t-17.5 101t17.5 101.5t49 80
t74.5 52t93 18.5q43 0 77 -12t59.5 -33t42.5 -48t25 -57l-53 -22q-6 21 -17.5 42t-29.5 38t-44 27.5t-60 10.5zM237 607q0 20 13.5 33.5t33.5 13.5t33.5 -13.5t13.5 -33.5t-13.5 -33.5t-33.5 -13.5t-33.5 13.5t-13.5 33.5z" />
    <glyph glyph-name="Ccaron" unicode="&#x10c;" horiz-adv-x="746" 
d="M302 878l97 -84l98 84h59l-116 -119h-82l-115 119h59zM399 -13q-66 0 -128.5 24t-111 70.5t-78 115t-29.5 157.5t29.5 157.5t78.5 115.5t111.5 71t127.5 24q60 0 110.5 -16.5t89.5 -46t66 -71t39 -92.5l-57 -20q-21 88 -86 138t-162 50q-54 0 -105 -20t-90.5 -59
t-63.5 -97t-24 -134t24 -133.5t63.5 -96.5t90.5 -59t105 -20q50 0 91.5 14t74 39.5t54.5 60.5t33 77l55 -20q-13 -50 -40 -92t-66.5 -72.5t-90.5 -47.5t-111 -17z" />
    <glyph glyph-name="ccaron" unicode="&#x10d;" horiz-adv-x="529" 
d="M185 675l92 -99l92 99h54l-110 -137h-72l-110 137h54zM281 436q-36 0 -67.5 -13.5t-55 -39t-37.5 -62.5t-14 -83q0 -45 13.5 -81.5t37.5 -62t55.5 -39.5t67.5 -14q34 0 60.5 11t45.5 28t31 37.5t18 40.5l53 -22q-9 -28 -26 -54.5t-43.5 -47.5t-61 -34t-77.5 -13
q-51 0 -93.5 18.5t-74 52t-49 79.5t-17.5 101t17.5 101.5t49 80t74.5 52t93 18.5q43 0 77 -12t59.5 -33t42.5 -48t25 -57l-53 -22q-6 21 -17.5 42t-29.5 38t-44 27.5t-60 10.5z" />
    <glyph glyph-name="Dcaron" unicode="&#x10e;" horiz-adv-x="712" 
d="M253 878l97 -84l98 84h59l-116 -119h-82l-115 119h59zM318 56q55 0 105 18.5t88 55.5t60.5 93t22.5 130q0 75 -22 131t-59.5 93.5t-87.5 56.5t-105 19h-156v-597h154zM101 0v709h221q67 0 128.5 -23t107.5 -68t73.5 -111.5t27.5 -153.5t-27.5 -153t-74.5 -110.5
t-108.5 -67t-128.5 -22.5h-219z" />
    <glyph glyph-name="dcaron" unicode="&#x10f;" horiz-adv-x="574" 
d="M580 546h-46l36 176h68zM107 239q0 -42 11.5 -78t33 -63t52 -42t68.5 -15q37 0 67 15t51 42t32.5 63t11.5 78t-11.5 78.5t-32.5 62.5t-50.5 41t-66.5 15q-38 0 -68.5 -14.5t-52 -41t-33.5 -62.5t-12 -79zM434 94q-8 -18 -22 -37t-34.5 -34.5t-48 -25.5t-62.5 -10
q-50 0 -91 19.5t-69.5 53.5t-44 80t-15.5 99q0 52 16 98t44.5 80t69 53.5t90.5 19.5q38 0 66.5 -10.5t48.5 -26t32.5 -33.5t18.5 -33v335h60v-631q0 -38 2 -62.5t3 -28.5h-59q-2 9 -3.5 29t-1.5 46v19z" />
    <glyph glyph-name="Dcroat" unicode="&#x110;" horiz-adv-x="713" 
d="M102 0v339h-78v54h78v316h221q67 0 128.5 -23t107.5 -68t73.5 -111.5t27.5 -153.5t-27.5 -153t-74.5 -110.5t-108.5 -67t-128.5 -22.5h-219zM319 56q55 0 105 18.5t88 55.5t60.5 93t22.5 130q0 75 -22 131t-59.5 93.5t-87.5 56.5t-105 19h-156v-260h143v-54h-143v-283
h154z" />
    <glyph glyph-name="dcroat" unicode="&#x111;" horiz-adv-x="574" 
d="M434 94q-8 -18 -22 -37t-34.5 -34.5t-48 -25.5t-62.5 -10q-50 0 -91 19.5t-69.5 53.5t-44 80t-15.5 99q0 52 16 98t44.5 80t69 53.5t90.5 19.5q38 0 66.5 -10.5t48.5 -26t32.5 -33.5t18.5 -33v183h-132v50h132v102h60v-102h94v-50h-94v-479q0 -38 2 -62.5t3 -28.5h-59
q-2 9 -3.5 29t-1.5 46v19zM107 239q0 -42 11.5 -78t33 -63t52 -42t68.5 -15q37 0 67 15t51 42t32.5 63t11.5 78t-11.5 78.5t-32.5 62.5t-50.5 41t-66.5 15q-38 0 -68.5 -14.5t-52 -41t-33.5 -62.5t-12 -79z" />
    <glyph glyph-name="Emacron" unicode="&#x112;" horiz-adv-x="575" 
d="M101 0v709h418v-58h-354v-267h323v-58h-323v-268h354v-58h-418zM173 793v52h272v-52h-272z" />
    <glyph glyph-name="emacron" unicode="&#x113;" horiz-adv-x="535" 
d="M142 583v50h254v-50h-254zM428 277q-1 33 -12 62t-31 50.5t-49.5 34t-66.5 12.5q-33 0 -61.5 -12.5t-49.5 -34t-33.5 -50.5t-14.5 -62h318zM488 135q-10 -30 -28.5 -57t-45 -47.5t-60.5 -32t-75 -11.5q-47 0 -89.5 17t-74 49.5t-50 79.5t-18.5 107q0 56 18 102t48 79
t70 51t85 18q53 0 94 -18t69.5 -50t44 -76t15.5 -97v-11t-1 -11h-382v-4q0 -41 13.5 -74.5t37 -57.5t54.5 -37t66 -13q64 0 102.5 33t53.5 80z" />
    <glyph glyph-name="Ebreve" unicode="&#x114;" horiz-adv-x="575" 
d="M312 754q-34 0 -60 10.5t-44.5 28.5t-28.5 40.5t-12 46.5h52q1 -14 7.5 -28t17.5 -25t28 -18t40 -7t39.5 7t28 18t17.5 25t7 28h52q-2 -24 -12 -46.5t-28 -40.5t-44 -28.5t-60 -10.5zM101 0v709h418v-58h-354v-267h323v-58h-323v-268h354v-58h-418z" />
    <glyph glyph-name="ebreve" unicode="&#x115;" horiz-adv-x="535" 
d="M428 277q-1 33 -12 62t-31 50.5t-49.5 34t-66.5 12.5q-33 0 -61.5 -12.5t-49.5 -34t-33.5 -50.5t-14.5 -62h318zM488 135q-10 -30 -28.5 -57t-45 -47.5t-60.5 -32t-75 -11.5q-47 0 -89.5 17t-74 49.5t-50 79.5t-18.5 107q0 56 18 102t48 79t70 51t85 18q53 0 94 -18
t69.5 -50t44 -76t15.5 -97v-11t-1 -11h-382v-4q0 -41 13.5 -74.5t37 -57.5t54.5 -37t66 -13q64 0 102.5 33t53.5 80zM269 538q-34 0 -60 12t-43.5 31.5t-27 44t-9.5 50.5h47q1 -16 6.5 -32t17 -28.5t28.5 -20.5t41 -8t41 8t28.5 20.5t17 28.5t6.5 32h47q0 -26 -9.5 -50.5
t-27 -44t-43.5 -31.5t-60 -12z" />
    <glyph glyph-name="Edotaccent" unicode="&#x116;" horiz-adv-x="575" 
d="M266 818q0 20 13.5 33.5t33.5 13.5t33.5 -13.5t13.5 -33.5t-13.5 -33.5t-33.5 -13.5t-33.5 13.5t-13.5 33.5zM101 0v709h418v-58h-354v-267h323v-58h-323v-268h354v-58h-418z" />
    <glyph glyph-name="edotaccent" unicode="&#x117;" horiz-adv-x="535" 
d="M428 277q-1 33 -12 62t-31 50.5t-49.5 34t-66.5 12.5q-33 0 -61.5 -12.5t-49.5 -34t-33.5 -50.5t-14.5 -62h318zM488 135q-10 -30 -28.5 -57t-45 -47.5t-60.5 -32t-75 -11.5q-47 0 -89.5 17t-74 49.5t-50 79.5t-18.5 107q0 56 18 102t48 79t70 51t85 18q53 0 94 -18
t69.5 -50t44 -76t15.5 -97v-11t-1 -11h-382v-4q0 -41 13.5 -74.5t37 -57.5t54.5 -37t66 -13q64 0 102.5 33t53.5 80zM222 607q0 20 13.5 33.5t33.5 13.5t33.5 -13.5t13.5 -33.5t-13.5 -33.5t-33.5 -13.5t-33.5 13.5t-13.5 33.5z" />
    <glyph glyph-name="Eogonek" unicode="&#x118;" horiz-adv-x="575" 
d="M385 -117q0 42 22.5 70.5t50.5 46.5h-357v709h418v-58h-354v-267h323v-58h-323v-268h354v-58q-14 -7 -28.5 -17.5t-26.5 -24t-20 -29.5t-8 -35q0 -29 18.5 -43t44.5 -14q19 0 34 5v-44q-9 -4 -19.5 -6t-25.5 -2q-43 0 -73 24t-30 69z" />
    <glyph glyph-name="eogonek" unicode="&#x119;" horiz-adv-x="535" 
d="M224 -117q0 35 16 60.5t39 43.5q-47 0 -89.5 17t-74 49.5t-50 79.5t-18.5 107q0 56 18 102t48 79t70 51t85 18q53 0 94 -18t69.5 -50t44 -76t15.5 -97v-11t-1 -11h-382v-4q0 -41 13.5 -74.5t37 -57.5t54.5 -37t66 -13q64 0 102.5 33t53.5 80l53 -19q-16 -45 -45 -78.5
t-77 -53.5q-16 -7 -32.5 -17.5t-29.5 -25t-21 -31t-8 -35.5q0 -29 18.5 -43t44.5 -14q19 0 34 5v-44q-9 -4 -19.5 -6t-25.5 -2q-43 0 -73 24t-30 69zM428 277q-1 33 -12 62t-31 50.5t-49.5 34t-66.5 12.5q-33 0 -61.5 -12.5t-49.5 -34t-33.5 -50.5t-14.5 -62h318z" />
    <glyph glyph-name="Ecaron" unicode="&#x11a;" horiz-adv-x="575" 
d="M220 878l97 -84l98 84h59l-116 -119h-82l-115 119h59zM101 0v709h418v-58h-354v-267h323v-58h-323v-268h354v-58h-418z" />
    <glyph glyph-name="ecaron" unicode="&#x11b;" horiz-adv-x="535" 
d="M177 675l92 -99l92 99h54l-110 -137h-72l-110 137h54zM428 277q-1 33 -12 62t-31 50.5t-49.5 34t-66.5 12.5q-33 0 -61.5 -12.5t-49.5 -34t-33.5 -50.5t-14.5 -62h318zM488 135q-10 -30 -28.5 -57t-45 -47.5t-60.5 -32t-75 -11.5q-47 0 -89.5 17t-74 49.5t-50 79.5
t-18.5 107q0 56 18 102t48 79t70 51t85 18q53 0 94 -18t69.5 -50t44 -76t15.5 -97v-11t-1 -11h-382v-4q0 -41 13.5 -74.5t37 -57.5t54.5 -37t66 -13q64 0 102.5 33t53.5 80z" />
    <glyph glyph-name="Gcircumflex" unicode="&#x11c;" horiz-adv-x="766" 
d="M239 759l115 119h82l116 -119h-59l-98 84l-97 -84h-59zM649 0l-6 137q-10 -23 -30 -49t-51 -48.5t-74.5 -37.5t-101.5 -15q-62 0 -122 24t-107 70.5t-76 115t-29 158.5q0 89 29 157.5t77 115t110 70.5t127 24q57 0 106.5 -15.5t89 -43.5t68.5 -67t44 -87l-57 -24
q-26 83 -91.5 131t-159.5 48q-54 0 -104 -19.5t-89 -58.5t-62.5 -97t-23.5 -134q0 -77 23.5 -135t62 -97t87.5 -59t99 -20q70 0 117.5 23.5t77 58.5t42.5 75t14 74h-262v58h322v-333h-50z" />
    <glyph glyph-name="gcircumflex" unicode="&#x11d;" horiz-adv-x="562" 
d="M132 538l110 137h72l110 -137h-54l-92 99l-92 -99h-54zM105 -13q3 -28 15.5 -53t32.5 -43.5t46.5 -29.5t58.5 -11q47 0 78.5 15t50.5 40t27 58.5t8 70.5v88q-8 -18 -22 -35.5t-34 -31t-46 -22t-59 -8.5q-47 0 -86 17.5t-67.5 48.5t-44 73.5t-15.5 92.5q0 49 15.5 91
t43.5 73t67 49t87 18q33 0 59.5 -7.5t46 -20.5t33.5 -30t23 -35v82h59v-442q0 -42 -10.5 -84t-36 -76.5t-69 -56t-109.5 -21.5q-44 0 -80 13.5t-63.5 37t-44.5 55.5t-21 70zM268 77q35 0 64 13.5t49.5 37.5t31.5 57t11 72t-11 71.5t-31.5 56.5t-49.5 37.5t-64 13.5
q-36 0 -65.5 -13.5t-50.5 -37t-32.5 -56.5t-11.5 -72t11.5 -72t32.5 -57t50.5 -37.5t65.5 -13.5z" />
    <glyph glyph-name="Gbreve" unicode="&#x11e;" horiz-adv-x="766" 
d="M396 754q-34 0 -60 10.5t-44.5 28.5t-28.5 40.5t-12 46.5h52q1 -14 7.5 -28t17.5 -25t28 -18t40 -7t39.5 7t28 18t17.5 25t7 28h52q-2 -24 -12 -46.5t-28 -40.5t-44 -28.5t-60 -10.5zM649 0l-6 137q-10 -23 -30 -49t-51 -48.5t-74.5 -37.5t-101.5 -15q-62 0 -122 24
t-107 70.5t-76 115t-29 158.5q0 89 29 157.5t77 115t110 70.5t127 24q57 0 106.5 -15.5t89 -43.5t68.5 -67t44 -87l-57 -24q-26 83 -91.5 131t-159.5 48q-54 0 -104 -19.5t-89 -58.5t-62.5 -97t-23.5 -134q0 -77 23.5 -135t62 -97t87.5 -59t99 -20q70 0 117.5 23.5t77 58.5
t42.5 75t14 74h-262v58h322v-333h-50z" />
    <glyph glyph-name="gbreve" unicode="&#x11f;" horiz-adv-x="562" 
d="M105 -13q3 -28 15.5 -53t32.5 -43.5t46.5 -29.5t58.5 -11q47 0 78.5 15t50.5 40t27 58.5t8 70.5v88q-8 -18 -22 -35.5t-34 -31t-46 -22t-59 -8.5q-47 0 -86 17.5t-67.5 48.5t-44 73.5t-15.5 92.5q0 49 15.5 91t43.5 73t67 49t87 18q33 0 59.5 -7.5t46 -20.5t33.5 -30
t23 -35v82h59v-442q0 -42 -10.5 -84t-36 -76.5t-69 -56t-109.5 -21.5q-44 0 -80 13.5t-63.5 37t-44.5 55.5t-21 70zM268 77q35 0 64 13.5t49.5 37.5t31.5 57t11 72t-11 71.5t-31.5 56.5t-49.5 37.5t-64 13.5q-36 0 -65.5 -13.5t-50.5 -37t-32.5 -56.5t-11.5 -72t11.5 -72
t32.5 -57t50.5 -37.5t65.5 -13.5zM278 538q-34 0 -60 12t-43.5 31.5t-27 44t-9.5 50.5h47q1 -16 6.5 -32t17 -28.5t28.5 -20.5t41 -8t41 8t28.5 20.5t17 28.5t6.5 32h47q0 -26 -9.5 -50.5t-27 -44t-43.5 -31.5t-60 -12z" />
    <glyph glyph-name="Gdotaccent" unicode="&#x120;" horiz-adv-x="766" 
d="M349 818q0 20 13.5 33.5t33.5 13.5t33.5 -13.5t13.5 -33.5t-13.5 -33.5t-33.5 -13.5t-33.5 13.5t-13.5 33.5zM649 0l-6 137q-10 -23 -30 -49t-51 -48.5t-74.5 -37.5t-101.5 -15q-62 0 -122 24t-107 70.5t-76 115t-29 158.5q0 89 29 157.5t77 115t110 70.5t127 24
q57 0 106.5 -15.5t89 -43.5t68.5 -67t44 -87l-57 -24q-26 83 -91.5 131t-159.5 48q-54 0 -104 -19.5t-89 -58.5t-62.5 -97t-23.5 -134q0 -77 23.5 -135t62 -97t87.5 -59t99 -20q70 0 117.5 23.5t77 58.5t42.5 75t14 74h-262v58h322v-333h-50z" />
    <glyph glyph-name="gdotaccent" unicode="&#x121;" horiz-adv-x="562" 
d="M231 607q0 20 13.5 33.5t33.5 13.5t33.5 -13.5t13.5 -33.5t-13.5 -33.5t-33.5 -13.5t-33.5 13.5t-13.5 33.5zM105 -13q3 -28 15.5 -53t32.5 -43.5t46.5 -29.5t58.5 -11q47 0 78.5 15t50.5 40t27 58.5t8 70.5v88q-8 -18 -22 -35.5t-34 -31t-46 -22t-59 -8.5
q-47 0 -86 17.5t-67.5 48.5t-44 73.5t-15.5 92.5q0 49 15.5 91t43.5 73t67 49t87 18q33 0 59.5 -7.5t46 -20.5t33.5 -30t23 -35v82h59v-442q0 -42 -10.5 -84t-36 -76.5t-69 -56t-109.5 -21.5q-44 0 -80 13.5t-63.5 37t-44.5 55.5t-21 70zM268 77q35 0 64 13.5t49.5 37.5
t31.5 57t11 72t-11 71.5t-31.5 56.5t-49.5 37.5t-64 13.5q-36 0 -65.5 -13.5t-50.5 -37t-32.5 -56.5t-11.5 -72t11.5 -72t32.5 -57t50.5 -37.5t65.5 -13.5z" />
    <glyph glyph-name="Gcommaaccent" unicode="&#x122;" horiz-adv-x="766" 
d="M351 -84q0 19 13.5 30.5t32.5 11.5q18 0 34.5 -13.5t16.5 -45.5q0 -26 -8.5 -45t-22.5 -32.5t-31.5 -21t-36.5 -8.5v30q26 2 43.5 18.5t19.5 39.5q-6 -6 -19 -6q-18 0 -30 11t-12 31zM649 0l-6 137q-10 -23 -30 -49t-51 -48.5t-74.5 -37.5t-101.5 -15q-62 0 -122 24
t-107 70.5t-76 115t-29 158.5q0 89 29 157.5t77 115t110 70.5t127 24q57 0 106.5 -15.5t89 -43.5t68.5 -67t44 -87l-57 -24q-26 83 -91.5 131t-159.5 48q-54 0 -104 -19.5t-89 -58.5t-62.5 -97t-23.5 -134q0 -77 23.5 -135t62 -97t87.5 -59t99 -20q70 0 117.5 23.5t77 58.5
t42.5 75t14 74h-262v58h322v-333h-50z" />
    <glyph glyph-name="gcommaaccent" unicode="&#x123;" horiz-adv-x="562" 
d="M326 573q0 -19 -13.5 -30.5t-32.5 -11.5q-18 0 -34.5 13.5t-16.5 45.5q0 25 8.5 44.5t22.5 33t31.5 21t36.5 8.5v-30q-26 -2 -43.5 -18.5t-19.5 -39.5q6 6 19 6q18 0 30 -11t12 -31zM105 -13q3 -28 15.5 -53t32.5 -43.5t46.5 -29.5t58.5 -11q47 0 78.5 15t50.5 40
t27 58.5t8 70.5v88q-8 -18 -22 -35.5t-34 -31t-46 -22t-59 -8.5q-47 0 -86 17.5t-67.5 48.5t-44 73.5t-15.5 92.5q0 49 15.5 91t43.5 73t67 49t87 18q33 0 59.5 -7.5t46 -20.5t33.5 -30t23 -35v82h59v-442q0 -42 -10.5 -84t-36 -76.5t-69 -56t-109.5 -21.5q-44 0 -80 13.5
t-63.5 37t-44.5 55.5t-21 70zM268 77q35 0 64 13.5t49.5 37.5t31.5 57t11 72t-11 71.5t-31.5 56.5t-49.5 37.5t-64 13.5q-36 0 -65.5 -13.5t-50.5 -37t-32.5 -56.5t-11.5 -72t11.5 -72t32.5 -57t50.5 -37.5t65.5 -13.5z" />
    <glyph glyph-name="Hcircumflex" unicode="&#x124;" horiz-adv-x="736" 
d="M211 759l115 119h82l116 -119h-59l-98 84l-97 -84h-59zM571 0v331h-406v-331h-64v709h64v-320h406v320h64v-709h-64z" />
    <glyph glyph-name="hcircumflex" unicode="&#x125;" horiz-adv-x="537" 
d="M117 763l115 119h82l116 -119h-59l-98 84l-97 -84h-59zM140 0h-60v722h60v-320q19 36 58 62t95 26q42 0 74 -14t53 -38t31.5 -56.5t10.5 -69.5v-312h-60v302q0 28 -7.5 52.5t-23.5 42.5t-40 28.5t-58 10.5q-30 0 -55 -12.5t-42 -33t-26.5 -47.5t-9.5 -56v-287z" />
    <glyph glyph-name="Hbar" unicode="&#x126;" horiz-adv-x="736" 
d="M31 577h70v132h64v-132h406v132h64v-132h70v-54h-70v-523h-64v331h-406v-331h-64v523h-70v54zM571 389v134h-406v-134h406z" />
    <glyph glyph-name="hbar" unicode="&#x127;" horiz-adv-x="537" 
d="M140 0h-60v570h-94v50h94v102h60v-102h132v-50h-132v-168q19 36 58 62t95 26q42 0 74 -14t53 -38t31.5 -56.5t10.5 -69.5v-312h-60v302q0 28 -7.5 52.5t-23.5 42.5t-40 28.5t-58 10.5q-30 0 -55 -12.5t-42 -33t-26.5 -47.5t-9.5 -56v-287z" />
    <glyph glyph-name="Itilde" unicode="&#x128;" horiz-adv-x="266" 
d="M101 0v709h64v-709h-64zM289 860q0 -48 -25 -72.5t-59 -24.5q-20 0 -36 6.5t-30 16.5l-21 15q-12 8 -24 14t-26 6q-39 0 -39 -55h-47v12q0 46 25 70.5t61 24.5q21 0 39 -8t33 -19l18 -13q11 -8 21.5 -13t23.5 -5q39 0 39 56h47v-11z" />
    <glyph glyph-name="itilde" unicode="&#x129;" horiz-adv-x="220" 
d="M80 0v477h60v-477h-60zM263 648q0 -48 -24.5 -72.5t-58.5 -24.5q-20 0 -35.5 6.5t-29.5 16.5l-21 15q-12 8 -23.5 14t-25.5 6q-38 0 -38 -55h-47v12q0 46 24.5 70.5t60.5 24.5q21 0 38.5 -8t32.5 -19l18 -13q11 -8 21 -13t23 -5q38 0 38 56h47v-11z" />
    <glyph glyph-name="Imacron" unicode="&#x12a;" horiz-adv-x="266" 
d="M101 0v709h64v-709h-64zM-2 793v52h272v-52h-272z" />
    <glyph glyph-name="imacron" unicode="&#x12b;" horiz-adv-x="220" 
d="M80 0v477h60v-477h-60zM-16 583v50h254v-50h-254z" />
    <glyph glyph-name="Ibreve" unicode="&#x12c;" horiz-adv-x="266" 
d="M101 0v709h64v-709h-64zM135 754q-34 0 -60 10.5t-44.5 28.5t-28.5 40.5t-12 46.5h52q1 -14 7.5 -28t17.5 -25t28 -18t40 -7t39.5 7t28 18t17.5 25t7 28h52q-2 -24 -12 -46.5t-28 -40.5t-44 -28.5t-60 -10.5z" />
    <glyph glyph-name="ibreve" unicode="&#x12d;" horiz-adv-x="220" 
d="M80 0v477h60v-477h-60zM111 538q-34 0 -60 12t-43.5 31.5t-27 44t-9.5 50.5h47q1 -16 6.5 -32t17 -28.5t28.5 -20.5t41 -8t41 8t28.5 20.5t17 28.5t6.5 32h47q0 -26 -9.5 -50.5t-27 -44t-43.5 -31.5t-60 -12z" />
    <glyph glyph-name="Iogonek" unicode="&#x12e;" horiz-adv-x="266" 
d="M31 -117q0 42 22.5 70.5t50.5 46.5h-3v709h64v-709q-14 -7 -28.5 -17.5t-26.5 -24t-20 -29.5t-8 -35q0 -29 18.5 -43t44.5 -14q19 0 34 5v-44q-9 -4 -19.5 -6t-25.5 -2q-43 0 -73 24t-30 69z" />
    <glyph glyph-name="iogonek" unicode="&#x12f;" horiz-adv-x="220" 
d="M6 -117q0 42 22.5 70.5t51.5 46.5v477h60v-477q-14 -7 -28.5 -17.5t-26.5 -24t-20 -29.5t-8 -35q0 -29 18.5 -43t44.5 -14q19 0 34 5v-44q-9 -4 -19.5 -6t-25.5 -2q-43 0 -73 24t-30 69zM60 675q0 22 14.5 36t35.5 14t35.5 -14t14.5 -36t-14.5 -36t-35.5 -14t-35.5 14
t-14.5 36z" />
    <glyph glyph-name="Idotaccent" unicode="&#x130;" horiz-adv-x="266" 
d="M101 0v709h64v-709h-64zM87 818q0 20 13.5 33.5t33.5 13.5t33.5 -13.5t13.5 -33.5t-13.5 -33.5t-33.5 -13.5t-33.5 13.5t-13.5 33.5z" />
    <glyph glyph-name="dotlessi" unicode="&#x131;" horiz-adv-x="220" 
d="M80 0v477h60v-477h-60z" />
    <glyph glyph-name="IJ" unicode="&#x132;" horiz-adv-x="597" 
d="M93 300v409h64v-409h-64zM93 225l63 15v-29q0 -79 38 -122.5t106 -43.5t104 43.5t36 119.5v501h64v-500q0 -48 -14 -89t-40 -70.5t-64 -46t-86 -16.5q-97 0 -152 59.5t-55 161.5v17z" />
    <glyph glyph-name="ij" unicode="&#x133;" horiz-adv-x="440" 
d="M80 0v477h60v-477h-60zM60 675q0 22 14.5 36t35.5 14t35.5 -14t14.5 -36t-14.5 -36t-35.5 -14t-35.5 14t-14.5 36zM300 477h60v-542q0 -66 -34.5 -102t-91.5 -36q-20 0 -32.5 2.5t-20.5 6.5v51q16 -6 41 -6q78 0 78 86v540zM280 675q0 22 14.5 36t35.5 14t35.5 -14
t14.5 -36t-14.5 -36t-35.5 -14t-35.5 14t-14.5 36z" />
    <glyph glyph-name="Jcircumflex" unicode="&#x134;" horiz-adv-x="537" 
d="M256 759l115 119h82l116 -119h-59l-98 84l-97 -84h-59zM33 253l63 15v-57q0 -79 38 -122.5t106 -43.5t104 43.5t36 119.5v501h64v-500q0 -48 -14 -89t-40 -70.5t-64 -46t-86 -16.5q-97 0 -152 59.5t-55 161.5v45z" />
    <glyph glyph-name="jcircumflex" unicode="&#x135;" horiz-adv-x="220" 
d="M-35 538l110 137h72l110 -137h-54l-92 99l-92 -99h-54zM80 477h60v-542q0 -66 -34.5 -102t-91.5 -36q-20 0 -32.5 2.5t-20.5 6.5v51q16 -6 41 -6q78 0 78 86v540z" />
    <glyph glyph-name="Kcommaaccent" unicode="&#x136;" horiz-adv-x="638" 
d="M287 349l-122 -130v-219h-64v709h64v-406l376 406h83l-295 -315l299 -394h-80zM303 -84q0 19 13.5 30.5t32.5 11.5q18 0 34.5 -13.5t16.5 -45.5q0 -26 -8.5 -45t-22.5 -32.5t-31.5 -21t-36.5 -8.5v30q26 2 43.5 18.5t19.5 39.5q-6 -6 -19 -6q-18 0 -30 11t-12 31z" />
    <glyph glyph-name="kcommaaccent" unicode="&#x137;" horiz-adv-x="496" 
d="M270 274l207 -274h-75l-174 233l-88 -87v-146h-60v722h60v-497l250 252h83zM226 -84q0 19 13.5 30.5t32.5 11.5q18 0 34.5 -13.5t16.5 -45.5q0 -26 -8.5 -45t-22.5 -32.5t-31.5 -21t-36.5 -8.5v30q26 2 43.5 18.5t19.5 39.5q-6 -6 -19 -6q-18 0 -30 11t-12 31z" />
    <glyph glyph-name="kgreenlandic" unicode="&#x138;" horiz-adv-x="495" 
d="M269 274l207 -274h-75l-174 233l-88 -87v-146h-59v477h59v-252l250 252h83z" />
    <glyph glyph-name="Lacute" unicode="&#x139;" horiz-adv-x="544" 
d="M162 759h-57l107 119h84zM101 0v709h64v-651h358v-58h-422z" />
    <glyph glyph-name="lacute" unicode="&#x13a;" horiz-adv-x="220" 
d="M139 763h-57l107 119h84zM80 0v722h60v-722h-60z" />
    <glyph glyph-name="Lcommaaccent" unicode="&#x13b;" horiz-adv-x="544" 
d="M270 -84q0 19 13.5 30.5t32.5 11.5q18 0 34.5 -13.5t16.5 -45.5q0 -26 -8.5 -45t-22.5 -32.5t-31.5 -21t-36.5 -8.5v30q26 2 43.5 18.5t19.5 39.5q-6 -6 -19 -6q-18 0 -30 11t-12 31zM101 0v709h64v-651h358v-58h-422z" />
    <glyph glyph-name="lcommaaccent" unicode="&#x13c;" horiz-adv-x="220" 
d="M62 -84q0 19 13.5 30.5t32.5 11.5q18 0 34.5 -13.5t16.5 -45.5q0 -26 -8.5 -45t-22.5 -32.5t-31.5 -21t-36.5 -8.5v30q26 2 43.5 18.5t19.5 39.5q-6 -6 -19 -6q-18 0 -30 11t-12 31zM80 0v722h60v-722h-60z" />
    <glyph glyph-name="Lcaron" unicode="&#x13d;" horiz-adv-x="544" 
d="M323 573h-47l38 186h71zM101 0v709h64v-651h358v-58h-422z" />
    <glyph glyph-name="lcaron" unicode="&#x13e;" horiz-adv-x="220" 
d="M227 546h-46l36 176h68zM80 0v722h60v-722h-60z" />
    <glyph glyph-name="Ldot" unicode="&#x13f;" horiz-adv-x="544" 
d="M101 0v709h64v-651h358v-58h-422zM299 373q0 22 15 37.5t37 15.5q23 0 38 -15.5t15 -37.5t-15 -37t-38 -15q-22 0 -37 15t-15 37z" />
    <glyph glyph-name="ldot" unicode="&#x140;" horiz-adv-x="277" 
d="M80 0v722h60v-722h-60zM197 325q0 20 13.5 33.5t33.5 13.5t33.5 -13.5t13.5 -33.5t-13.5 -33.5t-33.5 -13.5t-33.5 13.5t-13.5 33.5z" />
    <glyph glyph-name="Lslash" unicode="&#x141;" horiz-adv-x="555" 
d="M112 0v303l-99 -44v56l99 44v350h64v-322l162 72v-56l-162 -72v-273h358v-58h-422z" />
    <glyph glyph-name="lslash" unicode="&#x142;" horiz-adv-x="308" 
d="M114 0v294l-95 -41v56l95 41v372h60v-345l107 47v-56l-107 -47v-321h-60z" />
    <glyph glyph-name="Nacute" unicode="&#x143;" horiz-adv-x="763" 
d="M594 0l-429 630v-630h-64v709h88l409 -605v605h64v-709h-68zM390 759h-57l107 119h84z" />
    <glyph glyph-name="nacute" unicode="&#x144;" horiz-adv-x="537" 
d="M278 537h-49l89 139h78zM140 0h-60v477h58v-76q20 38 60 63t95 25q42 0 73.5 -14t53 -38t32 -56.5t10.5 -69.5v-311h-60v301q0 28 -7 52.5t-23 42.5t-40.5 28.5t-58.5 10.5q-31 0 -55.5 -12t-42 -32.5t-26.5 -48t-9 -57.5v-285z" />
    <glyph glyph-name="Ncommaaccent" unicode="&#x145;" horiz-adv-x="763" 
d="M346 -84q0 19 13.5 30.5t32.5 11.5q18 0 34.5 -13.5t16.5 -45.5q0 -26 -8.5 -45t-22.5 -32.5t-31.5 -21t-36.5 -8.5v30q26 2 43.5 18.5t19.5 39.5q-6 -6 -19 -6q-18 0 -30 11t-12 31zM594 0l-429 630v-630h-64v709h88l409 -605v605h64v-709h-68z" />
    <glyph glyph-name="ncommaaccent" unicode="&#x146;" horiz-adv-x="537" 
d="M230 -84q0 19 13.5 30.5t32.5 11.5q18 0 34.5 -13.5t16.5 -45.5q0 -26 -8.5 -45t-22.5 -32.5t-31.5 -21t-36.5 -8.5v30q26 2 43.5 18.5t19.5 39.5q-6 -6 -19 -6q-18 0 -30 11t-12 31zM140 0h-60v477h58v-76q20 38 60 63t95 25q42 0 73.5 -14t53 -38t32 -56.5t10.5 -69.5
v-311h-60v301q0 28 -7 52.5t-23 42.5t-40.5 28.5t-58.5 10.5q-31 0 -55.5 -12t-42 -32.5t-26.5 -48t-9 -57.5v-285z" />
    <glyph glyph-name="Ncaron" unicode="&#x147;" horiz-adv-x="763" 
d="M286 878l97 -84l98 84h59l-116 -119h-82l-115 119h59zM594 0l-429 630v-630h-64v709h88l409 -605v605h64v-709h-68z" />
    <glyph glyph-name="ncaron" unicode="&#x148;" horiz-adv-x="537" 
d="M171 675l92 -99l92 99h54l-110 -137h-72l-110 137h54zM140 0h-60v477h58v-76q20 38 60 63t95 25q42 0 73.5 -14t53 -38t32 -56.5t10.5 -69.5v-311h-60v301q0 28 -7 52.5t-23 42.5t-40.5 28.5t-58.5 10.5q-31 0 -55.5 -12t-42 -32.5t-26.5 -48t-9 -57.5v-285z" />
    <glyph glyph-name="napostrophe" unicode="&#x149;" horiz-adv-x="537" 
d="M82 649q0 19 13.5 30.5t32.5 11.5q18 0 34.5 -13.5t16.5 -45.5q0 -26 -8.5 -45t-22.5 -32.5t-31.5 -21t-36.5 -8.5v30q26 2 43.5 18.5t19.5 39.5q-6 -6 -19 -6q-18 0 -30 11t-12 31zM140 0h-60v477h58v-76q20 38 60 63t95 25q42 0 73.5 -14t53 -38t32 -56.5t10.5 -69.5
v-311h-60v301q0 28 -7 52.5t-23 42.5t-40.5 28.5t-58.5 10.5q-31 0 -55.5 -12t-42 -32.5t-26.5 -48t-9 -57.5v-285z" />
    <glyph glyph-name="Eng" unicode="&#x14a;" horiz-adv-x="763" 
d="M662 -78q0 -56 -30 -90.5t-83 -34.5q-22 0 -35.5 2.5t-20.5 5.5v52q8 -3 18.5 -4.5t21.5 -1.5q36 0 51 19t15 53v70l-434 637v-630h-64v709h88l409 -605v605h64v-787z" />
    <glyph glyph-name="eng" unicode="&#x14b;" horiz-adv-x="537" 
d="M140 0h-60v477h59v-80q19 41 59 67t95 26q42 0 74 -14t53 -38t31.5 -56.5t10.5 -69.5v-391q0 -55 -29 -89.5t-83 -34.5q-21 0 -34.5 2.5t-21.5 5.5v52q8 -3 19 -4.5t22 -1.5q35 0 51 19.5t16 53.5v378q0 28 -7.5 52.5t-23.5 42.5t-40 28.5t-58 10.5q-31 0 -55.5 -12.5
t-42 -33t-26.5 -47.5t-9 -57v-286z" />
    <glyph glyph-name="Omacron" unicode="&#x14c;" horiz-adv-x="797" 
d="M116 354q0 -76 23.5 -133.5t63 -96.5t90.5 -59t105 -20t105 20t90.5 59t63.5 96.5t24 133.5t-24 134t-63.5 97t-90.5 59t-105 20t-105 -20t-90.5 -59t-63 -97t-23.5 -134zM52 354q0 89 29.5 157.5t78 115.5t111 71t127.5 24t127.5 -24t111 -71t78.5 -115.5t30 -157.5
t-30 -157.5t-78.5 -115t-111 -70.5t-127.5 -24t-127.5 24t-111 70.5t-78 115t-29.5 157.5zM262 793v52h272v-52h-272z" />
    <glyph glyph-name="omacron" unicode="&#x14d;" horiz-adv-x="568" 
d="M154 583v50h254v-50h-254zM284 -13q-50 0 -93 18.5t-75 51.5t-50.5 79t-18.5 102t18 102.5t50 79.5t75.5 51t93.5 18t93 -18t75 -51t50.5 -79.5t18.5 -102.5t-18.5 -102t-50.5 -79t-75 -51.5t-93 -18.5zM108 238q0 -47 14.5 -83.5t38.5 -61.5t56 -38.5t67 -13.5t67 13.5
t56 38.5t38.5 61.5t14.5 83.5t-14.5 83.5t-38.5 62t-56 38.5t-67 13t-67 -13t-56 -38.5t-38.5 -62t-14.5 -83.5z" />
    <glyph glyph-name="Obreve" unicode="&#x14e;" horiz-adv-x="797" 
d="M399 754q-34 0 -60 10.5t-44.5 28.5t-28.5 40.5t-12 46.5h52q1 -14 7.5 -28t17.5 -25t28 -18t40 -7t39.5 7t28 18t17.5 25t7 28h52q-2 -24 -12 -46.5t-28 -40.5t-44 -28.5t-60 -10.5zM116 354q0 -76 23.5 -133.5t63 -96.5t90.5 -59t105 -20t105 20t90.5 59t63.5 96.5
t24 133.5t-24 134t-63.5 97t-90.5 59t-105 20t-105 -20t-90.5 -59t-63 -97t-23.5 -134zM52 354q0 89 29.5 157.5t78 115.5t111 71t127.5 24t127.5 -24t111 -71t78.5 -115.5t30 -157.5t-30 -157.5t-78.5 -115t-111 -70.5t-127.5 -24t-127.5 24t-111 70.5t-78 115t-29.5 157.5
z" />
    <glyph glyph-name="obreve" unicode="&#x14f;" horiz-adv-x="568" 
d="M284 -13q-50 0 -93 18.5t-75 51.5t-50.5 79t-18.5 102t18 102.5t50 79.5t75.5 51t93.5 18t93 -18t75 -51t50.5 -79.5t18.5 -102.5t-18.5 -102t-50.5 -79t-75 -51.5t-93 -18.5zM108 238q0 -47 14.5 -83.5t38.5 -61.5t56 -38.5t67 -13.5t67 13.5t56 38.5t38.5 61.5
t14.5 83.5t-14.5 83.5t-38.5 62t-56 38.5t-67 13t-67 -13t-56 -38.5t-38.5 -62t-14.5 -83.5zM280 538q-34 0 -60 12t-43.5 31.5t-27 44t-9.5 50.5h47q1 -16 6.5 -32t17 -28.5t28.5 -20.5t41 -8t41 8t28.5 20.5t17 28.5t6.5 32h47q0 -26 -9.5 -50.5t-27 -44t-43.5 -31.5
t-60 -12z" />
    <glyph glyph-name="Ohungarumlaut" unicode="&#x150;" horiz-adv-x="797" 
d="M474 759h-45l74 119h68zM359 759h-45l74 119h68zM116 354q0 -76 23.5 -133.5t63 -96.5t90.5 -59t105 -20t105 20t90.5 59t63.5 96.5t24 133.5t-24 134t-63.5 97t-90.5 59t-105 20t-105 -20t-90.5 -59t-63 -97t-23.5 -134zM52 354q0 89 29.5 157.5t78 115.5t111 71
t127.5 24t127.5 -24t111 -71t78.5 -115.5t30 -157.5t-30 -157.5t-78.5 -115t-111 -70.5t-127.5 -24t-127.5 24t-111 70.5t-78 115t-29.5 157.5z" />
    <glyph glyph-name="ohungarumlaut" unicode="&#x151;" horiz-adv-x="568" 
d="M284 -13q-50 0 -93 18.5t-75 51.5t-50.5 79t-18.5 102t18 102.5t50 79.5t75.5 51t93.5 18t93 -18t75 -51t50.5 -79.5t18.5 -102.5t-18.5 -102t-50.5 -79t-75 -51.5t-93 -18.5zM108 238q0 -47 14.5 -83.5t38.5 -61.5t56 -38.5t67 -13.5t67 13.5t56 38.5t38.5 61.5
t14.5 83.5t-14.5 83.5t-38.5 62t-56 38.5t-67 13t-67 -13t-56 -38.5t-38.5 -62t-14.5 -83.5zM353 537h-44l67 139h67zM247 537h-44l67 139h67z" />
    <glyph glyph-name="OE" unicode="&#x152;" horiz-adv-x="1155" 
d="M681 0v141q-24 -39 -56.5 -68t-69 -48t-77 -28.5t-80.5 -9.5q-65 0 -127.5 24t-111 70.5t-78 115t-29.5 157.5t29.5 157.5t78 115.5t111 71t127.5 24q40 0 80.5 -9.5t77 -29t69 -49t56.5 -68.5v143h418v-58h-354v-267h323v-58h-323v-268h354v-58h-418zM116 354
q0 -76 23.5 -133.5t63 -96.5t90.5 -59t105 -20t105 20t90.5 59t63.5 96.5t24 133.5t-24 134t-63.5 97t-90.5 59t-105 20t-105 -20t-90.5 -59t-63 -97t-23.5 -134z" />
    <glyph glyph-name="oe" unicode="&#x153;" horiz-adv-x="944" 
d="M897 135q-10 -30 -28.5 -57t-45 -47.5t-60.5 -32t-75 -11.5q-65 0 -119 31.5t-84 93.5q-30 -60 -84 -92.5t-120 -32.5q-49 0 -91.5 18.5t-74 51.5t-50 79t-18.5 102t18 102.5t49.5 79.5t74 51.5t92.5 18.5q66 0 120 -33.5t84 -93.5q29 61 80 94t112 33q53 0 94 -18
t69.5 -50t44 -76t15.5 -97v-11t-1 -11h-382v-4q0 -41 13.5 -74.5t37 -57.5t54.5 -37t66 -13q64 0 102.5 33t53.5 80zM281 41q35 0 67 13.5t56 38.5t38 61.5t14 83.5t-14 83.5t-38 62t-56 39t-67 13.5t-66.5 -13.5t-55.5 -39t-38 -62t-14 -83.5t14 -83.5t38 -61.5t55.5 -38.5
t66.5 -13.5zM837 277q-1 33 -12 62t-31 50.5t-49.5 34t-66.5 12.5q-33 0 -61.5 -12.5t-49.5 -34t-33.5 -50.5t-14.5 -62h318z" />
    <glyph glyph-name="Racute" unicode="&#x154;" horiz-adv-x="613" 
d="M313 759h-57l107 119h84zM313 307h-148v-307h-64v709h247q48 0 86.5 -15.5t66.5 -42.5t43 -64t15 -80q0 -39 -12.5 -72.5t-35.5 -59t-56 -42.5t-73 -22l176 -311h-74zM338 364q71 0 114 39t43 104q0 66 -43 105.5t-114 39.5h-173v-288h173z" />
    <glyph glyph-name="racute" unicode="&#x155;" horiz-adv-x="337" 
d="M199 537h-49l89 139h78zM323 415q-18 5 -42 5q-61 0 -101 -39.5t-40 -121.5v-259h-60v477h59v-89q22 50 60.5 72.5t86.5 22.5q24 0 37 -5v-63z" />
    <glyph glyph-name="Rcommaaccent" unicode="&#x156;" horiz-adv-x="613" 
d="M313 307h-148v-307h-64v709h247q48 0 86.5 -15.5t66.5 -42.5t43 -64t15 -80q0 -39 -12.5 -72.5t-35.5 -59t-56 -42.5t-73 -22l176 -311h-74zM338 364q71 0 114 39t43 104q0 66 -43 105.5t-114 39.5h-173v-288h173zM284 -84q0 19 13.5 30.5t32.5 11.5q18 0 34.5 -13.5
t16.5 -45.5q0 -26 -8.5 -45t-22.5 -32.5t-31.5 -21t-36.5 -8.5v30q26 2 43.5 18.5t19.5 39.5q-6 -6 -19 -6q-18 0 -30 11t-12 31z" />
    <glyph glyph-name="rcommaaccent" unicode="&#x157;" horiz-adv-x="337" 
d="M323 415q-18 5 -42 5q-61 0 -101 -39.5t-40 -121.5v-259h-60v477h59v-89q22 50 60.5 72.5t86.5 22.5q24 0 37 -5v-63zM62 -84q0 19 13.5 30.5t32.5 11.5q18 0 34.5 -13.5t16.5 -45.5q0 -26 -8.5 -45t-22.5 -32.5t-31.5 -21t-36.5 -8.5v30q26 2 43.5 18.5t19.5 39.5
q-6 -6 -19 -6q-18 0 -30 11t-12 31z" />
    <glyph glyph-name="Rcaron" unicode="&#x158;" horiz-adv-x="613" 
d="M204 878l97 -84l98 84h59l-116 -119h-82l-115 119h59zM313 307h-148v-307h-64v709h247q48 0 86.5 -15.5t66.5 -42.5t43 -64t15 -80q0 -39 -12.5 -72.5t-35.5 -59t-56 -42.5t-73 -22l176 -311h-74zM338 364q71 0 114 39t43 104q0 66 -43 105.5t-114 39.5h-173v-288h173z
" />
    <glyph glyph-name="rcaron" unicode="&#x159;" horiz-adv-x="337" 
d="M106 675l92 -99l92 99h54l-110 -137h-72l-110 137h54zM323 415q-18 5 -42 5q-61 0 -101 -39.5t-40 -121.5v-259h-60v477h59v-89q22 50 60.5 72.5t86.5 22.5q24 0 37 -5v-63z" />
    <glyph glyph-name="Sacute" unicode="&#x15a;" horiz-adv-x="582" 
d="M315 759h-57l107 119h84zM467 528q-6 27 -18.5 52t-33.5 44t-51 30.5t-70 11.5q-32 0 -61 -10t-51.5 -28.5t-36 -44.5t-13.5 -57q0 -48 29 -80t83 -45l108 -25q83 -20 130.5 -67.5t47.5 -122.5q0 -41 -16.5 -77t-47.5 -63t-74 -43t-97 -16q-59 0 -104 18t-77 47t-50.5 67
t-22.5 79l59 19q3 -35 17.5 -66t39.5 -55t59.5 -38t78.5 -14q41 0 73 10.5t54 29t33.5 43.5t11.5 54q0 50 -33 84.5t-94 48.5l-107 25q-36 8 -66 23.5t-51.5 38.5t-34 53t-12.5 68q0 41 18.5 77.5t49 63.5t71 43t84.5 16q54 0 94.5 -14.5t68 -38.5t44 -55.5t24.5 -65.5z" />
    <glyph glyph-name="sacute" unicode="&#x15b;" horiz-adv-x="439" 
d="M237 537h-49l89 139h78zM95 144q7 -44 39.5 -74.5t91.5 -30.5q45 0 75.5 23.5t30.5 61.5q0 33 -21.5 52t-59.5 28l-77 18q-53 12 -85 43.5t-32 83.5q0 29 13 54.5t35 44.5t51 30t62 11q42 0 72 -11t50.5 -29t32 -40t16.5 -43l-53 -20q-3 17 -11.5 33.5t-22.5 29t-35 20.5
t-49 8q-20 0 -38.5 -6t-32.5 -17t-22.5 -26.5t-8.5 -34.5q0 -59 75 -76l76 -17q60 -14 92 -47t32 -85q0 -27 -11 -52t-32 -45t-52 -32t-71 -12q-44 0 -77 12.5t-56 32.5t-36 44.5t-16 48.5z" />
    <glyph glyph-name="Scircumflex" unicode="&#x15c;" horiz-adv-x="582" 
d="M149 759l115 119h82l116 -119h-59l-98 84l-97 -84h-59zM467 528q-6 27 -18.5 52t-33.5 44t-51 30.5t-70 11.5q-32 0 -61 -10t-51.5 -28.5t-36 -44.5t-13.5 -57q0 -48 29 -80t83 -45l108 -25q83 -20 130.5 -67.5t47.5 -122.5q0 -41 -16.5 -77t-47.5 -63t-74 -43t-97 -16
q-59 0 -104 18t-77 47t-50.5 67t-22.5 79l59 19q3 -35 17.5 -66t39.5 -55t59.5 -38t78.5 -14q41 0 73 10.5t54 29t33.5 43.5t11.5 54q0 50 -33 84.5t-94 48.5l-107 25q-36 8 -66 23.5t-51.5 38.5t-34 53t-12.5 68q0 41 18.5 77.5t49 63.5t71 43t84.5 16q54 0 94.5 -14.5
t68 -38.5t44 -55.5t24.5 -65.5z" />
    <glyph glyph-name="scircumflex" unicode="&#x15d;" horiz-adv-x="439" 
d="M82 538l110 137h72l110 -137h-54l-92 99l-92 -99h-54zM95 144q7 -44 39.5 -74.5t91.5 -30.5q45 0 75.5 23.5t30.5 61.5q0 33 -21.5 52t-59.5 28l-77 18q-53 12 -85 43.5t-32 83.5q0 29 13 54.5t35 44.5t51 30t62 11q42 0 72 -11t50.5 -29t32 -40t16.5 -43l-53 -20
q-3 17 -11.5 33.5t-22.5 29t-35 20.5t-49 8q-20 0 -38.5 -6t-32.5 -17t-22.5 -26.5t-8.5 -34.5q0 -59 75 -76l76 -17q60 -14 92 -47t32 -85q0 -27 -11 -52t-32 -45t-52 -32t-71 -12q-44 0 -77 12.5t-56 32.5t-36 44.5t-16 48.5z" />
    <glyph glyph-name="Scedilla" unicode="&#x15e;" horiz-adv-x="582" 
d="M248 -66l34 53q-56 2 -99 20.5t-73 48t-47.5 66.5t-21.5 76l59 19q3 -35 17.5 -66t39.5 -55t59.5 -38t78.5 -14q41 0 73 10.5t54 29t33.5 43.5t11.5 54q0 50 -33 84.5t-94 48.5l-107 25q-36 8 -66 23.5t-51.5 38.5t-34 53t-12.5 68q0 41 18.5 77.5t49 63.5t71 43t84.5 16
q54 0 94.5 -14.5t68 -38.5t44 -55.5t24.5 -65.5l-56 -20q-6 27 -18.5 52t-33.5 44t-51 30.5t-70 11.5q-32 0 -61 -10t-51.5 -28.5t-36 -44.5t-13.5 -57q0 -48 29 -80t83 -45l108 -25q83 -20 130.5 -67.5t47.5 -122.5q0 -38 -14 -71.5t-40 -59.5t-62.5 -43.5t-82.5 -22.5
l-30 -45q11 4 24 4q40 0 64 -21t24 -55q0 -35 -27 -58.5t-81 -23.5q-35 0 -64 14t-44 33l27 32q11 -14 31.5 -26.5t48.5 -12.5q29 0 45.5 11t16.5 31q0 19 -14.5 30t-42.5 11q-9 0 -18.5 -1.5t-18.5 -6.5z" />
    <glyph glyph-name="scedilla" unicode="&#x15f;" horiz-adv-x="439" 
d="M169 -66l35 54q-39 3 -68 16.5t-49.5 33t-32 42.5t-14.5 45l55 19q7 -44 39.5 -74.5t91.5 -30.5q45 0 75.5 23.5t30.5 61.5q0 33 -21.5 52t-59.5 28l-77 18q-53 12 -85 43.5t-32 83.5q0 29 13 54.5t35 44.5t51 30t62 11q42 0 72 -11t50.5 -29t32 -40t16.5 -43l-53 -20
q-3 17 -11.5 33.5t-22.5 29t-35 20.5t-49 8q-20 0 -38.5 -6t-32.5 -17t-22.5 -26.5t-8.5 -34.5q0 -59 75 -76l76 -17q60 -14 92 -47t32 -85q0 -24 -9 -47.5t-27 -42.5t-44 -32t-59 -17l-30 -45q11 4 24 4q40 0 64 -21t24 -55q0 -35 -27 -58.5t-81 -23.5q-35 0 -64 14t-44 33
l27 32q11 -14 31.5 -26.5t48.5 -12.5q29 0 45.5 11t16.5 31q0 19 -14.5 30t-42.5 11q-9 0 -18.5 -1.5t-18.5 -6.5z" />
    <glyph glyph-name="Scaron" unicode="&#x160;" horiz-adv-x="582" 
d="M199 878l97 -84l98 84h59l-116 -119h-82l-115 119h59zM467 528q-6 27 -18.5 52t-33.5 44t-51 30.5t-70 11.5q-32 0 -61 -10t-51.5 -28.5t-36 -44.5t-13.5 -57q0 -48 29 -80t83 -45l108 -25q83 -20 130.5 -67.5t47.5 -122.5q0 -41 -16.5 -77t-47.5 -63t-74 -43t-97 -16
q-59 0 -104 18t-77 47t-50.5 67t-22.5 79l59 19q3 -35 17.5 -66t39.5 -55t59.5 -38t78.5 -14q41 0 73 10.5t54 29t33.5 43.5t11.5 54q0 50 -33 84.5t-94 48.5l-107 25q-36 8 -66 23.5t-51.5 38.5t-34 53t-12.5 68q0 41 18.5 77.5t49 63.5t71 43t84.5 16q54 0 94.5 -14.5
t68 -38.5t44 -55.5t24.5 -65.5z" />
    <glyph glyph-name="scaron" unicode="&#x161;" horiz-adv-x="439" 
d="M130 675l92 -99l92 99h54l-110 -137h-72l-110 137h54zM95 144q7 -44 39.5 -74.5t91.5 -30.5q45 0 75.5 23.5t30.5 61.5q0 33 -21.5 52t-59.5 28l-77 18q-53 12 -85 43.5t-32 83.5q0 29 13 54.5t35 44.5t51 30t62 11q42 0 72 -11t50.5 -29t32 -40t16.5 -43l-53 -20
q-3 17 -11.5 33.5t-22.5 29t-35 20.5t-49 8q-20 0 -38.5 -6t-32.5 -17t-22.5 -26.5t-8.5 -34.5q0 -59 75 -76l76 -17q60 -14 92 -47t32 -85q0 -27 -11 -52t-32 -45t-52 -32t-71 -12q-44 0 -77 12.5t-56 32.5t-36 44.5t-16 48.5z" />
    <glyph glyph-name="Tcommaaccent" unicode="&#x162;" horiz-adv-x="603" 
d="M333 651v-651h-7l-37 -56q11 4 24 4q40 0 64 -21t24 -55q0 -35 -27 -58.5t-81 -23.5q-35 0 -64 14t-44 33l27 32q11 -14 31.5 -26.5t48.5 -12.5q29 0 45.5 11t16.5 31q0 19 -14.5 30t-42.5 11q-9 0 -18.5 -1.5t-18.5 -6.5l-24 29l43 66h-10v651h-250v58h565v-58h-251z
" />
    <glyph glyph-name="tcommaaccent" unicode="&#x163;" horiz-adv-x="328" 
d="M170 -84q0 19 13.5 30.5t32.5 11.5q18 0 34.5 -13.5t16.5 -45.5q0 -26 -8.5 -45t-22.5 -32.5t-31.5 -21t-36.5 -8.5v30q26 2 43.5 18.5t19.5 39.5q-6 -6 -19 -6q-18 0 -30 11t-12 31zM177 477h124v-54h-124v-288q0 -86 81 -86q13 0 24.5 2.5t18.5 5.5v-53q-6 -3 -21.5 -6
t-37.5 -3q-58 0 -91.5 34t-33.5 100v294h-101v54h36q35 0 51 16.5t16 53.5v81h58v-151z" />
    <glyph glyph-name="Tcaron" unicode="&#x164;" horiz-adv-x="603" 
d="M203 878l97 -84l98 84h59l-116 -119h-82l-115 119h59zM333 651v-651h-64v651h-250v58h565v-58h-251z" />
    <glyph glyph-name="tcaron" unicode="&#x165;" horiz-adv-x="328" 
d="M264 546h-46l36 176h68zM177 477h124v-54h-124v-288q0 -86 81 -86q13 0 24.5 2.5t18.5 5.5v-53q-6 -3 -21.5 -6t-37.5 -3q-58 0 -91.5 34t-33.5 100v294h-101v54h36q35 0 51 16.5t16 53.5v81h58v-151z" />
    <glyph glyph-name="Tbar" unicode="&#x166;" horiz-adv-x="613" 
d="M338 651v-279h125v-54h-125v-318h-64v318h-125v54h125v279h-250v58h565v-58h-251z" />
    <glyph glyph-name="tbar" unicode="&#x167;" horiz-adv-x="340" 
d="M186 477h124v-54h-124v-145h124v-50h-124v-93q0 -86 81 -86q13 0 24.5 2.5t18.5 5.5v-53q-6 -3 -21.5 -6t-37.5 -3q-58 0 -91.5 34t-33.5 100v99h-101v50h101v145h-101v54h36q35 0 51 16.5t16 53.5v81h58v-151z" />
    <glyph glyph-name="Utilde" unicode="&#x168;" horiz-adv-x="672" 
d="M492 860q0 -48 -25 -72.5t-59 -24.5q-20 0 -36 6.5t-30 16.5l-21 15q-12 8 -24 14t-26 6q-39 0 -39 -55h-47v12q0 46 25 70.5t61 24.5q21 0 39 -8t33 -19l18 -13q11 -8 21.5 -13t23.5 -5q39 0 39 56h47v-11zM336 -13q-54 0 -98.5 16t-77 47.5t-50 78t-17.5 107.5v473h64
v-470q0 -94 45.5 -144t133.5 -50t133.5 50t45.5 144v470h64v-473q0 -60 -17.5 -106.5t-49.5 -78t-77 -48t-99 -16.5z" />
    <glyph glyph-name="utilde" unicode="&#x169;" horiz-adv-x="539" 
d="M402 74q-17 -35 -55 -61t-95 -26q-45 0 -78.5 15.5t-55.5 42t-33 60.5t-11 72v300h60v-290q0 -29 7 -55t22.5 -46.5t40 -32.5t59.5 -12q32 0 57 11.5t42.5 31t26.5 46t9 56.5v291h60v-386q0 -27 2 -51t4 -40h-57q-2 8 -3.5 26t-1.5 41v7zM418 648q0 -48 -24.5 -72.5
t-58.5 -24.5q-20 0 -35.5 6.5t-29.5 16.5l-21 15q-12 8 -23.5 14t-25.5 6q-38 0 -38 -55h-47v12q0 46 24.5 70.5t60.5 24.5q21 0 38.5 -8t32.5 -19l18 -13q11 -8 21 -13t23 -5q38 0 38 56h47v-11z" />
    <glyph glyph-name="Umacron" unicode="&#x16a;" horiz-adv-x="672" 
d="M336 -13q-54 0 -98.5 16t-77 47.5t-50 78t-17.5 107.5v473h64v-470q0 -94 45.5 -144t133.5 -50t133.5 50t45.5 144v470h64v-473q0 -60 -17.5 -106.5t-49.5 -78t-77 -48t-99 -16.5zM201 793v52h272v-52h-272z" />
    <glyph glyph-name="umacron" unicode="&#x16b;" horiz-adv-x="539" 
d="M139 583v50h254v-50h-254zM402 74q-17 -35 -55 -61t-95 -26q-45 0 -78.5 15.5t-55.5 42t-33 60.5t-11 72v300h60v-290q0 -29 7 -55t22.5 -46.5t40 -32.5t59.5 -12q32 0 57 11.5t42.5 31t26.5 46t9 56.5v291h60v-386q0 -27 2 -51t4 -40h-57q-2 8 -3.5 26t-1.5 41v7z" />
    <glyph glyph-name="Ubreve" unicode="&#x16c;" horiz-adv-x="672" 
d="M338 754q-34 0 -60 10.5t-44.5 28.5t-28.5 40.5t-12 46.5h52q1 -14 7.5 -28t17.5 -25t28 -18t40 -7t39.5 7t28 18t17.5 25t7 28h52q-2 -24 -12 -46.5t-28 -40.5t-44 -28.5t-60 -10.5zM336 -13q-54 0 -98.5 16t-77 47.5t-50 78t-17.5 107.5v473h64v-470q0 -94 45.5 -144
t133.5 -50t133.5 50t45.5 144v470h64v-473q0 -60 -17.5 -106.5t-49.5 -78t-77 -48t-99 -16.5z" />
    <glyph glyph-name="ubreve" unicode="&#x16d;" horiz-adv-x="539" 
d="M402 74q-17 -35 -55 -61t-95 -26q-45 0 -78.5 15.5t-55.5 42t-33 60.5t-11 72v300h60v-290q0 -29 7 -55t22.5 -46.5t40 -32.5t59.5 -12q32 0 57 11.5t42.5 31t26.5 46t9 56.5v291h60v-386q0 -27 2 -51t4 -40h-57q-2 8 -3.5 26t-1.5 41v7zM264 538q-34 0 -60 12
t-43.5 31.5t-27 44t-9.5 50.5h47q1 -16 6.5 -32t17 -28.5t28.5 -20.5t41 -8t41 8t28.5 20.5t17 28.5t6.5 32h47q0 -26 -9.5 -50.5t-27 -44t-43.5 -31.5t-60 -12z" />
    <glyph glyph-name="Uring" unicode="&#x16e;" horiz-adv-x="672" 
d="M336 -13q-54 0 -98.5 16t-77 47.5t-50 78t-17.5 107.5v473h64v-470q0 -94 45.5 -144t133.5 -50t133.5 50t45.5 144v470h64v-473q0 -60 -17.5 -106.5t-49.5 -78t-77 -48t-99 -16.5zM337 788q24 0 40 16.5t16 40.5q0 25 -16 42t-40 17t-40 -17t-16 -42q0 -24 16 -40.5
t40 -16.5zM337 745q-21 0 -39 7.5t-32 21t-22 32t-8 39.5t8 40t22 32.5t32 21.5t39 8t39 -8t32 -21.5t22 -32.5t8 -40t-8 -39.5t-22 -32t-32 -21t-39 -7.5z" />
    <glyph glyph-name="uring" unicode="&#x16f;" horiz-adv-x="539" 
d="M368 635q0 -22 -8.5 -41t-22.5 -33.5t-33 -22.5t-41 -8q-21 0 -40.5 8t-33.5 22.5t-22.5 33.5t-8.5 41t8.5 41t22.5 33t33.5 22.5t40.5 8.5q22 0 41 -8.5t33 -22.5t22.5 -33t8.5 -41zM324 635q0 26 -17.5 44.5t-43.5 18.5t-43.5 -18.5t-17.5 -44.5t17.5 -44.5t43.5 -18.5
t43.5 18.5t17.5 44.5zM402 74q-17 -35 -55 -61t-95 -26q-45 0 -78.5 15.5t-55.5 42t-33 60.5t-11 72v300h60v-290q0 -29 7 -55t22.5 -46.5t40 -32.5t59.5 -12q32 0 57 11.5t42.5 31t26.5 46t9 56.5v291h60v-386q0 -27 2 -51t4 -40h-57q-2 8 -3.5 26t-1.5 41v7z" />
    <glyph glyph-name="Uhungarumlaut" unicode="&#x170;" horiz-adv-x="672" 
d="M400 759h-45l74 119h68zM285 759h-45l74 119h68zM336 -13q-54 0 -98.5 16t-77 47.5t-50 78t-17.5 107.5v473h64v-470q0 -94 45.5 -144t133.5 -50t133.5 50t45.5 144v470h64v-473q0 -60 -17.5 -106.5t-49.5 -78t-77 -48t-99 -16.5z" />
    <glyph glyph-name="uhungarumlaut" unicode="&#x171;" horiz-adv-x="539" 
d="M402 74q-17 -35 -55 -61t-95 -26q-45 0 -78.5 15.5t-55.5 42t-33 60.5t-11 72v300h60v-290q0 -29 7 -55t22.5 -46.5t40 -32.5t59.5 -12q32 0 57 11.5t42.5 31t26.5 46t9 56.5v291h60v-386q0 -27 2 -51t4 -40h-57q-2 8 -3.5 26t-1.5 41v7zM324 537h-44l67 139h67zM218 537
h-44l67 139h67z" />
    <glyph glyph-name="Uogonek" unicode="&#x172;" horiz-adv-x="672" 
d="M279 -117q0 35 16 60.5t39 43.5q-54 0 -98 16.5t-76 48t-49.5 78t-17.5 106.5v473h64v-470q0 -94 45.5 -144t133.5 -50t133.5 50t45.5 144v470h64v-473q0 -100 -46 -161t-125 -79q-5 -1 -9 -3.5t-7 -4.5q-24 -17 -43 -39.5t-19 -54.5q0 -29 18.5 -43t44.5 -14q19 0 34 5
v-44q-9 -4 -19.5 -6t-25.5 -2q-43 0 -73 24t-30 69z" />
    <glyph glyph-name="uogonek" unicode="&#x173;" horiz-adv-x="539" 
d="M330 -117q0 43 23.5 72t52.5 47q-2 8 -3 26t-1 39v7q-17 -35 -55 -61t-95 -26q-45 0 -78.5 15.5t-55.5 42t-33 60.5t-11 72v300h60v-290q0 -29 7 -55t22.5 -46.5t40 -32.5t59.5 -12q32 0 57 11.5t42.5 31t26.5 46t9 56.5v291h60v-386q0 -27 2 -51t4 -40
q-14 -7 -28.5 -17.5t-26.5 -24t-20 -29.5t-8 -35q0 -29 18.5 -43t44.5 -14q19 0 34 5v-44q-9 -4 -19.5 -6t-25.5 -2q-43 0 -73 24t-30 69z" />
    <glyph glyph-name="Wcircumflex" unicode="&#x174;" horiz-adv-x="990" 
d="M338 759l115 119h82l116 -119h-59l-98 84l-97 -84h-59zM900 709h65l-204 -709h-69l-198 626l-198 -626h-66l-207 709h66l175 -620l196 620h69l197 -620z" />
    <glyph glyph-name="wcircumflex" unicode="&#x175;" horiz-adv-x="795" 
d="M252 538l110 137h72l110 -137h-54l-92 99l-92 -99h-54zM431 477l142 -403l125 403h65l-156 -477h-67l-142 404l-142 -404h-67l-158 477h66l127 -403l142 403h65z" />
    <glyph glyph-name="Ycircumflex" unicode="&#x176;" horiz-adv-x="616" 
d="M29 709h75l204 -347l205 347h74l-248 -406v-303h-62v303zM152 759l115 119h82l116 -119h-59l-98 84l-97 -84h-59z" />
    <glyph glyph-name="ycircumflex" unicode="&#x177;" horiz-adv-x="501" 
d="M106 538l110 137h72l110 -137h-54l-92 99l-92 -99h-54zM109 -190l119 252l-203 415h67l167 -352l158 352h66l-309 -667h-65z" />
    <glyph glyph-name="Ydieresis" unicode="&#x178;" horiz-adv-x="616" 
d="M29 709h75l204 -347l205 347h74l-248 -406v-303h-62v303zM163 819q0 18 12.5 30.5t30.5 12.5t30.5 -12.5t12.5 -30.5t-12.5 -30.5t-30.5 -12.5t-30.5 12.5t-12.5 30.5zM367 819q0 18 12.5 30.5t30.5 12.5t30.5 -12.5t12.5 -30.5t-12.5 -30.5t-30.5 -12.5t-30.5 12.5
t-12.5 30.5z" />
    <glyph glyph-name="Zacute" unicode="&#x179;" horiz-adv-x="624" 
d="M316 759h-57l107 119h84zM40 0v65l466 586h-460v58h534v-63l-467 -588h470v-58h-543z" />
    <glyph glyph-name="zacute" unicode="&#x17a;" horiz-adv-x="464" 
d="M234 537h-49l89 139h78zM43 0v53l302 370h-299v54h371v-53l-300 -370h305v-54h-379z" />
    <glyph glyph-name="Zdotaccent" unicode="&#x17b;" horiz-adv-x="624" 
d="M40 0v65l466 586h-460v58h534v-63l-467 -588h470v-58h-543zM268 818q0 20 13.5 33.5t33.5 13.5t33.5 -13.5t13.5 -33.5t-13.5 -33.5t-33.5 -13.5t-33.5 13.5t-13.5 33.5z" />
    <glyph glyph-name="zdotaccent" unicode="&#x17c;" horiz-adv-x="464" 
d="M43 0v53l302 370h-299v54h371v-53l-300 -370h305v-54h-379zM181 607q0 20 13.5 33.5t33.5 13.5t33.5 -13.5t13.5 -33.5t-13.5 -33.5t-33.5 -13.5t-33.5 13.5t-13.5 33.5z" />
    <glyph glyph-name="Zcaron" unicode="&#x17d;" horiz-adv-x="624" 
d="M220 878l97 -84l98 84h59l-116 -119h-82l-115 119h59zM40 0v65l466 586h-460v58h534v-63l-467 -588h470v-58h-543z" />
    <glyph glyph-name="zcaron" unicode="&#x17e;" horiz-adv-x="464" 
d="M137 675l92 -99l92 99h54l-110 -137h-72l-110 137h54zM43 0v53l302 370h-299v54h371v-53l-300 -370h305v-54h-379z" />
    <glyph glyph-name="uni018F" unicode="&#x18f;" horiz-adv-x="784" 
d="M384 664q-47 0 -90 -14t-78.5 -39t-62 -60t-39.5 -78l-57 20q16 51 48 93t75 72t95 47t109 17q65 0 127.5 -24t111.5 -71t79 -115.5t30 -157.5t-30 -157.5t-78.5 -115t-111 -70.5t-127.5 -24t-127 24t-110 70.5t-77.5 115t-29.5 157.5v7h627q-1 74 -25.5 130.5t-64 95
t-90 58t-104.5 19.5zM385 45q49 0 96 16.5t85 49t64 81t34 111.5h-556q7 -63 33 -111.5t63.5 -81t84 -49t96.5 -16.5z" />
    <glyph glyph-name="florin" unicode="&#x192;" horiz-adv-x="5120" 
d="M2128 382q111 -27 159.5 -72.5t48.5 -121.5q0 -45 -16.5 -81t-47 -62t-73.5 -40t-96 -14q-75 0 -143 26t-125 77q-3 3 -3 5q0 4 2 6l67 80q3 3 5 3q4 0 6 -2q49 -43 94.5 -62t99.5 -19q48 0 76 19.5t28 53.5q0 15 -5 27t-19.5 22.5t-41.5 20t-71 20.5q-51 12 -91 27
t-68 37.5t-42.5 54.5t-14.5 77q0 42 16.5 77.5t46 61t70.5 39.5t91 14q135 0 234 -81q3 -3 3 -6q0 -1 -2 -5l-59 -84q-2 -4 -7 -4q-3 0 -5 2q-85 64 -166 64q-43 0 -69 -18.5t-26 -49.5q0 -16 5.5 -28t21 -22.5t43.5 -20.5t74 -21zM2657 502q43 0 84 -16.5t73 -48.5t52 -80
t20 -111t-20 -110.5t-52 -80t-73 -48.5t-84 -16q-93 0 -153 69v-195q0 -9 -9 -9h-108q-9 0 -9 9v619q0 8 9 8h108q9 0 9 -8v-56q62 74 153 74zM2760 246q0 31 -9.5 58t-26.5 46t-40.5 30t-51.5 11t-52 -11t-41.5 -30.5t-27.5 -46t-10 -57.5t10 -57.5t27.5 -46t41.5 -30.5
t52 -11q57 0 92.5 40t35.5 105zM3183 502q55 0 102.5 -20t82.5 -54.5t55.5 -81t20.5 -100.5t-20.5 -101t-56 -81.5t-83.5 -54t-103 -19.5t-102.5 19.5t-82.5 54t-55 80.5t-20 100t20.5 101t55.5 82t83 55t103 20zM3183 100q29 0 54 11t43 30t28 45.5t10 57.5t-10.5 58
t-29 46.5t-43.5 30.5t-54 11q-30 0 -55 -10.5t-43 -30t-28 -46t-10 -57.5t10.5 -58t29 -46.5t43.5 -30.5t55 -11zM3757 492q8 0 8 -8v-94q0 -8 -8 -8h-120v-225q0 -52 51 -52q20 0 34.5 5t19.5 7q4 2 7.5 3.5t5.5 1.5q8 0 8 -9v-87q0 -2 -0.5 -4.5t-5.5 -4.5
q-20 -11 -43 -18t-57 -7q-145 0 -145 148v242h-53q-7 0 -7 8v94q0 8 7 8h53v123q0 7 8 7h109q8 0 8 -7v-123h120zM4294 559q-2 0 -6.5 2t-14.5 4q-13 3 -22 4.5t-21 1.5q-55 0 -55 -65v-14h186q6 0 8 -4l127 -334l116 333q2 5 7 5h114q2 0 5 -2t3 -6q0 -3 -2 -7l-188 -485
q-15 -38 -31 -64.5t-35.5 -43t-43.5 -24t-54 -7.5q-32 0 -59 7t-57 22q-4 2 -4 6q0 3 1 5l36 82q2 5 7 5q1 0 2 -0.5t2 -0.5q18 -9 32 -13.5t28 -4.5q18 0 31.5 9t27.5 39l-155 373h-102v-373q0 -9 -9 -9h-108q-9 0 -9 9v373h-52q-7 0 -7 8v95q0 7 7 7h52v24
q0 80 39.5 121.5t115.5 41.5q52 0 90 -12q6 -2 6 -8v-92q0 -2 -2 -5t-6 -3zM3933 492q7 0 7 -8v-475q0 -9 -7 -9h-110q-7 0 -7 9v475q0 8 7 8h110zM3878 708q32 0 55.5 -22.5t23.5 -54.5q0 -33 -23.5 -56t-55.5 -23t-54.5 23t-22.5 56q0 32 22.5 54.5t54.5 22.5zM4833 338
q-32 0 -54 22.5t-22 54.5t22 54.5t54 22.5t54.5 -22t22.5 -54t-22.5 -55t-54.5 -23zM4833 484q-29 0 -48.5 -20t-19.5 -49t19.5 -49.5t48.5 -20.5q30 0 50 21t20 50q0 28 -20 48t-50 20zM4873 377h-19l-20 27h-16v-27h-15v81h35q14 0 23 -7t9 -20q0 -10 -5.5 -15.5
t-13.5 -8.5zM4818 444v-26h20q16 0 16 12q0 14 -16 14h-20zM1200 -6q17 0 30.5 13t13.5 32q0 24 -21 37q-79 49 -182 80t-239 31q-123 0 -263 -32q-15 -4 -24.5 -15.5t-9.5 -26.5q0 -17 11.5 -30.5t31.5 -13.5q7 0 20 3t21 5q66 14 121.5 18.5t93.5 4.5q107 0 199.5 -25
t173.5 -74q12 -7 23 -7zM1277 181q22 0 38.5 16.5t16.5 39.5q0 14 -6.5 26.5t-19.5 20.5q-107 66 -240 99.5t-270 33.5q-73 0 -144 -10t-138 -30q-18 -5 -28.5 -20t-10.5 -33q0 -22 14 -38t38 -16q9 0 14 1t10.5 2.5t13.5 4t22 5.5q58 14 112.5 19t94.5 5q123 0 241.5 -30
t212.5 -88q14 -8 29 -8zM1332 408q15 -9 33 -9q28 0 47.5 19t19.5 47q0 17 -8.5 32t-24.5 24q-125 72 -277 105.5t-316 33.5q-92 0 -176.5 -11.5t-154.5 -32.5q-22 -7 -34.5 -24.5t-12.5 -38.5q0 -26 18 -46.5t47 -20.5q10 0 19 3q63 19 139 29t161 10q68 0 138 -7
t137 -21.5t129.5 -37.5t115.5 -54zM210 327q0 97 25.5 187.5t71.5 169t110.5 143t143 110.5t168.5 71t187 25t187 -25t168.5 -71t143 -110.5t110.5 -143t71 -169t25 -187.5q0 -98 -25 -188t-71 -168t-110.5 -142.5t-143 -110.5t-168.5 -71t-187 -25t-187 25t-168.5 71
t-143 110.5t-110.5 142.5t-71.5 168.5t-25.5 187.5z" />
    <glyph glyph-name="uni01B5" unicode="&#x1b5;" horiz-adv-x="632" 
d="M44 0v65l218 274h-164v54h207l205 258h-460v58h534v-63l-201 -253h155v-54h-198l-223 -281h470v-58h-543z" />
    <glyph glyph-name="uni01B6" unicode="&#x1b6;" horiz-adv-x="475" 
d="M50 0v53l140 172h-133v50h174l121 148h-299v54h371v-53l-121 -149h106v-50h-147l-138 -171h305v-54h-379z" />
    <glyph glyph-name="Aringacute" unicode="&#x1fa;" horiz-adv-x="694" 
d="M200 277h293l-147 369zM402 767q0 25 -16 41.5t-41 16.5q-23 0 -39 -16.5t-16 -41.5t16 -41t39 -16q25 0 41 16t16 41zM447 767q0 -29 -14 -51.5t-37 -34.5l276 -681h-68l-88 219h-339l-87 -219h-68l276 680q-23 13 -37.5 35.5t-14.5 51.5q0 21 8 39.5t21.5 32t31.5 21.5
t39 8t39 -8t32 -21.5t22 -32t8 -39.5zM377 902h-57l107 119h84z" />
    <glyph glyph-name="aringacute" unicode="&#x1fb;" horiz-adv-x="500" 
d="M201 -12q-38 0 -67 11.5t-48.5 30t-30 43t-10.5 50.5q0 61 38.5 96t104.5 45l127 19q31 5 40.5 17t9.5 29q0 48 -30.5 78t-89.5 30q-57 0 -92.5 -29.5t-41.5 -81.5l-56 12q4 34 20 62t40.5 47.5t57.5 30.5t71 11q46 0 80.5 -13t56.5 -35.5t33 -53t11 -64.5v-241
q0 -29 2 -48t5 -34h-59q-2 8 -4 30.5t-2 51.5q-8 -17 -23 -33.5t-36 -30t-47.5 -22t-59.5 -8.5zM208 39q34 0 63 11t50 31t32.5 49t11.5 65v54q-2 -2 -11.5 -6t-23.5 -6l-133 -20q-42 -6 -66.5 -29t-24.5 -62q0 -33 26 -60t76 -27zM270 779h-49l89 139h78zM350 633
q0 -22 -8.5 -41t-22.5 -33.5t-33 -22.5t-41 -8q-21 0 -40.5 8t-33.5 22.5t-22.5 33.5t-8.5 41t8.5 41t22.5 33t33.5 22.5t40.5 8.5q22 0 41 -8.5t33 -22.5t22.5 -33t8.5 -41zM306 633q0 26 -17.5 44.5t-43.5 18.5t-43.5 -18.5t-17.5 -44.5t17.5 -44.5t43.5 -18.5t43.5 18.5
t17.5 44.5z" />
    <glyph glyph-name="AEacute" unicode="&#x1fc;" horiz-adv-x="979" 
d="M561 759h-57l107 119h84zM505 0v219h-283l-143 -219h-79l472 709h451v-58h-354v-267h323v-58h-323v-268h354v-58h-418zM260 277h245v375z" />
    <glyph glyph-name="aeacute" unicode="&#x1fd;" horiz-adv-x="853" 
d="M440 537h-49l89 139h78zM209 38q34 0 63 11t50 31t32.5 49.5t11.5 65.5v58q-3 -3 -10 -6t-16 -6t-19 -5t-18 -3l-107 -16q-42 -6 -65.5 -29t-23.5 -62q0 -34 26 -61t76 -27zM746 277q-1 33 -12 62t-31 50.5t-49.5 34t-66.5 12.5q-33 0 -61.5 -12.5t-49.5 -34t-33.5 -50.5
t-14.5 -62h318zM202 -13q-38 0 -67 11.5t-49 30.5t-30.5 43.5t-10.5 50.5q0 61 39 95.5t105 45.5l127 19q29 5 39.5 17.5t10.5 29.5q0 48 -31 78t-89 30q-57 0 -92.5 -30t-40.5 -82l-58 13q4 34 20 62t41 48t58 30.5t71 10.5q66 0 107.5 -25.5t59.5 -67.5q30 45 75.5 69
t98.5 24t94 -18t69.5 -50t44 -76t15.5 -97v-11t-1 -11h-382v-12q1 -40 15 -72t37.5 -54.5t53.5 -35t65 -12.5q64 0 102.5 33t53.5 80l53 -19q-10 -30 -28.5 -57t-45 -47.5t-60.5 -32t-75 -11.5q-65 0 -118.5 31.5t-83.5 91.5q-10 -24 -26.5 -46.5t-40.5 -39.5t-55 -27
t-71 -10z" />
    <glyph glyph-name="Oslashacute" unicode="&#x1fe;" horiz-adv-x="798" 
d="M52 354q0 89 29.5 157.5t78 115.5t111 71t127.5 24q55 0 108.5 -17.5t98.5 -51.5l74 96l43 -32l-77 -99q45 -47 72.5 -113t27.5 -151q0 -89 -30 -157.5t-78.5 -115t-111 -70.5t-127.5 -24q-52 0 -102 15.5t-94 44.5l-70 -90l-43 32l71 92q-49 47 -78.5 115t-29.5 158z
M116 354q0 -74 22 -130t59 -95l372 478q-37 29 -81 43t-90 14q-54 0 -105 -20t-90.5 -59t-63 -97t-23.5 -134zM681 354q0 69 -20 123t-54 93l-369 -476q35 -25 76 -37t84 -12q54 0 105 20t90.5 59t63.5 96.5t24 133.5zM419 759h-57l107 119h84z" />
    <glyph glyph-name="oslashacute" unicode="&#x1ff;" 
d="M282 490q77 0 135 -43l55 71l39 -31l-57 -73q29 -33 46 -77.5t17 -98.5q0 -56 -18 -102t-50 -79t-75 -51.5t-92 -18.5q-37 0 -70 10t-61 29l-52 -67l-38 31l53 68q-31 33 -48.5 78.5t-17.5 101.5t18 102.5t49.5 79.5t74 51.5t92.5 18.5zM108 238q0 -42 11 -75.5t31 -58.5
l233 299q-44 33 -101 33q-35 0 -66.5 -13.5t-55.5 -39t-38 -62t-14 -83.5zM282 41q35 0 67 13.5t56 38.5t38 61.5t14 83.5q0 40 -10.5 72.5t-28.5 57.5l-232 -298q43 -29 96 -29zM298 537h-49l89 139h78z" />
    <glyph glyph-name="Scommaaccent" unicode="&#x218;" horiz-adv-x="582" 
d="M467 528q-6 27 -18.5 52t-33.5 44t-51 30.5t-70 11.5q-32 0 -61 -10t-51.5 -28.5t-36 -44.5t-13.5 -57q0 -48 29 -80t83 -45l108 -25q83 -20 130.5 -67.5t47.5 -122.5q0 -41 -16.5 -77t-47.5 -63t-74 -43t-97 -16q-59 0 -104 18t-77 47t-50.5 67t-22.5 79l59 19
q3 -35 17.5 -66t39.5 -55t59.5 -38t78.5 -14q41 0 73 10.5t54 29t33.5 43.5t11.5 54q0 50 -33 84.5t-94 48.5l-107 25q-36 8 -66 23.5t-51.5 38.5t-34 53t-12.5 68q0 41 18.5 77.5t49 63.5t71 43t84.5 16q54 0 94.5 -14.5t68 -38.5t44 -55.5t24.5 -65.5zM253 -84
q0 19 13.5 30.5t32.5 11.5q18 0 34.5 -13.5t16.5 -45.5q0 -26 -8.5 -45t-22.5 -32.5t-31.5 -21t-36.5 -8.5v30q26 2 43.5 18.5t19.5 39.5q-6 -6 -19 -6q-18 0 -30 11t-12 31z" />
    <glyph glyph-name="scommaaccent" unicode="&#x219;" horiz-adv-x="439" 
d="M95 144q7 -44 39.5 -74.5t91.5 -30.5q45 0 75.5 23.5t30.5 61.5q0 33 -21.5 52t-59.5 28l-77 18q-53 12 -85 43.5t-32 83.5q0 29 13 54.5t35 44.5t51 30t62 11q42 0 72 -11t50.5 -29t32 -40t16.5 -43l-53 -20q-3 17 -11.5 33.5t-22.5 29t-35 20.5t-49 8q-20 0 -38.5 -6
t-32.5 -17t-22.5 -26.5t-8.5 -34.5q0 -59 75 -76l76 -17q60 -14 92 -47t32 -85q0 -27 -11 -52t-32 -45t-52 -32t-71 -12q-44 0 -77 12.5t-56 32.5t-36 44.5t-16 48.5zM177 -84q0 19 13.5 30.5t32.5 11.5q18 0 34.5 -13.5t16.5 -45.5q0 -26 -8.5 -45t-22.5 -32.5t-31.5 -21
t-36.5 -8.5v30q26 2 43.5 18.5t19.5 39.5q-6 -6 -19 -6q-18 0 -30 11t-12 31z" />
    <glyph glyph-name="uni021A" unicode="&#x21a;" horiz-adv-x="603" 
d="M254 -84q0 19 13.5 30.5t32.5 11.5q18 0 34.5 -13.5t16.5 -45.5q0 -26 -8.5 -45t-22.5 -32.5t-31.5 -21t-36.5 -8.5v30q26 2 43.5 18.5t19.5 39.5q-6 -6 -19 -6q-18 0 -30 11t-12 31zM333 651v-651h-64v651h-250v58h565v-58h-251z" />
    <glyph glyph-name="uni021B" unicode="&#x21b;" horiz-adv-x="328" 
d="M177 477h124v-54h-124v-288q0 -86 81 -86q13 0 24.5 2.5t18.5 5.5v-53q-6 -3 -19.5 -5.5t-33.5 -3.5l-34 -51q11 4 24 4q40 0 64 -21t24 -55q0 -35 -27 -58.5t-81 -23.5q-35 0 -64 14t-44 33l27 32q11 -14 31.5 -26.5t48.5 -12.5q29 0 45.5 11t16.5 31q0 19 -14.5 30
t-42.5 11q-9 0 -18.5 -1.5t-18.5 -6.5l-24 29l42 66q-41 10 -63.5 42.5t-22.5 86.5v294h-101v54h36q35 0 51 16.5t16 53.5v81h58v-151z" />
    <glyph glyph-name="dotlessj" unicode="&#x237;" horiz-adv-x="220" 
d="M80 477h60v-542q0 -66 -34.5 -102t-91.5 -36q-20 0 -32.5 2.5t-20.5 6.5v51q16 -6 41 -6q78 0 78 86v540z" />
    <glyph glyph-name="uni0259" unicode="&#x259;" horiz-adv-x="535" 
d="M107 200q1 -33 11.5 -62t31 -50.5t49.5 -34t67 -12.5q33 0 61.5 12.5t49.5 34t33.5 50.5t14.5 62h-318zM47 342q10 30 28.5 57t45 47.5t60.5 32t75 11.5q47 0 89.5 -17t74 -49.5t50 -79.5t18.5 -107q0 -56 -18 -102t-48 -79t-70 -51t-85 -18q-53 0 -94.5 18t-70 50
t-43.5 76t-15 97v11t1 11h382v4q0 41 -13.5 74.5t-37 57.5t-54.5 37t-66 13q-65 0 -103 -33t-53 -80z" />
    <glyph glyph-name="circumflex" unicode="&#x2c6;" horiz-adv-x="382" 
d="M45 538l110 137h72l110 -137h-54l-92 99l-92 -99h-54z" />
    <glyph glyph-name="caron" unicode="&#x2c7;" horiz-adv-x="374" 
d="M95 675l92 -99l92 99h54l-110 -137h-72l-110 137h54z" />
    <glyph glyph-name="uni02C9" unicode="&#x2c9;" horiz-adv-x="344" 
d="M45 583v50h254v-50h-254z" />
    <glyph glyph-name="breve" unicode="&#x2d8;" horiz-adv-x="370" 
d="M185 538q-34 0 -60 12t-43.5 31.5t-27 44t-9.5 50.5h47q1 -16 6.5 -32t17 -28.5t28.5 -20.5t41 -8t41 8t28.5 20.5t17 28.5t6.5 32h47q0 -26 -9.5 -50.5t-27 -44t-43.5 -31.5t-60 -12z" />
    <glyph glyph-name="dotaccent" unicode="&#x2d9;" horiz-adv-x="168" 
d="M37 607q0 20 13.5 33.5t33.5 13.5t33.5 -13.5t13.5 -33.5t-13.5 -33.5t-33.5 -13.5t-33.5 13.5t-13.5 33.5z" />
    <glyph glyph-name="ring" unicode="&#x2da;" horiz-adv-x="300" 
d="M255 635q0 -22 -8.5 -41t-22.5 -33.5t-33 -22.5t-41 -8q-21 0 -40.5 8t-33.5 22.5t-22.5 33.5t-8.5 41t8.5 41t22.5 33t33.5 22.5t40.5 8.5q22 0 41 -8.5t33 -22.5t22.5 -33t8.5 -41zM211 635q0 26 -17.5 44.5t-43.5 18.5t-43.5 -18.5t-17.5 -44.5t17.5 -44.5t43.5 -18.5
t43.5 18.5t17.5 44.5z" />
    <glyph glyph-name="ogonek" unicode="&#x2db;" horiz-adv-x="230" 
d="M41 -117q0 24 8.5 44t22 36t30 28t32.5 21l41 -12q-14 -7 -28.5 -17.5t-26.5 -24t-20 -29.5t-8 -35q0 -29 18.5 -43t44.5 -14q19 0 34 5v-44q-9 -4 -19.5 -6t-25.5 -2q-43 0 -73 24t-30 69z" />
    <glyph glyph-name="tilde" unicode="&#x2dc;" horiz-adv-x="393" 
d="M348 648q0 -48 -24.5 -72.5t-58.5 -24.5q-20 0 -35.5 6.5t-29.5 16.5l-21 15q-12 8 -23.5 14t-25.5 6q-38 0 -38 -55h-47v12q0 46 24.5 70.5t60.5 24.5q21 0 38.5 -8t32.5 -19l18 -13q11 -8 21 -13t23 -5q38 0 38 56h47v-11z" />
    <glyph glyph-name="hungarumlaut" unicode="&#x2dd;" horiz-adv-x="330" 
d="M195 537h-44l67 139h67zM89 537h-44l67 139h67z" />
    <glyph glyph-name="uni0394" unicode="&#x394;" horiz-adv-x="686" 
d="M308 709h72l284 -709h-639zM115 58h458l-229 584z" />
    <glyph glyph-name="uni03A9" unicode="&#x3a9;" horiz-adv-x="820" 
d="M411 665q-56 0 -108 -20t-92 -57.5t-64.5 -91t-24.5 -120.5q0 -60 20.5 -110.5t54 -88t77 -61.5t90.5 -33v-83h-296v55h222q-45 14 -87 42.5t-74.5 70t-51.5 94t-19 114.5q0 79 29 143t77.5 109t112.5 69.5t134 24.5t133.5 -24.5t112.5 -69.5t78 -109t29 -143
q0 -62 -19 -114.5t-51.5 -94t-74.5 -70t-87 -42.5h222v-55h-296v83q46 9 90 33t77.5 61.5t54 88t20.5 110.5q0 67 -24.5 120.5t-64.5 91t-92.5 57.5t-107.5 20z" />
    <glyph glyph-name="uni03BC" unicode="&#x3bc;" horiz-adv-x="546" 
d="M259 -13q-41 0 -71 14t-48 40v-231h-60v667h60v-291q0 -29 7 -55t22.5 -46t40.5 -32t60 -12q32 0 57 11.5t42.5 31t26.5 46t9 56.5v291h60v-386q0 -27 2 -51t4 -40h-57q-2 8 -3.5 26t-1.5 41v7q-17 -35 -55 -61t-95 -26z" />
    <glyph glyph-name="pi" unicode="&#x3c0;" horiz-adv-x="580" 
d="M539 5q-11 -4 -25 -7t-32 -3q-26 0 -45.5 8.5t-32.5 23t-19 34t-6 41.5v321h-204v-423h-60v423h-95v54h515v-54h-96v-315q0 -30 17 -44.5t44 -14.5q19 0 39 6v-50z" />
    <glyph glyph-name="Wgrave" unicode="&#x1e80;" horiz-adv-x="990" 
d="M332 878h84l107 -119h-57zM900 709h65l-204 -709h-69l-198 626l-198 -626h-66l-207 709h66l175 -620l196 620h69l197 -620z" />
    <glyph glyph-name="wgrave" unicode="&#x1e81;" horiz-adv-x="795" 
d="M256 676h76l89 -139h-47zM431 477l142 -403l125 403h65l-156 -477h-67l-142 404l-142 -404h-67l-158 477h66l127 -403l142 403h65z" />
    <glyph glyph-name="Wacute" unicode="&#x1e82;" horiz-adv-x="990" 
d="M524 759h-57l107 119h84zM900 709h65l-204 -709h-69l-198 626l-198 -626h-66l-207 709h66l175 -620l196 620h69l197 -620z" />
    <glyph glyph-name="wacute" unicode="&#x1e83;" horiz-adv-x="795" 
d="M424 537h-49l89 139h78zM431 477l142 -403l125 403h65l-156 -477h-67l-142 404l-142 -404h-67l-158 477h66l127 -403l142 403h65z" />
    <glyph glyph-name="Wdieresis" unicode="&#x1e84;" horiz-adv-x="990" 
d="M319 819q0 18 12.5 30.5t30.5 12.5t30.5 -12.5t12.5 -30.5t-12.5 -30.5t-30.5 -12.5t-30.5 12.5t-12.5 30.5zM583 819q0 18 12.5 30.5t30.5 12.5t30.5 -12.5t12.5 -30.5t-12.5 -30.5t-30.5 -12.5t-30.5 12.5t-12.5 30.5zM900 709h65l-204 -709h-69l-198 626l-198 -626
h-66l-207 709h66l175 -620l196 620h69l197 -620z" />
    <glyph glyph-name="wdieresis" unicode="&#x1e85;" horiz-adv-x="795" 
d="M250 610q0 17 12.5 30t29.5 13q18 0 30.5 -13t12.5 -30q0 -18 -12.5 -30t-30.5 -12q-17 0 -29.5 12t-12.5 30zM463 610q0 17 12 30t30 13q17 0 29.5 -13t12.5 -30q0 -18 -12.5 -30t-29.5 -12q-18 0 -30 12t-12 30zM431 477l142 -403l125 403h65l-156 -477h-67l-142 404
l-142 -404h-67l-158 477h66l127 -403l142 403h65z" />
    <glyph glyph-name="uni1E8A" unicode="&#x1e8a;" horiz-adv-x="591" 
d="M332 356l238 -356h-75l-199 305l-203 -305h-74l240 356l-238 353h76l199 -304l200 304h75zM250 818q0 20 13.5 33.5t33.5 13.5t33.5 -13.5t13.5 -33.5t-13.5 -33.5t-33.5 -13.5t-33.5 13.5t-13.5 33.5z" />
    <glyph glyph-name="uni1E8B" unicode="&#x1e8b;" horiz-adv-x="478" 
d="M202 243l-174 234h71l140 -191l140 191h71l-176 -234l183 -243h-72l-147 200l-146 -200h-72zM191 607q0 20 13.5 33.5t33.5 13.5t33.5 -13.5t13.5 -33.5t-13.5 -33.5t-33.5 -13.5t-33.5 13.5t-13.5 33.5z" />
    <glyph glyph-name="Ygrave" unicode="&#x1ef2;" horiz-adv-x="616" 
d="M29 709h75l204 -347l205 347h74l-248 -406v-303h-62v303zM159 878h84l107 -119h-57z" />
    <glyph glyph-name="ygrave" unicode="&#x1ef3;" horiz-adv-x="501" 
d="M109 -190l119 252l-203 415h67l167 -352l158 352h66l-309 -667h-65zM129 676h76l89 -139h-47z" />
    <glyph glyph-name="uni2000" unicode="&#x2000;" horiz-adv-x="516" 
 />
    <glyph glyph-name="uni2001" unicode="&#x2001;" horiz-adv-x="1033" 
 />
    <glyph glyph-name="uni2002" unicode="&#x2002;" horiz-adv-x="516" 
 />
    <glyph glyph-name="uni2003" unicode="&#x2003;" horiz-adv-x="1033" 
 />
    <glyph glyph-name="uni2004" unicode="&#x2004;" horiz-adv-x="344" 
 />
    <glyph glyph-name="uni2005" unicode="&#x2005;" horiz-adv-x="258" 
 />
    <glyph glyph-name="uni2006" unicode="&#x2006;" horiz-adv-x="172" 
 />
    <glyph glyph-name="uni2007" unicode="&#x2007;" horiz-adv-x="606" 
 />
    <glyph glyph-name="uni2008" unicode="&#x2008;" horiz-adv-x="229" 
 />
    <glyph glyph-name="uni2009" unicode="&#x2009;" horiz-adv-x="206" 
 />
    <glyph glyph-name="uni200A" unicode="&#x200a;" horiz-adv-x="57" 
 />
    <glyph glyph-name="uni200B" unicode="&#x200b;" horiz-adv-x="0" 
 />
    <glyph glyph-name="uni2010" unicode="&#x2010;" horiz-adv-x="401" 
d="M69 260v54h263v-54h-263z" />
    <glyph glyph-name="uni2011" unicode="&#x2011;" horiz-adv-x="401" 
d="M69 260v54h263v-54h-263z" />
    <glyph glyph-name="figuredash" unicode="&#x2012;" horiz-adv-x="401" 
d="M69 260v54h263v-54h-263z" />
    <glyph glyph-name="endash" unicode="&#x2013;" horiz-adv-x="638" 
d="M69 260v54h500v-54h-500z" />
    <glyph glyph-name="emdash" unicode="&#x2014;" horiz-adv-x="1057" 
d="M69 260v54h919v-54h-919z" />
    <glyph glyph-name="quoteleft" unicode="&#x2018;" horiz-adv-x="211" 
d="M154 537q0 -19 -14 -33t-36 -14t-39 17t-17 50q0 35 10 63.5t25.5 49t36 33.5t41.5 18v-36q-32 -9 -51 -40t-20 -64q5 5 18 5q20 0 33 -13.5t13 -35.5z" />
    <glyph glyph-name="quoteright" unicode="&#x2019;" horiz-adv-x="215" 
d="M67 669q0 19 14 33t36 14t39 -17t17 -50q0 -35 -10 -63.5t-25.5 -49t-36 -33.5t-41.5 -18v36q32 9 51 40t20 64q-5 -5 -18 -5q-20 0 -33 13.5t-13 35.5z" />
    <glyph glyph-name="quotesinglbase" unicode="&#x201a;" horiz-adv-x="234" 
d="M64 46q0 19 14 33t36 14t39 -17t17 -50q0 -35 -10 -63.5t-25.5 -49t-36 -33.5t-41.5 -18v36q32 9 51 40t20 64q-5 -5 -18 -5q-20 0 -33 13.5t-13 35.5z" />
    <glyph glyph-name="quotedblleft" unicode="&#x201c;" horiz-adv-x="353" 
d="M154 537q0 -19 -14 -33t-36 -14t-39 17t-17 50q0 35 10 63.5t25.5 49t36 33.5t41.5 18v-36q-32 -9 -51 -40t-20 -64q5 5 18 5q20 0 33 -13.5t13 -35.5zM296 537q0 -19 -14 -33t-36 -14t-39 17t-17 50q0 35 10 63.5t25.5 49t36 33.5t41.5 18v-36q-32 -9 -51 -40t-20 -64
q5 5 18 5q20 0 33 -13.5t13 -35.5z" />
    <glyph glyph-name="quotedblright" unicode="&#x201d;" horiz-adv-x="357" 
d="M67 669q0 19 14 33t36 14t39 -17t17 -50q0 -35 -10 -63.5t-25.5 -49t-36 -33.5t-41.5 -18v36q32 9 51 40t20 64q-5 -5 -18 -5q-20 0 -33 13.5t-13 35.5zM209 669q0 19 14 33t36 14t39 -17t17 -50q0 -35 -10 -63.5t-25.5 -49t-36 -33.5t-41.5 -18v36q32 9 51 40t20 64
q-5 -5 -18 -5q-20 0 -33 13.5t-13 35.5z" />
    <glyph glyph-name="quotedblbase" unicode="&#x201e;" horiz-adv-x="383" 
d="M64 46q0 19 14 33t36 14t39 -17t17 -50q0 -35 -10 -63.5t-25.5 -49t-36 -33.5t-41.5 -18v36q32 9 51 40t20 64q-5 -5 -18 -5q-20 0 -33 13.5t-13 35.5zM213 46q0 19 14 33t36 14t39 -17t17 -50q0 -35 -10 -63.5t-25.5 -49t-36 -33.5t-41.5 -18v36q32 9 51 40t20 64
q-5 -5 -18 -5q-20 0 -33 13.5t-13 35.5z" />
    <glyph glyph-name="dagger" unicode="&#x2020;" horiz-adv-x="409" 
d="M178 162v335h-136v51h136v161h53v-161h136v-51h-136v-335h-53z" />
    <glyph glyph-name="daggerdbl" unicode="&#x2021;" horiz-adv-x="1831" 
d="M1200 -6q17 0 30.5 13t13.5 32q0 24 -21 37q-79 49 -182 80t-239 31q-123 0 -263 -32q-15 -4 -24.5 -15.5t-9.5 -26.5q0 -17 11.5 -30.5t31.5 -13.5q7 0 20 3t21 5q66 14 121.5 18.5t93.5 4.5q107 0 199.5 -25t173.5 -74q12 -7 23 -7zM1277 181q22 0 38.5 16.5t16.5 39.5
q0 14 -6.5 26.5t-19.5 20.5q-107 66 -240 99.5t-270 33.5q-73 0 -144 -10t-138 -30q-18 -5 -28.5 -20t-10.5 -33q0 -22 14 -38t38 -16q9 0 14 1t10.5 2.5t13.5 4t22 5.5q58 14 112.5 19t94.5 5q123 0 241.5 -30t212.5 -88q14 -8 29 -8zM1332 408q15 -9 33 -9q28 0 47.5 19
t19.5 47q0 17 -8.5 32t-24.5 24q-125 72 -277 105.5t-316 33.5q-92 0 -176.5 -11.5t-154.5 -32.5q-22 -7 -34.5 -24.5t-12.5 -38.5q0 -26 18 -46.5t47 -20.5q10 0 19 3q63 19 139 29t161 10q68 0 138 -7t137 -21.5t129.5 -37.5t115.5 -54zM210 327q0 97 25.5 187.5t71.5 169
t110.5 143t143 110.5t168.5 71t187 25t187 -25t168.5 -71t143 -110.5t110.5 -143t71 -169t25 -187.5q0 -98 -25 -188t-71 -168t-110.5 -142.5t-143 -110.5t-168.5 -71t-187 -25t-187 25t-168.5 71t-143 110.5t-110.5 142.5t-71.5 168.5t-25.5 187.5z" />
    <glyph glyph-name="bullet" unicode="&#x2022;" horiz-adv-x="566" 
d="M75 282q0 44 16.5 82t44.5 66t66 44t81 16t81 -16t66 -44t44.5 -66t16.5 -82t-16.5 -82t-44.5 -66t-66 -44t-81 -16t-81 16t-66 44t-44.5 66t-16.5 82z" />
    <glyph glyph-name="ellipsis" unicode="&#x2026;" horiz-adv-x="722" 
d="M64 45q0 21 14.5 35t34.5 14t34.5 -14t14.5 -35t-14.5 -35t-34.5 -14t-34.5 14t-14.5 35zM312 45q0 21 14.5 35t34.5 14t34.5 -14t14.5 -35t-14.5 -35t-34.5 -14t-34.5 14t-14.5 35zM560 45q0 21 14.5 35t34.5 14t34.5 -14t14.5 -35t-14.5 -35t-34.5 -14t-34.5 14
t-14.5 35z" />
    <glyph glyph-name="uni202F" unicode="&#x202f;" horiz-adv-x="206" 
 />
    <glyph glyph-name="perthousand" unicode="&#x2030;" horiz-adv-x="1056" 
d="M133 0l473 709h59l-473 -709h-59zM190 460q21 0 39 8t31.5 22t21.5 33t8 41t-8 40.5t-21.5 32.5t-31.5 22t-39 8q-43 0 -72 -29.5t-29 -73.5q0 -45 29 -74.5t72 -29.5zM36 564q0 32 12 60t33 48.5t49 32.5t60 12q31 0 59 -12t49 -32.5t33.5 -48.5t12.5 -60t-12.5 -60
t-33.5 -49t-49 -33t-59 -12q-32 0 -60 12t-49 33t-33 49t-12 60zM455 146q0 32 12 60t33 48.5t49 32.5t60 12q41 0 75 -19.5t54 -51.5q20 32 53.5 51.5t75.5 19.5q32 0 60 -12t49 -32.5t33 -48.5t12 -60t-12 -60t-33 -49t-49 -33t-60 -12q-42 0 -75.5 19.5t-53.5 51.5
q-20 -32 -54 -51.5t-75 -19.5q-32 0 -60 12t-49 33t-33 49t-12 60zM509 146q0 -22 7.5 -41t21 -33t32 -22t39.5 -8q43 0 71.5 30t28.5 77q0 21 -8 39t-21.5 31.5t-31.5 21.5t-39 8t-39.5 -8t-32 -22t-21 -32.5t-7.5 -40.5zM767 146q0 -22 7.5 -41t21 -33t32 -22t39.5 -8
q43 0 71.5 30t28.5 77q0 21 -8 39t-21.5 31.5t-31.5 21.5t-39 8t-39.5 -8t-32 -22t-21 -32.5t-7.5 -40.5z" />
    <glyph glyph-name="guilsinglleft" unicode="&#x2039;" horiz-adv-x="296" 
d="M181 95l-133 191l133 191h60l-132 -191l132 -191h-60z" />
    <glyph glyph-name="guilsinglright" unicode="&#x203a;" horiz-adv-x="296" 
d="M55 95l132 191l-132 191h60l133 -191l-133 -191h-60z" />
    <glyph glyph-name="uni2042" unicode="&#x2042;" horiz-adv-x="822" 
d="M435 577l125 43l13 -41l-126 -44l82 -110l-35 -27l-83 113l-79 -112l-35 27l79 109l-125 43l14 42l124 -44v133h46v-132zM219 180l125 43l13 -41l-126 -44l82 -110l-35 -27l-83 113l-79 -112l-35 27l79 109l-125 43l14 42l124 -44v133h46v-132zM651 180l125 43l13 -41
l-126 -44l82 -110l-35 -27l-83 113l-79 -112l-35 27l79 109l-125 43l14 42l124 -44v133h46v-132z" />
    <glyph glyph-name="fraction" unicode="&#x2044;" horiz-adv-x="131" 
d="M331 709l-472 -709h-57l474 709h55z" />
    <glyph glyph-name="uni2051" unicode="&#x2051;" horiz-adv-x="444" 
d="M245 577l125 43l13 -41l-126 -44l82 -110l-35 -27l-83 113l-79 -112l-35 27l79 109l-125 43l14 42l124 -44v133h46v-132zM245 180l125 43l13 -41l-126 -44l82 -110l-35 -27l-83 113l-79 -112l-35 27l79 109l-125 43l14 42l124 -44v133h46v-132z" />
    <glyph glyph-name="uni205F" unicode="&#x205f;" horiz-adv-x="258" 
 />
    <glyph glyph-name="uni2070" unicode="&#x2070;" horiz-adv-x="378" 
d="M93 528q0 -26 4 -51.5t15 -46t29.5 -33.5t47.5 -13t47.5 13t29.5 33.5t15 46t4 51.5q0 25 -4 50.5t-15 46t-29.5 33.5t-47.5 13t-47.5 -13t-29.5 -33.5t-15 -46t-4 -50.5zM41 528q0 35 8 70t28 64q17 23 44 38.5t68 15.5q42 0 68.5 -15.5t43.5 -38.5q21 -29 28.5 -64
t7.5 -70t-7.5 -70.5t-28.5 -63.5q-17 -23 -43.5 -38.5t-68.5 -15.5q-41 0 -68 15.5t-44 38.5q-20 28 -28 63.5t-8 70.5z" />
    <glyph glyph-name="uni2074" unicode="&#x2074;" horiz-adv-x="367" 
d="M27 480l180 230h61v-236h71v-45h-71v-82h-51v82h-190v51zM217 653l-140 -179h140v179z" />
    <glyph glyph-name="uni2075" unicode="&#x2075;" horiz-adv-x="340" 
d="M75 459q5 -32 30 -53.5t60 -21.5q38 0 62 22.5t24 57.5q0 36 -24 57.5t-61 21.5q-46 0 -78 -34l-45 16l49 185h196v-44h-162l-30 -113q17 17 39 24t44 7q56 0 90 -32.5t34 -86.5q0 -26 -9.5 -48.5t-27.5 -39.5t-43.5 -27t-57.5 -10q-27 0 -50 8t-41 22t-29.5 31.5
t-14.5 37.5z" />
    <glyph glyph-name="uni2076" unicode="&#x2076;" horiz-adv-x="362" 
d="M300 657q-29 16 -69 16q-32 0 -57 -11t-43 -30.5t-28 -45.5t-12 -57q11 25 40.5 42.5t65.5 17.5q56 0 92.5 -33.5t36.5 -90.5q0 -28 -11 -51t-30 -39.5t-44.5 -25.5t-54.5 -9q-30 0 -56.5 11t-46.5 32t-31.5 52.5t-11.5 72.5q0 50 15 89t40.5 65.5t59.5 40t73 13.5
q53 0 85 -19zM100 465q0 -37 26.5 -59t60.5 -22q35 0 61 22t26 59q0 38 -26 59.5t-61 21.5q-34 0 -60.5 -21.5t-26.5 -59.5z" />
    <glyph glyph-name="uni2077" unicode="&#x2077;" horiz-adv-x="329" 
d="M309 663q-24 -19 -50 -46.5t-49.5 -66t-41.5 -88.5t-25 -115h-54q7 68 27 121.5t44 93.5t47 65.5t37 38.5h-220v44h285v-47z" />
    <glyph glyph-name="uni2078" unicode="&#x2078;" horiz-adv-x="355" 
d="M178 554q34 0 55 16.5t21 43.5q0 26 -20.5 43.5t-55.5 17.5q-36 0 -56 -17.5t-20 -43.5q0 -27 20.5 -43.5t55.5 -16.5zM178 384q41 0 63 18t22 46t-21.5 46.5t-63.5 18.5t-64 -18.5t-22 -46.5t22.5 -46t63.5 -18zM178 340q-66 0 -102 30t-36 74q0 31 20.5 55t53.5 34
q-28 10 -45.5 32t-17.5 51q0 44 35 72t92 28t92 -28t35 -72q0 -29 -17.5 -51t-46.5 -32q34 -10 54 -34t20 -55q0 -44 -35.5 -74t-101.5 -30z" />
    <glyph glyph-name="uni2079" unicode="&#x2079;" horiz-adv-x="360" 
d="M61 401q15 -8 34.5 -13t38.5 -5q59 0 96 37t39 110q-11 -27 -40 -44t-64 -17q-27 0 -50.5 8.5t-41 24.5t-27.5 39t-10 51q0 27 11 49.5t29.5 39t44 26t54.5 9.5q30 0 56.5 -11t46 -32t31 -52t11.5 -71q0 -47 -12 -86t-35 -67t-57.5 -43t-79.5 -15q-24 0 -48 6t-40 16z
M259 592q0 37 -25.5 58.5t-60.5 21.5t-60 -21.5t-25 -58.5t25 -58.5t60 -21.5t60.5 21.5t25.5 58.5z" />
    <glyph glyph-name="uni2080" unicode="&#x2080;" horiz-adv-x="380" 
d="M94 100q0 -26 4 -51.5t15 -46t29.5 -33.5t47.5 -13t47.5 13t29.5 33.5t15 46t4 51.5q0 25 -4 50.5t-15 46t-29.5 33.5t-47.5 13t-47.5 -13t-29.5 -33.5t-15 -46t-4 -50.5zM42 100q0 35 8 70t28 64q17 23 44 38.5t68 15.5q42 0 68.5 -15.5t43.5 -38.5q21 -29 28.5 -64
t7.5 -70t-7.5 -70.5t-28.5 -63.5q-17 -23 -43.5 -38.5t-68.5 -15.5q-41 0 -68 15.5t-44 38.5q-20 28 -28 63.5t-8 70.5z" />
    <glyph glyph-name="uni2081" unicode="&#x2081;" horiz-adv-x="219" 
d="M114 -81v286q-13 -14 -36 -24.5t-51 -12.5v39q38 5 61 26.5t28 48.5h49v-363h-51z" />
    <glyph glyph-name="uni2082" unicode="&#x2082;" horiz-adv-x="344" 
d="M46 150q-1 5 -1.5 12t-0.5 12q0 23 9 44t25.5 36.5t40 24.5t53.5 9q58 0 91.5 -32.5t33.5 -77.5q0 -35 -20 -61.5t-52 -46.5l-74 -46q-17 -11 -30 -26t-16 -35h196v-44h-258v5q0 40 18 74.5t60 60.5l69 42q24 15 39.5 34.5t15.5 43.5q0 26 -19.5 46t-54.5 20
q-34 0 -55.5 -20t-21.5 -55q0 -4 0.5 -10.5t1.5 -12.5z" />
    <glyph glyph-name="uni2083" unicode="&#x2083;" horiz-adv-x="356" 
d="M126 134l114 104h-195v44h262v-42l-116 -104q2 0 4.5 0.5t4.5 0.5q22 -1 43 -8t37 -20t25.5 -33t9.5 -46q0 -24 -10 -45.5t-28 -37.5t-43.5 -25.5t-56.5 -9.5q-61 0 -98.5 30.5t-43.5 75.5l46 17q3 -37 31 -58.5t64 -21.5q38 0 62.5 21.5t24.5 53.5q0 35 -25 52.5
t-58 17.5q-17 0 -32 -5z" />
    <glyph glyph-name="uni2084" unicode="&#x2084;" horiz-adv-x="368" 
d="M28 52l180 230h61v-236h71v-45h-71v-82h-51v82h-190v51zM218 225l-140 -179h140v179z" />
    <glyph glyph-name="uni2085" unicode="&#x2085;" horiz-adv-x="341" 
d="M76 31q5 -32 30 -53.5t60 -21.5q38 0 62 22.5t24 57.5q0 36 -24 57.5t-61 21.5q-46 0 -78 -34l-45 16l49 185h196v-44h-162l-30 -113q17 17 39 24t44 7q56 0 90 -32.5t34 -86.5q0 -26 -9.5 -48.5t-27.5 -39.5t-43.5 -27t-57.5 -10q-27 0 -50 8t-41 22t-29.5 31.5
t-14.5 37.5z" />
    <glyph glyph-name="uni2086" unicode="&#x2086;" horiz-adv-x="364" 
d="M301 229q-29 16 -69 16q-32 0 -57 -11t-43 -30.5t-28 -45.5t-12 -57q11 25 40.5 42.5t65.5 17.5q56 0 92.5 -33.5t36.5 -90.5q0 -28 -11 -51t-30 -39.5t-44.5 -25.5t-54.5 -9q-30 0 -56.5 11t-46.5 32t-31.5 52.5t-11.5 72.5q0 50 15 89t40.5 65.5t59.5 40t73 13.5
q53 0 85 -19zM101 37q0 -37 26.5 -59t60.5 -22q35 0 61 22t26 59q0 38 -26 59.5t-61 21.5q-34 0 -60.5 -21.5t-26.5 -59.5z" />
    <glyph glyph-name="uni2087" unicode="&#x2087;" horiz-adv-x="329" 
d="M310 235q-24 -19 -50 -46.5t-49.5 -66t-41.5 -88.5t-25 -115h-54q7 68 27 121.5t44 93.5t47 65.5t37 38.5h-220v44h285v-47z" />
    <glyph glyph-name="uni2088" unicode="&#x2088;" horiz-adv-x="357" 
d="M179 126q34 0 55 16.5t21 43.5q0 26 -20.5 43.5t-55.5 17.5q-36 0 -56 -17.5t-20 -43.5q0 -27 20.5 -43.5t55.5 -16.5zM179 -44q41 0 63 18t22 46t-21.5 46.5t-63.5 18.5t-64 -18.5t-22 -46.5t22.5 -46t63.5 -18zM179 -88q-66 0 -102 30t-36 74q0 31 20.5 55t53.5 34
q-28 10 -45.5 32t-17.5 51q0 44 35 72t92 28t92 -28t35 -72q0 -29 -17.5 -51t-46.5 -32q34 -10 54 -34t20 -55q0 -44 -35.5 -74t-101.5 -30z" />
    <glyph glyph-name="uni2089" unicode="&#x2089;" horiz-adv-x="363" 
d="M63 -27q15 -8 34.5 -13t38.5 -5q59 0 96 37t39 110q-11 -27 -40 -44t-64 -17q-27 0 -50.5 8.5t-41 24.5t-27.5 39t-10 51q0 27 11 49.5t29.5 39t44 26t54.5 9.5q30 0 56.5 -11t46 -32t31 -52t11.5 -71q0 -47 -12 -86t-35 -67t-57.5 -43t-79.5 -15q-24 0 -48 6t-40 16z
M261 164q0 37 -25.5 58.5t-60.5 21.5t-60 -21.5t-25 -58.5t25 -58.5t60 -21.5t60.5 21.5t25.5 58.5z" />
    <glyph glyph-name="Euro" unicode="&#x20ac;" horiz-adv-x="743" 
d="M703 64q-35 -31 -90.5 -54t-124.5 -23q-59 0 -115 17.5t-102 52t-79.5 85t-48.5 116.5h-99v50h90q-2 12 -2.5 23t-0.5 25q0 11 0.5 20t1.5 20h-89v49h97q15 67 49.5 118.5t82.5 86.5t105.5 53t116.5 18q57 0 102.5 -13.5t77.5 -36.5l-25 -49q-29 21 -68.5 32t-84.5 11
q-48 0 -94.5 -14t-86 -41.5t-69 -69t-42.5 -95.5h348l-23 -49h-334q-2 -17 -2 -24v-18q0 -13 0.5 -24t1.5 -22h293l-23 -50h-259q13 -53 42 -93t66.5 -66.5t81.5 -40t89 -13.5q58 0 106.5 19t77.5 46z" />
    <glyph glyph-name="uni2113" unicode="&#x2113;" horiz-adv-x="378" 
d="M329 17q-18 -11 -39 -16.5t-47 -5.5q-58 0 -92.5 34.5t-34.5 98.5v161q-17 -8 -34.5 -14.5t-35.5 -11.5v54q17 5 35 13t35 17v224q0 75 33.5 112.5t81.5 37.5q59 0 86 -37t27 -95q0 -45 -13 -85t-36.5 -74.5t-54.5 -63t-67 -50.5v-180q0 -44 20.5 -66t54.5 -22
q24 0 43.5 5.5t37.5 15.5v-52zM173 381q48 35 81 87.5t33 121.5q0 35 -12.5 57t-40.5 22q-29 0 -45 -23t-16 -74v-191z" />
    <glyph glyph-name="trademark" unicode="&#x2122;" horiz-adv-x="828" 
d="M203 664v-309h-50v309h-116v45h282v-45h-116zM700 355v268l-120 -268h-41l-120 268v-268h-50v354h64l127 -285l127 285h63v-354h-50z" />
    <glyph glyph-name="Omega" unicode="&#x2126;" horiz-adv-x="824" 
d="M412 665q-56 0 -108 -20t-92 -57.5t-64.5 -91t-24.5 -120.5q0 -60 20.5 -110.5t54 -88t77 -61.5t90.5 -33v-83h-296v55h222q-45 14 -87 42.5t-74.5 70t-51.5 94t-19 114.5q0 79 29 143t77.5 109t112.5 69.5t134 24.5t133.5 -24.5t112.5 -69.5t78 -109t29 -143
q0 -62 -19 -114.5t-51.5 -94t-74.5 -70t-87 -42.5h222v-55h-296v83q46 9 90 33t77.5 61.5t54 88t20.5 110.5q0 67 -24.5 120.5t-64.5 91t-92.5 57.5t-107.5 20z" />
    <glyph glyph-name="uni2160" unicode="&#x2160;" horiz-adv-x="456" 
d="M422 653h-164v-597h164v-56h-388v56h163v597h-163v56h388v-56z" />
    <glyph glyph-name="uni2161" unicode="&#x2161;" horiz-adv-x="726" 
d="M692 653h-162v-597h162v-56h-658v56h161v597h-161v56h658v-56zM257 56h212v597h-212v-597z" />
    <glyph glyph-name="uni2162" unicode="&#x2162;" horiz-adv-x="994" 
d="M960 653h-161v-597h161v-56h-926v56h161v597h-161v56h926v-56zM257 56h209v597h-209v-597zM738 56v597h-210v-597h210z" />
    <glyph glyph-name="uni2163" unicode="&#x2163;" horiz-adv-x="971" 
d="M936 0h-902v56h158v597h-158v56h902v-56h-113l-178 -597h291v-56zM254 653v-597h276l-178 597h-98zM758 653h-341l171 -577z" />
    <glyph glyph-name="uni2164" unicode="&#x2164;" horiz-adv-x="751" 
d="M716 0h-681v56h283l-178 597h-105v56h681v-56h-105l-178 -597h283v-56zM546 653h-341l170 -577z" />
    <glyph glyph-name="uni2165" unicode="&#x2165;" horiz-adv-x="970" 
d="M727 653h-108l-178 -597h286v597zM553 653h-340l170 -577zM35 56h290l-178 597h-112v56h900v-56h-146v-597h146v-56h-900v56z" />
    <glyph glyph-name="uni2166" unicode="&#x2166;" horiz-adv-x="1257" 
d="M1224 653h-164v-597h162v-56h-1187v56h290l-178 597h-112v56h1189v-56zM441 56h286v597h-108zM789 56h210v597h-210v-597zM553 653h-340l170 -577z" />
    <glyph glyph-name="uni2167" unicode="&#x2167;" horiz-adv-x="1511" 
d="M1479 653h-164v-597h160v-56h-1440v56h290l-178 597h-112v56h1444v-56zM441 56h285v597h-107zM787 56h203v597h-203v-597zM1051 56h202v597h-202v-597zM554 653h-341l171 -577z" />
    <glyph glyph-name="uni2168" unicode="&#x2168;" horiz-adv-x="941" 
d="M611 354l192 -298h104v-56h-873v56h158v597h-158v56h872v-56h-102zM346 653h-92v-597h93l191 298zM730 56l-155 244l-156 -244h311zM575 407l157 246h-313z" />
    <glyph glyph-name="uni2169" unicode="&#x2169;" horiz-adv-x="722" 
d="M395 351l190 -295h103v-56h-654v56h100l189 293l-194 304h-95v56h654v-56h-97zM512 56l-153 241l-153 -241h306zM359 403l160 250h-318z" />
    <glyph glyph-name="uni216C" unicode="&#x216c;" horiz-adv-x="613" 
d="M35 0v56h144v597h-144v56h359v-56h-154v-597h274v222h60v-278h-539z" />
    <glyph glyph-name="uni216D" unicode="&#x216d;" horiz-adv-x="744" 
d="M616 113q-14 -24 -34 -47t-48 -40t-64.5 -27.5t-82.5 -10.5q-68 0 -129.5 24t-107.5 70.5t-73 115t-27 156.5t27.5 156.5t73.5 115t106.5 71t127.5 24.5q46 0 82 -10.5t63.5 -27.5t47.5 -39t34 -45v110h61v-237h-61q-8 41 -25.5 76.5t-45 62t-66 41.5t-89.5 15
q-54 0 -104 -20t-88.5 -60t-61 -98.5t-22.5 -134.5t22 -134t60 -97.5t88 -59.5t107 -20q52 0 92 16.5t68 44t45 63t24 73.5h61v-240h-61v113z" />
    <glyph glyph-name="uni216E" unicode="&#x216e;" horiz-adv-x="726" 
d="M347 56q53 0 101 16.5t84.5 52.5t58 92.5t21.5 136.5q0 78 -21 134.5t-57 93t-84 54t-102 17.5h-104v-597h103zM351 709q66 0 125 -21.5t103 -65.5t70 -111t26 -157t-26 -157t-70.5 -110.5t-104 -65t-126.5 -21.5h-314v56h149v597h-149v56h317z" />
    <glyph glyph-name="uni216F" unicode="&#x216f;" horiz-adv-x="1020" 
d="M508 87l250 622h225v-56h-135v-597h139v-56h-317v56h117v566l-252 -622h-55l-252 621v-565h122v-56h-315v56h133v597h-133v56h220z" />
    <glyph glyph-name="arrowleft" unicode="&#x2190;" horiz-adv-x="1019" 
d="M41 290l206 173v-147h700v-53h-700v-147z" />
    <glyph glyph-name="arrowup" unicode="&#x2191;" horiz-adv-x="416" 
d="M377 592h-142v-739h-54v739h-142l169 204z" />
    <glyph glyph-name="arrowright" unicode="&#x2192;" horiz-adv-x="1019" 
d="M772 116v147h-700v53h700v147l206 -173z" />
    <glyph glyph-name="arrowdown" unicode="&#x2193;" horiz-adv-x="423" 
d="M211 -158l-173 206h146v737h54v-737h147z" />
    <glyph glyph-name="uni2196" unicode="&#x2196;" horiz-adv-x="799" 
d="M304 709l-106 -106l574 -573l-38 -38l-573 573l-107 -108v252h250z" />
    <glyph glyph-name="uni2197" unicode="&#x2197;" horiz-adv-x="800" 
d="M746 709v-252l-107 108l-573 -573l-39 38l574 573l-106 106h251z" />
    <glyph glyph-name="uni2198" unicode="&#x2198;" horiz-adv-x="801" 
d="M496 0l106 106l-574 573l38 38l573 -573l107 108v-252h-250z" />
    <glyph glyph-name="uni2199" unicode="&#x2199;" horiz-adv-x="802" 
d="M55 0v252l107 -108l573 573l39 -38l-574 -573l106 -106h-251z" />
    <glyph glyph-name="uni21A9" unicode="&#x21a9;" horiz-adv-x="851" 
d="M432 654h168q42 0 79 -15t64.5 -41.5t43.5 -62.5t16 -78q0 -44 -17 -80.5t-45.5 -62.5t-66 -40t-77.5 -14h-369v-137l-195 164l195 164v-137h367q30 0 58 10t49.5 28.5t34.5 45t13 59.5q0 31 -12 57.5t-33 46t-49 30t-60 10.5h-164v53z" />
    <glyph glyph-name="uni21B0" unicode="&#x21b0;" horiz-adv-x="725" 
d="M30 559l195 164v-137h418v-586h-53v532h-365v-137z" />
    <glyph glyph-name="uni21B1" unicode="&#x21b1;" horiz-adv-x="743" 
d="M82 0v586h437v137l194 -164l-194 -164v137h-384v-532h-53z" />
    <glyph glyph-name="uni21B2" unicode="&#x21b2;" horiz-adv-x="742" 
d="M660 717v-585h-437v-138l-194 164l194 164v-137h384v532h53z" />
    <glyph glyph-name="uni21B3" unicode="&#x21b3;" horiz-adv-x="743" 
d="M714 158l-195 -164v138h-437v585h54v-532h383v137z" />
    <glyph glyph-name="uni21B4" unicode="&#x21b4;" horiz-adv-x="769" 
d="M34 709h565v-528h137l-164 -194l-164 194h137v475h-511v53z" />
    <glyph glyph-name="uni21B5" unicode="&#x21b5;" horiz-adv-x="1058" 
d="M30 355h130q0 76 29 143t79 116.5t116.5 78.5t142.5 29q50 0 95.5 -12.5t85.5 -35.5l-23 -47q-35 20 -75 31t-83 11q-65 0 -122 -24.5t-99.5 -67.5t-67 -100t-24.5 -122h134l-159 -191zM894 355q0 -76 -29 -143t-79 -116.5t-116.5 -78.5t-142.5 -29q-50 0 -95.5 12
t-85.5 35l23 48q35 -20 75 -31t83 -11q65 0 122 24.5t99.5 67t67 100t24.5 122.5h-132l159 191l159 -191h-132z" />
    <glyph glyph-name="uni21C6" unicode="&#x21c6;" horiz-adv-x="1045" 
d="M52 540l195 164v-137h721v-54h-721v-137zM801 6v137h-722v54h722v137l194 -164z" />
    <glyph glyph-name="partialdiff" unicode="&#x2202;" horiz-adv-x="604" 
d="M234 667q-28 0 -65.5 -7t-73.5 -25l-20 49q40 21 84.5 29.5t83.5 8.5q67 0 123 -24.5t97 -72t64 -118t23 -162.5q0 -76 -16.5 -141.5t-49.5 -113.5t-83.5 -75.5t-118.5 -27.5q-47 0 -90 15.5t-75 45.5t-51 73.5t-19 98.5q0 52 18.5 94.5t51 72.5t75.5 46.5t93 16.5
q67 0 120 -25t83 -67q-2 64 -16.5 120.5t-44.5 98.5t-77.5 66t-115.5 24zM294 397q-44 0 -78.5 -14t-58.5 -38t-36.5 -57t-12.5 -71q0 -40 14 -72.5t38.5 -55t56.5 -35t68 -12.5q53 0 90.5 22.5t61.5 57.5t35.5 79t13.5 87q-32 54 -82.5 81.5t-109.5 27.5z" />
    <glyph glyph-name="Delta" unicode="&#x2206;" horiz-adv-x="701" 
d="M314 709h72l284 -709h-639zM121 58h458l-229 584z" />
    <glyph glyph-name="product" unicode="&#x220f;" horiz-adv-x="665" 
d="M526 0v651h-385v-651h-62v709h507v-709h-60z" />
    <glyph glyph-name="summation" unicode="&#x2211;" horiz-adv-x="587" 
d="M47 58l282 299l-282 293v59h485v-58h-407l280 -294l-286 -299h413v-58h-485v58z" />
    <glyph glyph-name="minus" unicode="&#x2212;" horiz-adv-x="567" 
d="M73 323v50h421v-50h-421z" />
    <glyph glyph-name="uni2215" unicode="&#x2215;" horiz-adv-x="367" 
d="M51 0h-59l314 648h59z" />
    <glyph glyph-name="uni2219" unicode="&#x2219;" horiz-adv-x="241" 
d="M69 284q0 22 14.5 37t36.5 15q23 0 37.5 -15t14.5 -37t-14.5 -36.5t-37.5 -14.5q-22 0 -36.5 14.5t-14.5 36.5z" />
    <glyph glyph-name="radical" unicode="&#x221a;" horiz-adv-x="660" 
d="M527 796l-268 -796h-57l-182 518h69l143 -417l247 751h174v-56h-126z" />
    <glyph glyph-name="infinity" unicode="&#x221e;" horiz-adv-x="801" 
d="M103 349q0 -23 8.5 -43.5t23.5 -35.5t35.5 -24t44.5 -9q46 0 83.5 32.5t70.5 79.5q-34 48 -71 80.5t-83 32.5q-24 0 -44.5 -9t-35.5 -24.5t-23.5 -36t-8.5 -43.5zM699 349q0 23 -8.5 43.5t-23.5 36t-35.5 24.5t-44.5 9q-47 0 -84 -32.5t-71 -79.5q34 -47 71 -80t84 -33
q24 0 44.5 9t35.5 24t23.5 35.5t8.5 43.5zM400 309q-40 -54 -86 -88.5t-101 -34.5q-35 0 -64.5 13t-52 35t-35 52t-12.5 64t12.5 64t35 52t52 35t64.5 13q55 0 102.5 -35t85.5 -89q40 54 86.5 89t100.5 35q34 0 64 -13t52.5 -35t35 -52t12.5 -64t-12.5 -64t-35 -52
t-52.5 -35t-64 -13q-54 0 -101.5 34.5t-86.5 88.5z" />
    <glyph glyph-name="integral" unicode="&#x222b;" horiz-adv-x="322" 
d="M131 557q0 72 39 112t105 40h28v-54h-24q-40 0 -64 -26t-24 -76v-590q0 -72 -37 -112.5t-103 -40.5h-32v54h24q39 0 63.5 26.5t24.5 77.5v589z" />
    <glyph glyph-name="approxequal" unicode="&#x2248;" horiz-adv-x="620" 
d="M548 449q-26 -35 -58 -53.5t-74 -18.5q-23 0 -46.5 7.5t-49.5 21.5l-47 25q-37 20 -70 20q-29 0 -52 -12t-43 -37l-35 31q26 36 57 55t73 19q23 0 46 -8t49 -22l46 -24q19 -11 39.5 -17t38.5 -6q55 0 92 49zM548 256q-26 -35 -58 -54t-74 -19q-23 0 -46.5 8t-49.5 22
l-47 25q-18 9 -35.5 14.5t-34.5 5.5q-29 0 -52 -12t-43 -37l-35 30q26 36 57 55t73 19q23 0 46 -7.5t49 -21.5l46 -25q19 -10 39.5 -16t38.5 -6q29 0 50.5 11.5t41.5 36.5z" />
    <glyph glyph-name="notequal" unicode="&#x2260;" horiz-adv-x="600" 
d="M99 116l81 110h-104v51h142l105 143h-247v50h285l79 107h62l-79 -107h100v-50h-138l-105 -143h243v-51h-281l-81 -110h-62z" />
    <glyph glyph-name="lessequal" unicode="&#x2264;" horiz-adv-x="582" 
d="M84 381v53l405 147v-54l-336 -120l336 -118v-55zM84 125v51h405v-51h-405z" />
    <glyph glyph-name="greaterequal" unicode="&#x2265;" horiz-adv-x="582" 
d="M93 289l336 118l-336 120v54l405 -147v-53l-405 -147v55zM93 125v51h405v-51h-405z" />
    <glyph glyph-name="dotmath" unicode="&#x22c5;" horiz-adv-x="241" 
d="M69 284q0 22 14.5 37t36.5 15q23 0 37.5 -15t14.5 -37t-14.5 -36.5t-37.5 -14.5q-22 0 -36.5 14.5t-14.5 36.5z" />
    <glyph glyph-name="uni24C5" unicode="&#x24c5;" horiz-adv-x="824" 
d="M412 674q-65 0 -122 -24.5t-99 -68t-66.5 -102t-24.5 -125.5t24.5 -125.5t66.5 -101.5t99 -67.5t122 -24.5t122 24.5t99 67.5t66.5 101.5t24.5 125.5t-24.5 125.5t-66.5 102t-99 68t-122 24.5zM412 -13q-76 0 -142 28.5t-115.5 78.5t-78 116.5t-28.5 143.5t28.5 144
t78 117t115.5 78.5t142 28.5t142 -28.5t115.5 -78.5t78 -117t28.5 -144t-28.5 -143.5t-78 -116.5t-115.5 -78.5t-142 -28.5zM435 357q39 0 62.5 21t23.5 56q0 36 -23.5 57.5t-62.5 21.5h-84v-156h84zM351 314v-158h-49v400h141q28 0 51.5 -9.5t40.5 -25.5t26.5 -38.5
t9.5 -47.5q0 -26 -9.5 -48t-26.5 -38t-40.5 -25.5t-51.5 -9.5h-92z" />
    <glyph glyph-name="filledbox" unicode="&#x25a0;" horiz-adv-x="855" 
d="M77 709h701v-709h-701v709z" />
    <glyph glyph-name="H22073" unicode="&#x25a1;" horiz-adv-x="855" 
d="M77 0v709h701v-709h-701zM129 49h596v611h-596v-611z" />
    <glyph glyph-name="uni25AF" unicode="&#x25af;" horiz-adv-x="574" 
d="M77 0v709h420v-709h-420zM130 51h315v607h-315v-607z" />
    <glyph glyph-name="triagup" unicode="&#x25b2;" horiz-adv-x="892" 
d="M866 0h-840l422 726z" />
    <glyph glyph-name="uni25B3" unicode="&#x25b3;" horiz-adv-x="892" 
d="M866 0h-840l422 726zM447 621l-331 -572h660z" />
    <glyph glyph-name="lozenge" unicode="&#x25ca;" horiz-adv-x="538" 
d="M269 72l168 282l-168 283l-169 -283zM244 709h50l208 -355l-208 -354h-50l-209 354z" />
    <glyph glyph-name="circle" unicode="&#x25cb;" horiz-adv-x="838" 
d="M50 354q0 76 29 143.5t79 117.5t117 79t143 29t143.5 -29t118 -79t79.5 -117.5t29 -143.5q0 -77 -29 -144t-79.5 -116.5t-118 -78.5t-143.5 -29t-143 29t-117 78.5t-79 116.5t-29 144zM104 354q0 -66 24.5 -124t67 -100.5t100 -67.5t122.5 -25q66 0 123.5 25t100 67.5
t67 100.5t24.5 124t-24.5 124t-67 100.5t-100 67.5t-123.5 25q-65 0 -122.5 -25t-100 -67.5t-67 -100.5t-24.5 -124z" />
    <glyph glyph-name="H18533" unicode="&#x25cf;" horiz-adv-x="838" 
d="M50 354q0 76 29 143.5t79 117.5t117 79t143 29t143.5 -29t118 -79t79.5 -117.5t29 -143.5q0 -77 -29 -144t-79.5 -116.5t-118 -78.5t-143.5 -29t-143 29t-117 78.5t-79 116.5t-29 144z" />
    <glyph glyph-name="uni25FC" unicode="&#x25fc;" horiz-adv-x="475" 
d="M0 475h475v-475h-475v475z" />
    <glyph glyph-name="uni262E" unicode="&#x262e;" horiz-adv-x="828" 
d="M778 354q0 -75 -28.5 -142t-78 -117t-116.5 -79t-143 -29q-75 0 -141 29t-115 79t-77.5 117t-28.5 142q0 76 28.5 143t77.5 117t115 79t141 29q76 0 143 -29t116.5 -79t78 -117t28.5 -143zM725 354q0 64 -22 120t-60.5 98.5t-91 69t-112.5 31.5v-273l229 -229
q27 39 42 85t15 98zM101 354q0 -51 14.5 -97t41.5 -85l228 228v273q-60 -5 -112 -31.5t-90.5 -69t-60 -98.5t-21.5 -120zM439 36q58 4 108 28.5t88 63.5l-196 197v-289zM189 130q38 -41 88 -65.5t108 -28.5v289z" />
    <glyph glyph-name="uni2713" unicode="&#x2713;" horiz-adv-x="978" 
d="M315 -16l-281 314l38 36l246 -270l596 644l38 -37z" />
    <glyph glyph-name="uni2715" unicode="&#x2715;" horiz-adv-x="759" 
d="M379 307l-304 -311l-38 38l304 311l-303 311l38 38l303 -310l303 310l39 -38l-305 -311l305 -311l-37 -38z" />
    <glyph glyph-name="uni2780" unicode="&#x2780;" horiz-adv-x="830" 
d="M415 722q76 0 142.5 -29t116 -79t78 -117t28.5 -143q0 -75 -28.5 -142t-78 -117t-116 -79t-142.5 -29t-142.5 29t-116 79t-78 117t-28.5 142q0 76 28.5 143t78 117t116 79t142.5 29zM415 675q-65 0 -122 -25t-99.5 -68t-67 -102t-24.5 -126t24.5 -125t67 -101.5
t99.5 -68.5t122 -25t122 25t99.5 68.5t67 101.5t24.5 125t-24.5 126t-67 102t-99.5 68t-122 25zM399 174v286q-13 -14 -36 -24.5t-51 -12.5v39q38 5 61 26.5t28 48.5h49v-363h-51z" />
    <glyph glyph-name="uni2781" unicode="&#x2781;" horiz-adv-x="830" 
d="M415 722q76 0 142.5 -29t116 -79t78 -117t28.5 -143q0 -75 -28.5 -142t-78 -117t-116 -79t-142.5 -29t-142.5 29t-116 79t-78 117t-28.5 142q0 76 28.5 143t78 117t116 79t142.5 29zM415 675q-65 0 -122 -25t-99.5 -68t-67 -102t-24.5 -126t24.5 -125t67 -101.5
t99.5 -68.5t122 -25t122 25t99.5 68.5t67 101.5t24.5 125t-24.5 126t-67 102t-99.5 68t-122 25zM287 407q-1 5 -1.5 12t-0.5 12q0 23 9 44t25.5 36.5t40 24.5t53.5 9q58 0 91.5 -32.5t33.5 -77.5q0 -35 -20 -61.5t-52 -46.5l-74 -46q-17 -11 -30 -26t-16 -35h196v-44h-258v5
q0 40 18 74.5t60 60.5l69 42q24 15 39.5 34.5t15.5 43.5q0 26 -19.5 46t-54.5 20q-34 0 -55.5 -20t-21.5 -55q0 -4 0.5 -10.5t1.5 -12.5z" />
    <glyph glyph-name="uni2782" unicode="&#x2782;" horiz-adv-x="830" 
d="M415 722q76 0 142.5 -29t116 -79t78 -117t28.5 -143q0 -75 -28.5 -142t-78 -117t-116 -79t-142.5 -29t-142.5 29t-116 79t-78 117t-28.5 142q0 76 28.5 143t78 117t116 79t142.5 29zM415 675q-65 0 -122 -25t-99.5 -68t-67 -102t-24.5 -126t24.5 -125t67 -101.5
t99.5 -68.5t122 -25t122 25t99.5 68.5t67 101.5t24.5 125t-24.5 126t-67 102t-99.5 68t-122 25zM361 391l114 104h-195v44h262v-42l-116 -104q2 0 4.5 0.5t4.5 0.5q22 -1 43 -8t37 -20t25.5 -33t9.5 -46q0 -24 -10 -45.5t-28 -37.5t-43.5 -25.5t-56.5 -9.5q-61 0 -98.5 30.5
t-43.5 75.5l46 17q3 -37 31 -58.5t64 -21.5q38 0 62.5 21.5t24.5 53.5q0 35 -25 52.5t-58 17.5q-17 0 -32 -5z" />
    <glyph glyph-name="uni2783" unicode="&#x2783;" horiz-adv-x="830" 
d="M415 722q76 0 142.5 -29t116 -79t78 -117t28.5 -143q0 -75 -28.5 -142t-78 -117t-116 -79t-142.5 -29t-142.5 29t-116 79t-78 117t-28.5 142q0 76 28.5 143t78 117t116 79t142.5 29zM415 675q-65 0 -122 -25t-99.5 -68t-67 -102t-24.5 -126t24.5 -125t67 -101.5
t99.5 -68.5t122 -25t122 25t99.5 68.5t67 101.5t24.5 125t-24.5 126t-67 102t-99.5 68t-122 25zM239 309l180 230h61v-236h71v-45h-71v-82h-51v82h-190v51zM429 482l-140 -179h140v179z" />
    <glyph glyph-name="uni2784" unicode="&#x2784;" horiz-adv-x="830" 
d="M415 722q76 0 142.5 -29t116 -79t78 -117t28.5 -143q0 -75 -28.5 -142t-78 -117t-116 -79t-142.5 -29t-142.5 29t-116 79t-78 117t-28.5 142q0 76 28.5 143t78 117t116 79t142.5 29zM415 675q-65 0 -122 -25t-99.5 -68t-67 -102t-24.5 -126t24.5 -125t67 -101.5
t99.5 -68.5t122 -25t122 25t99.5 68.5t67 101.5t24.5 125t-24.5 126t-67 102t-99.5 68t-122 25zM316 285q5 -32 30 -53.5t60 -21.5q38 0 62 22.5t24 57.5q0 36 -24 57.5t-61 21.5q-46 0 -78 -34l-45 16l49 185h196v-44h-162l-30 -113q17 17 39 24t44 7q56 0 90 -32.5
t34 -86.5q0 -26 -9.5 -48.5t-27.5 -39.5t-43.5 -27t-57.5 -10q-27 0 -50 8t-41 22t-29.5 31.5t-14.5 37.5z" />
    <glyph glyph-name="uni2785" unicode="&#x2785;" horiz-adv-x="830" 
d="M415 722q76 0 142.5 -29t116 -79t78 -117t28.5 -143q0 -75 -28.5 -142t-78 -117t-116 -79t-142.5 -29t-142.5 29t-116 79t-78 117t-28.5 142q0 76 28.5 143t78 117t116 79t142.5 29zM415 675q-65 0 -122 -25t-99.5 -68t-67 -102t-24.5 -126t24.5 -125t67 -101.5
t99.5 -68.5t122 -25t122 25t99.5 68.5t67 101.5t24.5 125t-24.5 126t-67 102t-99.5 68t-122 25zM513 484q-29 16 -69 16q-32 0 -57 -11t-43 -30.5t-28 -45.5t-12 -57q11 25 40.5 42.5t65.5 17.5q56 0 92.5 -33.5t36.5 -90.5q0 -28 -11 -51t-30 -39.5t-44.5 -25.5t-54.5 -9
q-30 0 -56.5 11t-46.5 32t-31.5 52.5t-11.5 72.5q0 50 15 89t40.5 65.5t59.5 40t73 13.5q53 0 85 -19zM313 292q0 -37 26.5 -59t60.5 -22q35 0 61 22t26 59q0 38 -26 59.5t-61 21.5q-34 0 -60.5 -21.5t-26.5 -59.5z" />
    <glyph glyph-name="uni2786" unicode="&#x2786;" horiz-adv-x="830" 
d="M415 722q76 0 142.5 -29t116 -79t78 -117t28.5 -143q0 -75 -28.5 -142t-78 -117t-116 -79t-142.5 -29t-142.5 29t-116 79t-78 117t-28.5 142q0 76 28.5 143t78 117t116 79t142.5 29zM415 675q-65 0 -122 -25t-99.5 -68t-67 -102t-24.5 -126t24.5 -125t67 -101.5
t99.5 -68.5t122 -25t122 25t99.5 68.5t67 101.5t24.5 125t-24.5 126t-67 102t-99.5 68t-122 25zM553 489q-24 -19 -50 -46.5t-49.5 -66t-41.5 -88.5t-25 -115h-54q7 68 27 121.5t44 93.5t47 65.5t37 38.5h-220v44h285v-47z" />
    <glyph glyph-name="uni2787" unicode="&#x2787;" horiz-adv-x="830" 
d="M415 722q76 0 142.5 -29t116 -79t78 -117t28.5 -143q0 -75 -28.5 -142t-78 -117t-116 -79t-142.5 -29t-142.5 29t-116 79t-78 117t-28.5 142q0 76 28.5 143t78 117t116 79t142.5 29zM415 675q-65 0 -122 -25t-99.5 -68t-67 -102t-24.5 -126t24.5 -125t67 -101.5
t99.5 -68.5t122 -25t122 25t99.5 68.5t67 101.5t24.5 125t-24.5 126t-67 102t-99.5 68t-122 25zM415 381q34 0 55 16.5t21 43.5q0 26 -20.5 43.5t-55.5 17.5q-36 0 -56 -17.5t-20 -43.5q0 -27 20.5 -43.5t55.5 -16.5zM415 211q41 0 63 18t22 46t-21.5 46.5t-63.5 18.5
t-64 -18.5t-22 -46.5t22.5 -46t63.5 -18zM415 167q-66 0 -102 30t-36 74q0 31 20.5 55t53.5 34q-28 10 -45.5 32t-17.5 51q0 44 35 72t92 28t92 -28t35 -72q0 -29 -17.5 -51t-46.5 -32q34 -10 54 -34t20 -55q0 -44 -35.5 -74t-101.5 -30z" />
    <glyph glyph-name="uni2788" unicode="&#x2788;" horiz-adv-x="830" 
d="M415 722q76 0 142.5 -29t116 -79t78 -117t28.5 -143q0 -75 -28.5 -142t-78 -117t-116 -79t-142.5 -29t-142.5 29t-116 79t-78 117t-28.5 142q0 76 28.5 143t78 117t116 79t142.5 29zM415 675q-65 0 -122 -25t-99.5 -68t-67 -102t-24.5 -126t24.5 -125t67 -101.5
t99.5 -68.5t122 -25t122 25t99.5 68.5t67 101.5t24.5 125t-24.5 126t-67 102t-99.5 68t-122 25zM306 228q15 -8 34.5 -13t38.5 -5q59 0 96 37t39 110q-11 -27 -40 -44t-64 -17q-27 0 -50.5 8.5t-41 24.5t-27.5 39t-10 51q0 27 11 49.5t29.5 39t44 26t54.5 9.5q30 0 56.5 -11
t46 -32t31 -52t11.5 -71q0 -47 -12 -86t-35 -67t-57.5 -43t-79.5 -15q-24 0 -48 6t-40 16zM504 419q0 37 -25.5 58.5t-60.5 21.5t-60 -21.5t-25 -58.5t25 -58.5t60 -21.5t60.5 21.5t25.5 58.5z" />
    <glyph glyph-name="uniE000" unicode="&#xe000;" horiz-adv-x="769" 
d="M33 181h137v528h565v-53h-511v-475h137l-164 -194z" />
    <glyph glyph-name="uniE002" unicode="&#xe002;" horiz-adv-x="955" 
d="M765 546l159 -191h-129q0 -76 -29 -143t-79 -116.5t-117 -78.5t-143 -29t-143 29t-116.5 78.5t-78.5 116.5t-29 143t29 143t78.5 116.5t116.5 78.5t143 29q50 0 95.5 -12.5t85.5 -35.5l-23 -47q-35 20 -74.5 31t-83.5 11q-65 0 -122 -24.5t-99.5 -67.5t-67 -100
t-24.5 -122t24.5 -122.5t67 -100.5t99.5 -67.5t122 -24.5t122.5 24.5t100 67.5t67 100.5t24.5 122.5h-135z" />
    <glyph glyph-name="commaaccent" unicode="&#xf6c3;" horiz-adv-x="189" 
d="M47 649q0 19 13.5 30.5t32.5 11.5q18 0 34.5 -13.5t16.5 -45.5q0 -26 -8.5 -45t-22.5 -32.5t-31.5 -21t-36.5 -8.5v30q26 2 43.5 18.5t19.5 39.5q-6 -6 -19 -6q-18 0 -30 11t-12 31z" />
    <glyph glyph-name="uniFB00" unicode="&#xfb00;" horiz-adv-x="624" 
 />
    <glyph glyph-name="fi" unicode="&#xfb01;" horiz-adv-x="555" 
 />
    <glyph glyph-name="fl" unicode="&#xfb02;" horiz-adv-x="555" 
 />
    <glyph glyph-name="uniFB03" unicode="&#xfb03;" horiz-adv-x="853" 
 />
    <glyph glyph-name="uniFB04" unicode="&#xfb04;" horiz-adv-x="853" 
 />
    <glyph glyph-name="uniFEFF" unicode="&#xfeff;" horiz-adv-x="0" 
 />
    <glyph glyph-name="florin.ss09" horiz-adv-x="393" 
d="M151 423h-117v54h128l23 113q14 72 57.5 105.5t96.5 33.5q23 0 38 -2.5t26 -6.5v-54q-8 2 -21.5 4.5t-30.5 2.5q-35 0 -65 -21.5t-43 -81.5l-19 -93h133v-54h-143l-86 -432q-14 -72 -57.5 -105.5t-96.5 -33.5q-22 0 -38 2.5t-27 6.5v54q7 -2 20 -4.5t33 -2.5q17 0 33.5 5
t31 16.5t25.5 31.5t17 50z" />
    <glyph glyph-name="daggerdbl.ss09" horiz-adv-x="426" 
d="M187 212v285h-136v51h136v161h53v-161h135v-51h-135v-285h135v-51h-135v-161h-53v161h-136v51h136z" />
    <glyph glyph-name="i.latn_TRK" horiz-adv-x="220" 
d="M80 0v477h60v-477h-60zM60 675q0 22 14.5 36t35.5 14t35.5 -14t14.5 -36t-14.5 -36t-35.5 -14t-35.5 14t-14.5 36z" />
    <glyph glyph-name="Ldot.latn_CAT" horiz-adv-x="549" 
d="M299 373q0 22 15 37.5t37 15.5q23 0 38 -15.5t15 -37.5t-15 -37t-38 -15q-22 0 -37 15t-15 37zM101 0v709h64v-651h358v-58h-422z" />
    <glyph glyph-name="ldot.latn_CAT" horiz-adv-x="277" 
d="M80 0v722h60v-722h-60zM197 325q0 20 13.5 33.5t33.5 13.5t33.5 -13.5t13.5 -33.5t-13.5 -33.5t-33.5 -13.5t-33.5 13.5t-13.5 33.5z" />
    <glyph glyph-name="zero.dnom" horiz-adv-x="380" 
d="M94 181q0 -26 4 -51.5t15 -46t29.5 -33.5t47.5 -13t47.5 13t29.5 33.5t15 46t4 51.5q0 25 -4 50.5t-15 46t-29.5 33.5t-47.5 13t-47.5 -13t-29.5 -33.5t-15 -46t-4 -50.5zM42 181q0 35 8 70t28 64q17 23 44 38.5t68 15.5q42 0 68.5 -15.5t43.5 -38.5q21 -29 28.5 -64
t7.5 -70t-7.5 -70.5t-28.5 -63.5q-17 -23 -43.5 -38.5t-68.5 -15.5q-41 0 -68 15.5t-44 38.5q-20 28 -28 63.5t-8 70.5z" />
    <glyph glyph-name="one.dnom" horiz-adv-x="218" 
d="M114 0v286q-13 -14 -36 -24.5t-51 -12.5v39q38 5 61 26.5t28 48.5h49v-363h-51z" />
    <glyph glyph-name="two.dnom" horiz-adv-x="340" 
d="M44 231q-1 5 -1.5 12t-0.5 12q0 23 9 44t25.5 36.5t40 24.5t53.5 9q58 0 91.5 -32.5t33.5 -77.5q0 -35 -20 -61.5t-52 -46.5l-74 -46q-17 -11 -30 -26t-16 -35h196v-44h-258v5q0 40 18 74.5t60 60.5l69 42q24 15 39.5 34.5t15.5 43.5q0 26 -19.5 46t-54.5 20
q-34 0 -55.5 -20t-21.5 -55q0 -4 0.5 -10.5t1.5 -12.5z" />
    <glyph glyph-name="three.dnom" horiz-adv-x="356" 
d="M126 215l114 104h-195v44h262v-42l-116 -104q2 0 4.5 0.5t4.5 0.5q22 -1 43 -8t37 -20t25.5 -33t9.5 -46q0 -24 -10 -45.5t-28 -37.5t-43.5 -25.5t-56.5 -9.5q-61 0 -98.5 30.5t-43.5 75.5l46 17q3 -37 31 -58.5t64 -21.5q38 0 62.5 21.5t24.5 53.5q0 35 -25 52.5
t-58 17.5q-17 0 -32 -5z" />
    <glyph glyph-name="four.dnom" horiz-adv-x="368" 
d="M28 133l180 230h61v-236h71v-45h-71v-82h-51v82h-190v51zM218 306l-140 -179h140v179z" />
    <glyph glyph-name="five.dnom" horiz-adv-x="342" 
d="M76 112q5 -32 30 -53.5t60 -21.5q38 0 62 22.5t24 57.5q0 36 -24 57.5t-61 21.5q-46 0 -78 -34l-45 16l49 185h196v-44h-162l-30 -113q17 17 39 24t44 7q56 0 90 -32.5t34 -86.5q0 -26 -9.5 -48.5t-27.5 -39.5t-43.5 -27t-57.5 -10q-27 0 -50 8t-41 22t-29.5 31.5
t-14.5 37.5z" />
    <glyph glyph-name="six.dnom" horiz-adv-x="364" 
d="M301 310q-29 16 -69 16q-32 0 -57 -11t-43 -30.5t-28 -45.5t-12 -57q11 25 40.5 42.5t65.5 17.5q56 0 92.5 -33.5t36.5 -90.5q0 -28 -11 -51t-30 -39.5t-44.5 -25.5t-54.5 -9q-30 0 -56.5 11t-46.5 32t-31.5 52.5t-11.5 72.5q0 50 15 89t40.5 65.5t59.5 40t73 13.5
q53 0 85 -19zM101 118q0 -37 26.5 -59t60.5 -22q35 0 61 22t26 59q0 38 -26 59.5t-61 21.5q-34 0 -60.5 -21.5t-26.5 -59.5z" />
    <glyph glyph-name="seven.dnom" horiz-adv-x="330" 
d="M310 316q-24 -19 -50 -46.5t-49.5 -66t-41.5 -88.5t-25 -115h-54q7 68 27 121.5t44 93.5t47 65.5t37 38.5h-220v44h285v-47z" />
    <glyph glyph-name="eight.dnom" horiz-adv-x="357" 
d="M179 207q34 0 55 16.5t21 43.5q0 26 -20.5 43.5t-55.5 17.5q-36 0 -56 -17.5t-20 -43.5q0 -27 20.5 -43.5t55.5 -16.5zM179 37q41 0 63 18t22 46t-21.5 46.5t-63.5 18.5t-64 -18.5t-22 -46.5t22.5 -46t63.5 -18zM179 -7q-66 0 -102 30t-36 74q0 31 20.5 55t53.5 34
q-28 10 -45.5 32t-17.5 51q0 44 35 72t92 28t92 -28t35 -72q0 -29 -17.5 -51t-46.5 -32q34 -10 54 -34t20 -55q0 -44 -35.5 -74t-101.5 -30z" />
    <glyph glyph-name="nine.dnom" horiz-adv-x="362" 
d="M62 55q15 -8 34.5 -13t38.5 -5q59 0 96 37t39 110q-11 -27 -40 -44t-64 -17q-27 0 -50.5 8.5t-41 24.5t-27.5 39t-10 51q0 27 11 49.5t29.5 39t44 26t54.5 9.5q30 0 56.5 -11t46 -32t31 -52t11.5 -71q0 -47 -12 -86t-35 -67t-57.5 -43t-79.5 -15q-24 0 -48 6t-40 16z
M260 246q0 37 -25.5 58.5t-60.5 21.5t-60 -21.5t-25 -58.5t25 -58.5t60 -21.5t60.5 21.5t25.5 58.5z" />
    <glyph glyph-name="space.frac" horiz-adv-x="51" 
 />
    <glyph glyph-name="space.tf" 
 />
    <glyph glyph-name="comma.tf" 
d="M227 48q0 20 15.5 35t38.5 15t41 -18t18 -53q0 -38 -10.5 -67.5t-27 -51.5t-38 -36t-43.5 -19v37q34 11 54 43.5t21 67.5q-5 -5 -19 -5q-21 0 -35.5 14.5t-14.5 37.5z" />
    <glyph glyph-name="period.tf" 
d="M230 48q0 22 15 37.5t37 15.5q23 0 38 -15.5t15 -37.5t-15 -37t-38 -15q-22 0 -37 15t-15 37z" />
    <glyph glyph-name="colon.tf" 
d="M230 428q0 22 15 37.5t37 15.5q23 0 38 -15.5t15 -37.5t-15 -37t-38 -15q-22 0 -37 15t-15 37zM230 48q0 22 15 37.5t37 15.5q23 0 38 -15.5t15 -37.5t-15 -37t-38 -15q-22 0 -37 15t-15 37z" />
    <glyph glyph-name="semicolon.tf" 
d="M228 428q0 22 15 37.5t37 15.5q23 0 38 -15.5t15 -37.5t-15 -37t-38 -15q-22 0 -37 15t-15 37zM229 48q0 20 15.5 35t38.5 15t41 -18t18 -53q0 -38 -10.5 -67.5t-27 -51.5t-38 -36t-43.5 -19v37q34 11 54 43.5t21 67.5q-5 -5 -19 -5q-21 0 -35.5 14.5t-14.5 37.5z" />
    <glyph glyph-name="section.tf" 
d="M101 284q0 22 7 42t19 36t28 28t33 19q-44 27 -66.5 63t-22.5 83q0 38 15 68.5t40.5 52.5t58.5 34t70 12q43 0 77 -13.5t58 -37t37 -56t14 -71.5l-58 -13q-1 64 -34.5 102t-94.5 38q-25 0 -47 -8t-39.5 -22t-27.5 -34.5t-10 -46.5q0 -38 20.5 -63.5t55.5 -44.5l105 -57
q27 -14 49.5 -28.5t39.5 -33t26.5 -41t9.5 -51.5q0 -45 -26.5 -77t-63.5 -48q94 -55 94 -146q0 -37 -15 -68t-41 -53t-60 -34t-72 -12q-43 0 -77 13t-58.5 37t-37.5 56.5t-14 72.5l56 12q2 -62 36.5 -101t96.5 -39q54 0 90 30t36 80q0 39 -20 65t-57 46l-105 56
q-27 14 -50.5 29t-40 33t-25.5 40t-9 51zM335 138q28 10 49 35t21 59q0 35 -19.5 59t-57.5 44l-99 52q-28 -11 -48.5 -36t-20.5 -58q0 -34 19.5 -57.5t57.5 -43.5z" />
    <glyph glyph-name="florin.tf" 
d="M238 423h-117v54h128l23 113q14 72 57.5 105.5t96.5 33.5q23 0 38 -2.5t26 -6.5v-54q-8 2 -21.5 4.5t-30.5 2.5q-35 0 -65 -21.5t-43 -81.5l-19 -93h133v-54h-143l-86 -432q-14 -72 -57.5 -105.5t-96.5 -33.5q-22 0 -38 2.5t-27 6.5v54q7 -2 20 -4.5t33 -2.5q17 0 33.5 5
t31 16.5t25.5 31.5t17 50z" />
    <glyph glyph-name="uni2007.tf" 
 />
    <glyph glyph-name="uni2008.tf" 
 />
    <glyph glyph-name="parenleft.case" horiz-adv-x="299" 
d="M54 352q0 70 13.5 132.5t37.5 117.5t57 102t71 87l36 -32q-76 -83 -119.5 -182t-43.5 -225q0 -64 11.5 -120t32.5 -106t51 -94.5t68 -86.5l-36 -32q-38 40 -71 87t-57 101.5t-37.5 117t-13.5 133.5z" />
    <glyph glyph-name="parenright.case" horiz-adv-x="300" 
d="M245 352q0 -71 -13.5 -133.5t-37.5 -117t-57 -101.5t-71 -87l-36 32q38 42 68 86.5t51 94.5t32 106t11 120q0 126 -43 225t-119 182l36 32q38 -40 71 -87t57 -102t37.5 -117.5t13.5 -132.5z" />
    <glyph glyph-name="hyphen.case" horiz-adv-x="407" 
d="M72 310v54h263v-54h-263z" />
    <glyph glyph-name="bracketleft.case" horiz-adv-x="276" 
d="M79 -62v856h154v-50h-100v-757h100v-49h-154z" />
    <glyph glyph-name="bracketright.case" horiz-adv-x="276" 
d="M43 -62v49h100v757h-100v50h154v-856h-154z" />
    <glyph glyph-name="braceleft.case" horiz-adv-x="335" 
d="M31 393q22 2 41.5 9.5t34.5 21t23.5 32.5t8.5 45v137q0 155 147 155h9v-48h-9q-54 0 -74.5 -24.5t-20.5 -78.5v-154q0 -49 -27.5 -80.5t-73.5 -42.5q46 -10 73.5 -42t27.5 -81v-153q0 -53 20.5 -77.5t74.5 -24.5h9v-49h-9q-147 0 -147 155v137q0 25 -8.5 44.5t-23.5 32.5
t-34.5 20.5t-41.5 9.5v56z" />
    <glyph glyph-name="braceright.case" horiz-adv-x="335" 
d="M304 337q-22 -2 -41.5 -9.5t-34.5 -20.5t-23.5 -32.5t-8.5 -44.5v-137q0 -155 -147 -155h-9v49h9q54 0 74.5 24.5t20.5 77.5v153q0 49 27.5 81t73.5 42q-46 11 -73.5 42.5t-27.5 80.5v154q0 54 -20.5 78.5t-74.5 24.5h-9v48h9q147 0 147 -155v-137q0 -26 8.5 -45
t23.5 -32.5t34.5 -21t41.5 -9.5v-56z" />
    <glyph glyph-name="exclamdown.case" horiz-adv-x="237" 
d="M97 520h41l18 -520h-76zM120 713q21 0 35.5 -14.5t14.5 -34.5q0 -21 -14.5 -35.5t-35.5 -14.5t-35.5 14.5t-14.5 35.5q0 20 14.5 34.5t35.5 14.5z" />
    <glyph glyph-name="guillemotleft.case" horiz-adv-x="480" 
d="M188 147l-133 191l133 191h60l-132 -191l132 -191h-60zM354 147l-133 191l133 191h60l-132 -191l132 -191h-60z" />
    <glyph glyph-name="uni00AD.case" horiz-adv-x="399" 
d="M68 317v53h263v-53h-263z" />
    <glyph glyph-name="guillemotright.case" horiz-adv-x="480" 
d="M232 147l132 191l-132 191h60l133 -191l-133 -191h-60zM66 147l133 191l-133 191h60l133 -191l-133 -191h-60z" />
    <glyph glyph-name="questiondown.case" horiz-adv-x="487" 
d="M282 520q2 -8 2.5 -17.5t0.5 -20.5q0 -47 -17 -82.5t-55 -64.5l-44 -34q-32 -24 -50.5 -55t-18.5 -68q0 -27 9 -51t27 -43t44 -30t61 -11q38 0 66 12.5t46 33t27 47t9 54.5q0 25 -8 54l61 -9q8 -23 8 -51q0 -35 -12.5 -70.5t-38.5 -63.5t-65 -45.5t-93 -17.5
q-48 0 -86 16t-64.5 42.5t-40 61t-13.5 70.5q0 55 27.5 97t72.5 75l45 33q28 20 37.5 48.5t9.5 57.5q0 9 -0.5 17t-1.5 15h55zM254 713q21 0 35.5 -14.5t14.5 -34.5q0 -21 -14.5 -35.5t-35.5 -14.5t-35.5 14.5t-14.5 35.5q0 20 14.5 34.5t35.5 14.5z" />
    <glyph glyph-name="endash.case" horiz-adv-x="644" 
d="M72 310v54h500v-54h-500z" />
    <glyph glyph-name="emdash.case" horiz-adv-x="1063" 
d="M72 310v54h919v-54h-919z" />
    <glyph glyph-name="guilsinglleft.case" horiz-adv-x="314" 
d="M188 147l-133 191l133 191h60l-132 -191l132 -191h-60z" />
    <glyph glyph-name="guilsinglright.case" horiz-adv-x="314" 
d="M66 147l132 191l-132 191h60l133 -191l-133 -191h-60z" />
    <glyph glyph-name="G.ss01" horiz-adv-x="765" 
d="M401 -13q-66 0 -128.5 24.5t-111.5 71.5t-79 115.5t-30 156.5t30 156t79 115t111.5 71.5t127.5 24.5q57 0 107 -15.5t89.5 -44.5t68 -69.5t42.5 -89.5l-58 -21q-26 87 -90.5 134.5t-158.5 47.5q-54 0 -105.5 -20t-91 -59t-63.5 -96.5t-24 -133.5t24 -134t63.5 -97
t91 -59.5t106.5 -20.5q54 0 98 17t76.5 46.5t53 69.5t26.5 87h-297v56h362v-22q-4 -66 -28 -123t-65 -98.5t-98.5 -65.5t-127.5 -24z" />
    <glyph glyph-name="Gcircumflex.ss01" horiz-adv-x="765" 
d="M401 -13q-66 0 -128.5 24.5t-111.5 71.5t-79 115.5t-30 156.5t30 156t79 115t111.5 71.5t127.5 24.5q57 0 107 -15.5t89.5 -44.5t68 -69.5t42.5 -89.5l-58 -21q-26 87 -90.5 134.5t-158.5 47.5q-54 0 -105.5 -20t-91 -59t-63.5 -96.5t-24 -133.5t24 -134t63.5 -97
t91 -59.5t106.5 -20.5q54 0 98 17t76.5 46.5t53 69.5t26.5 87h-297v56h362v-22q-4 -66 -28 -123t-65 -98.5t-98.5 -65.5t-127.5 -24zM246 759l115 119h82l116 -119h-59l-98 84l-97 -84h-59z" />
    <glyph glyph-name="Gbreve.ss01" horiz-adv-x="765" 
d="M401 -13q-66 0 -128.5 24.5t-111.5 71.5t-79 115.5t-30 156.5t30 156t79 115t111.5 71.5t127.5 24.5q57 0 107 -15.5t89.5 -44.5t68 -69.5t42.5 -89.5l-58 -21q-26 87 -90.5 134.5t-158.5 47.5q-54 0 -105.5 -20t-91 -59t-63.5 -96.5t-24 -133.5t24 -134t63.5 -97
t91 -59.5t106.5 -20.5q54 0 98 17t76.5 46.5t53 69.5t26.5 87h-297v56h362v-22q-4 -66 -28 -123t-65 -98.5t-98.5 -65.5t-127.5 -24zM401 754q-34 0 -60 10.5t-44.5 28.5t-28.5 40.5t-12 46.5h52q1 -14 7.5 -28t17.5 -25t28 -18t40 -7t39.5 7t28 18t17.5 25t7 28h52
q-2 -24 -12 -46.5t-28 -40.5t-44 -28.5t-60 -10.5z" />
    <glyph glyph-name="Gdotaccent.ss01" horiz-adv-x="765" 
d="M401 -13q-66 0 -128.5 24.5t-111.5 71.5t-79 115.5t-30 156.5t30 156t79 115t111.5 71.5t127.5 24.5q57 0 107 -15.5t89.5 -44.5t68 -69.5t42.5 -89.5l-58 -21q-26 87 -90.5 134.5t-158.5 47.5q-54 0 -105.5 -20t-91 -59t-63.5 -96.5t-24 -133.5t24 -134t63.5 -97
t91 -59.5t106.5 -20.5q54 0 98 17t76.5 46.5t53 69.5t26.5 87h-297v56h362v-22q-4 -66 -28 -123t-65 -98.5t-98.5 -65.5t-127.5 -24zM354 818q0 20 13.5 33.5t33.5 13.5t33.5 -13.5t13.5 -33.5t-13.5 -33.5t-33.5 -13.5t-33.5 13.5t-13.5 33.5z" />
    <glyph glyph-name="Gcommaaccent.ss01" horiz-adv-x="765" 
d="M401 -13q-66 0 -128.5 24.5t-111.5 71.5t-79 115.5t-30 156.5t30 156t79 115t111.5 71.5t127.5 24.5q57 0 107 -15.5t89.5 -44.5t68 -69.5t42.5 -89.5l-58 -21q-26 87 -90.5 134.5t-158.5 47.5q-54 0 -105.5 -20t-91 -59t-63.5 -96.5t-24 -133.5t24 -134t63.5 -97
t91 -59.5t106.5 -20.5q54 0 98 17t76.5 46.5t53 69.5t26.5 87h-297v56h362v-22q-4 -66 -28 -123t-65 -98.5t-98.5 -65.5t-127.5 -24zM361 -84q0 19 13.5 30.5t32.5 11.5q18 0 34.5 -13.5t16.5 -45.5q0 -26 -8.5 -45t-22.5 -32.5t-31.5 -21t-36.5 -8.5v30q26 2 43.5 18.5
t19.5 39.5q-6 -6 -19 -6q-18 0 -30 11t-12 31z" />
    <glyph glyph-name="a.ss02" horiz-adv-x="574" 
d="M108 240q0 -42 11.5 -78.5t32.5 -63t51.5 -42t68.5 -15.5q37 0 67 15t51 42t32.5 63.5t11.5 78.5t-11.5 78t-32.5 62t-50.5 41t-66.5 15q-38 0 -68 -14.5t-52 -40.5t-33.5 -62t-11.5 -79zM434 94q-8 -18 -22 -37t-34.5 -34.5t-48 -25t-62.5 -9.5q-50 0 -91 19.5
t-69.5 53.5t-44 80t-15.5 99q0 52 16 97.5t44.5 79.5t69 53t90.5 19q38 0 66.5 -10t48.5 -25.5t32.5 -33.5t18.5 -33v90h60v-386q0 -37 2 -62t3 -29h-59q-2 9 -3.5 29t-1.5 46v19z" />
    <glyph glyph-name="agrave.ss02" horiz-adv-x="574" 
d="M108 240q0 -42 11.5 -78.5t32.5 -63t51.5 -42t68.5 -15.5q37 0 67 15t51 42t32.5 63.5t11.5 78.5t-11.5 78t-32.5 62t-50.5 41t-66.5 15q-38 0 -68 -14.5t-52 -40.5t-33.5 -62t-11.5 -79zM434 94q-8 -18 -22 -37t-34.5 -34.5t-48 -25t-62.5 -9.5q-50 0 -91 19.5
t-69.5 53.5t-44 80t-15.5 99q0 52 16 97.5t44.5 79.5t69 53t90.5 19q38 0 66.5 -10t48.5 -25.5t32.5 -33.5t18.5 -33v90h60v-386q0 -37 2 -62t3 -29h-59q-2 9 -3.5 29t-1.5 46v19zM143 676h76l89 -139h-47z" />
    <glyph glyph-name="aacute.ss02" horiz-adv-x="574" 
d="M285 537h-49l89 139h78zM108 240q0 -42 11.5 -78.5t32.5 -63t51.5 -42t68.5 -15.5q37 0 67 15t51 42t32.5 63.5t11.5 78.5t-11.5 78t-32.5 62t-50.5 41t-66.5 15q-38 0 -68 -14.5t-52 -40.5t-33.5 -62t-11.5 -79zM434 94q-8 -18 -22 -37t-34.5 -34.5t-48 -25t-62.5 -9.5
q-50 0 -91 19.5t-69.5 53.5t-44 80t-15.5 99q0 52 16 97.5t44.5 79.5t69 53t90.5 19q38 0 66.5 -10t48.5 -25.5t32.5 -33.5t18.5 -33v90h60v-386q0 -37 2 -62t3 -29h-59q-2 9 -3.5 29t-1.5 46v19z" />
    <glyph glyph-name="acircumflex.ss02" horiz-adv-x="574" 
d="M133 538l110 137h72l110 -137h-54l-92 99l-92 -99h-54zM108 240q0 -42 11.5 -78.5t32.5 -63t51.5 -42t68.5 -15.5q37 0 67 15t51 42t32.5 63.5t11.5 78.5t-11.5 78t-32.5 62t-50.5 41t-66.5 15q-38 0 -68 -14.5t-52 -40.5t-33.5 -62t-11.5 -79zM434 94q-8 -18 -22 -37
t-34.5 -34.5t-48 -25t-62.5 -9.5q-50 0 -91 19.5t-69.5 53.5t-44 80t-15.5 99q0 52 16 97.5t44.5 79.5t69 53t90.5 19q38 0 66.5 -10t48.5 -25.5t32.5 -33.5t18.5 -33v90h60v-386q0 -37 2 -62t3 -29h-59q-2 9 -3.5 29t-1.5 46v19z" />
    <glyph glyph-name="atilde.ss02" horiz-adv-x="574" 
d="M108 240q0 -42 11.5 -78.5t32.5 -63t51.5 -42t68.5 -15.5q37 0 67 15t51 42t32.5 63.5t11.5 78.5t-11.5 78t-32.5 62t-50.5 41t-66.5 15q-38 0 -68 -14.5t-52 -40.5t-33.5 -62t-11.5 -79zM434 94q-8 -18 -22 -37t-34.5 -34.5t-48 -25t-62.5 -9.5q-50 0 -91 19.5
t-69.5 53.5t-44 80t-15.5 99q0 52 16 97.5t44.5 79.5t69 53t90.5 19q38 0 66.5 -10t48.5 -25.5t32.5 -33.5t18.5 -33v90h60v-386q0 -37 2 -62t3 -29h-59q-2 9 -3.5 29t-1.5 46v19zM428 648q0 -48 -24.5 -72.5t-58.5 -24.5q-20 0 -35.5 6.5t-29.5 16.5l-21 15q-12 8 -23.5 14
t-25.5 6q-38 0 -38 -55h-47v12q0 46 24.5 70.5t60.5 24.5q21 0 38.5 -8t32.5 -19l18 -13q11 -8 21 -13t23 -5q38 0 38 56h47v-11z" />
    <glyph glyph-name="adieresis.ss02" horiz-adv-x="574" 
d="M328 611q0 17 12.5 29.5t29.5 12.5t29.5 -12.5t12.5 -29.5t-12.5 -29.5t-29.5 -12.5t-29.5 12.5t-12.5 29.5zM152 611q0 17 12.5 29.5t29.5 12.5t29.5 -12.5t12.5 -29.5t-12.5 -29.5t-29.5 -12.5t-29.5 12.5t-12.5 29.5zM108 240q0 -42 11.5 -78.5t32.5 -63t51.5 -42
t68.5 -15.5q37 0 67 15t51 42t32.5 63.5t11.5 78.5t-11.5 78t-32.5 62t-50.5 41t-66.5 15q-38 0 -68 -14.5t-52 -40.5t-33.5 -62t-11.5 -79zM434 94q-8 -18 -22 -37t-34.5 -34.5t-48 -25t-62.5 -9.5q-50 0 -91 19.5t-69.5 53.5t-44 80t-15.5 99q0 52 16 97.5t44.5 79.5
t69 53t90.5 19q38 0 66.5 -10t48.5 -25.5t32.5 -33.5t18.5 -33v90h60v-386q0 -37 2 -62t3 -29h-59q-2 9 -3.5 29t-1.5 46v19z" />
    <glyph glyph-name="aring.ss02" horiz-adv-x="574" 
d="M380 635q0 -22 -8.5 -41t-22.5 -33.5t-33 -22.5t-41 -8q-21 0 -40.5 8t-33.5 22.5t-22.5 33.5t-8.5 41t8.5 41t22.5 33t33.5 22.5t40.5 8.5q22 0 41 -8.5t33 -22.5t22.5 -33t8.5 -41zM336 635q0 26 -17.5 44.5t-43.5 18.5t-43.5 -18.5t-17.5 -44.5t17.5 -44.5t43.5 -18.5
t43.5 18.5t17.5 44.5zM108 240q0 -42 11.5 -78.5t32.5 -63t51.5 -42t68.5 -15.5q37 0 67 15t51 42t32.5 63.5t11.5 78.5t-11.5 78t-32.5 62t-50.5 41t-66.5 15q-38 0 -68 -14.5t-52 -40.5t-33.5 -62t-11.5 -79zM434 94q-8 -18 -22 -37t-34.5 -34.5t-48 -25t-62.5 -9.5
q-50 0 -91 19.5t-69.5 53.5t-44 80t-15.5 99q0 52 16 97.5t44.5 79.5t69 53t90.5 19q38 0 66.5 -10t48.5 -25.5t32.5 -33.5t18.5 -33v90h60v-386q0 -37 2 -62t3 -29h-59q-2 9 -3.5 29t-1.5 46v19z" />
    <glyph glyph-name="amacron.ss02" horiz-adv-x="574" 
d="M108 240q0 -42 11.5 -78.5t32.5 -63t51.5 -42t68.5 -15.5q37 0 67 15t51 42t32.5 63.5t11.5 78.5t-11.5 78t-32.5 62t-50.5 41t-66.5 15q-38 0 -68 -14.5t-52 -40.5t-33.5 -62t-11.5 -79zM434 94q-8 -18 -22 -37t-34.5 -34.5t-48 -25t-62.5 -9.5q-50 0 -91 19.5
t-69.5 53.5t-44 80t-15.5 99q0 52 16 97.5t44.5 79.5t69 53t90.5 19q38 0 66.5 -10t48.5 -25.5t32.5 -33.5t18.5 -33v90h60v-386q0 -37 2 -62t3 -29h-59q-2 9 -3.5 29t-1.5 46v19zM143 583v50h254v-50h-254z" />
    <glyph glyph-name="abreve.ss02" horiz-adv-x="574" 
d="M108 240q0 -42 11.5 -78.5t32.5 -63t51.5 -42t68.5 -15.5q37 0 67 15t51 42t32.5 63.5t11.5 78.5t-11.5 78t-32.5 62t-50.5 41t-66.5 15q-38 0 -68 -14.5t-52 -40.5t-33.5 -62t-11.5 -79zM434 94q-8 -18 -22 -37t-34.5 -34.5t-48 -25t-62.5 -9.5q-50 0 -91 19.5
t-69.5 53.5t-44 80t-15.5 99q0 52 16 97.5t44.5 79.5t69 53t90.5 19q38 0 66.5 -10t48.5 -25.5t32.5 -33.5t18.5 -33v90h60v-386q0 -37 2 -62t3 -29h-59q-2 9 -3.5 29t-1.5 46v19zM274 538q-34 0 -60 12t-43.5 31.5t-27 44t-9.5 50.5h47q1 -16 6.5 -32t17 -28.5t28.5 -20.5
t41 -8t41 8t28.5 20.5t17 28.5t6.5 32h47q0 -26 -9.5 -50.5t-27 -44t-43.5 -31.5t-60 -12z" />
    <glyph glyph-name="aogonek.ss02" horiz-adv-x="574" 
d="M364 -117q0 42 23 71t51 47q-2 9 -3 29t-1 45v19q-8 -18 -22 -37t-34.5 -34.5t-48 -25t-62.5 -9.5q-50 0 -91 19.5t-69.5 53.5t-44 80t-15.5 99q0 52 16 97.5t44.5 79.5t69 53t90.5 19q38 0 66.5 -10t48.5 -25.5t32.5 -33.5t18.5 -33v90h60v-386q0 -37 2 -62t3 -29
q-14 -7 -28.5 -17.5t-26.5 -24t-20 -29.5t-8 -35q0 -29 18.5 -43t44.5 -14q19 0 34 5v-44q-9 -4 -19.5 -6t-25.5 -2q-43 0 -73 24t-30 69zM108 240q0 -42 11.5 -78.5t32.5 -63t51.5 -42t68.5 -15.5q37 0 67 15t51 42t32.5 63.5t11.5 78.5t-11.5 78t-32.5 62t-50.5 41
t-66.5 15q-38 0 -68 -14.5t-52 -40.5t-33.5 -62t-11.5 -79z" />
    <glyph glyph-name="aringacute.ss02" horiz-adv-x="574" 
d="M298 769h-49l89 139h78zM378 631q0 -22 -8.5 -41t-22.5 -33.5t-33 -22.5t-41 -8q-21 0 -40.5 8t-33.5 22.5t-22.5 33.5t-8.5 41t8.5 41t22.5 33t33.5 22.5t40.5 8.5q22 0 41 -8.5t33 -22.5t22.5 -33t8.5 -41zM334 631q0 26 -17.5 44.5t-43.5 18.5t-43.5 -18.5
t-17.5 -44.5t17.5 -44.5t43.5 -18.5t43.5 18.5t17.5 44.5zM108 240q0 -42 11.5 -78.5t32.5 -63t51.5 -42t68.5 -15.5q37 0 67 15t51 42t32.5 63.5t11.5 78.5t-11.5 78t-32.5 62t-50.5 41t-66.5 15q-38 0 -68 -14.5t-52 -40.5t-33.5 -62t-11.5 -79zM434 94q-8 -18 -22 -37
t-34.5 -34.5t-48 -25t-62.5 -9.5q-50 0 -91 19.5t-69.5 53.5t-44 80t-15.5 99q0 52 16 97.5t44.5 79.5t69 53t90.5 19q38 0 66.5 -10t48.5 -25.5t32.5 -33.5t18.5 -33v90h60v-386q0 -37 2 -62t3 -29h-59q-2 9 -3.5 29t-1.5 46v19z" />
    <glyph glyph-name="r.ss03" horiz-adv-x="260" 
d="M80 0v477h60v-38q2 20 16 32t34 12q21 0 35.5 -14t14.5 -36t-14.5 -36t-35.5 -14q-20 0 -34 11.5t-16 31.5v-426h-60z" />
    <glyph glyph-name="racute.ss03" horiz-adv-x="260" 
d="M80 0v477h60v-38q2 20 16 32t34 12q21 0 35.5 -14t14.5 -36t-14.5 -36t-35.5 -14q-20 0 -34 11.5t-16 31.5v-426h-60zM149 537h-49l89 139h78z" />
    <glyph glyph-name="rcommaaccent.ss03" horiz-adv-x="260" 
d="M80 0v477h60v-38q2 20 16 32t34 12q21 0 35.5 -14t14.5 -36t-14.5 -36t-35.5 -14q-20 0 -34 11.5t-16 31.5v-426h-60zM62 -84q0 19 13.5 30.5t32.5 11.5q18 0 34.5 -13.5t16.5 -45.5q0 -26 -8.5 -45t-22.5 -32.5t-31.5 -21t-36.5 -8.5v30q26 2 43.5 18.5t19.5 39.5
q-6 -6 -19 -6q-18 0 -30 11t-12 31z" />
    <glyph glyph-name="rcaron.ss03" horiz-adv-x="260" 
d="M80 0v477h60v-38q2 20 16 32t34 12q21 0 35.5 -14t14.5 -36t-14.5 -36t-35.5 -14q-20 0 -34 11.5t-16 31.5v-426h-60zM67 675l92 -99l92 99h54l-110 -137h-72l-110 137h54z" />
    <glyph glyph-name="ampersand.ss04" horiz-adv-x="663" 
d="M378 316h253v-58h-84v-26q0 -52 -18 -96.5t-50.5 -77.5t-78.5 -52t-102 -19q-53 0 -98 15.5t-77.5 43.5t-50.5 66t-18 82q0 70 42 120.5t109 70.5q-56 17 -86.5 59t-30.5 99q0 36 15.5 68.5t42 57t62 39t76.5 14.5q52 0 91 -14t66 -39t42 -59.5t20 -74.5l-61 -12
q-7 67 -44.5 105.5t-109.5 38.5q-28 0 -53 -9.5t-44 -26.5t-30 -40t-11 -50q0 -56 39.5 -90.5t108.5 -36.5v-56q-37 -1 -70 -12t-57.5 -31.5t-39 -50t-14.5 -67.5q0 -32 13 -60t36.5 -49t57 -33t74.5 -12t75.5 14t59 39t38.5 60t14 76v26h-107v58z" />
    <glyph glyph-name="registered.ss06" horiz-adv-x="468" 
d="M49 528q0 39 14.5 72.5t39.5 59t58.5 40t72.5 14.5t72.5 -14.5t58.5 -40t39.5 -59t14.5 -72.5t-14.5 -72.5t-39.5 -59t-58.5 -40t-72.5 -14.5t-72.5 14.5t-58.5 40t-39.5 59t-14.5 72.5zM236 532q17 0 26.5 8.5t9.5 24.5q0 14 -9.5 23t-26.5 9h-30v-65h30zM231 502h-25
v-71h-36v196h72q29 0 48 -18t19 -44q0 -20 -11.5 -36t-31.5 -22l42 -76h-40zM234 374q32 0 59.5 12t47.5 32.5t31.5 48.5t11.5 60t-11.5 60t-31.5 49t-47.5 33t-59.5 12t-59.5 -12t-47.5 -33t-31.5 -49t-11.5 -60t11.5 -60t31.5 -48.5t47.5 -32.5t59.5 -12z" />
    <glyph glyph-name="zero.numr" horiz-adv-x="378" 
d="M93 527q0 -26 4 -51.5t15 -46t29.5 -33.5t47.5 -13t47.5 13t29.5 33.5t15 46t4 51.5q0 25 -4 50.5t-15 46t-29.5 33.5t-47.5 13t-47.5 -13t-29.5 -33.5t-15 -46t-4 -50.5zM41 527q0 35 8 70t28 64q17 23 44 38.5t68 15.5q42 0 68.5 -15.5t43.5 -38.5q21 -29 28.5 -64
t7.5 -70t-7.5 -70.5t-28.5 -63.5q-17 -23 -43.5 -38.5t-68.5 -15.5q-41 0 -68 15.5t-44 38.5q-20 28 -28 63.5t-8 70.5z" />
    <glyph glyph-name="one.numr" horiz-adv-x="217" 
d="M114 346v286q-13 -14 -36 -24.5t-51 -12.5v39q38 5 61 26.5t28 48.5h49v-363h-51z" />
    <glyph glyph-name="two.numr" horiz-adv-x="337" 
d="M43 578q-1 5 -1.5 12t-0.5 12q0 23 9 44t25.5 36.5t40 24.5t53.5 9q58 0 91.5 -32.5t33.5 -77.5q0 -35 -20 -61.5t-52 -46.5l-74 -46q-17 -11 -30 -26t-16 -35h196v-44h-258v5q0 40 18 74.5t60 60.5l69 42q24 15 39.5 34.5t15.5 43.5q0 26 -19.5 46t-54.5 20
q-34 0 -55.5 -20t-21.5 -55q0 -4 0.5 -10.5t1.5 -12.5z" />
    <glyph glyph-name="three.numr" horiz-adv-x="355" 
d="M126 561l114 104h-195v44h262v-42l-116 -104q2 0 4.5 0.5t4.5 0.5q22 -1 43 -8t37 -20t25.5 -33t9.5 -46q0 -24 -10 -45.5t-28 -37.5t-43.5 -25.5t-56.5 -9.5q-61 0 -98.5 30.5t-43.5 75.5l46 17q3 -37 31 -58.5t64 -21.5q38 0 62.5 21.5t24.5 53.5q0 35 -25 52.5
t-58 17.5q-17 0 -32 -5z" />
    <glyph glyph-name="four.numr" horiz-adv-x="369" 
d="M28 479l180 230h61v-236h71v-45h-71v-82h-51v82h-190v51zM218 652l-140 -179h140v179z" />
    <glyph glyph-name="five.numr" horiz-adv-x="341" 
d="M76 458q5 -32 30 -53.5t60 -21.5q38 0 62 22.5t24 57.5q0 36 -24 57.5t-61 21.5q-46 0 -78 -34l-45 16l49 185h196v-44h-162l-30 -113q17 17 39 24t44 7q56 0 90 -32.5t34 -86.5q0 -26 -9.5 -48.5t-27.5 -39.5t-43.5 -27t-57.5 -10q-27 0 -50 8t-41 22t-29.5 31.5
t-14.5 37.5z" />
    <glyph glyph-name="six.numr" horiz-adv-x="362" 
d="M300 656q-29 16 -69 16q-32 0 -57 -11t-43 -30.5t-28 -45.5t-12 -57q11 25 40.5 42.5t65.5 17.5q56 0 92.5 -33.5t36.5 -90.5q0 -28 -11 -51t-30 -39.5t-44.5 -25.5t-54.5 -9q-30 0 -56.5 11t-46.5 32t-31.5 52.5t-11.5 72.5q0 50 15 89t40.5 65.5t59.5 40t73 13.5
q53 0 85 -19zM100 464q0 -37 26.5 -59t60.5 -22q35 0 61 22t26 59q0 38 -26 59.5t-61 21.5q-34 0 -60.5 -21.5t-26.5 -59.5z" />
    <glyph glyph-name="seven.numr" horiz-adv-x="329" 
d="M309 662q-24 -19 -50 -46.5t-49.5 -66t-41.5 -88.5t-25 -115h-54q7 68 27 121.5t44 93.5t47 65.5t37 38.5h-220v44h285v-47z" />
    <glyph glyph-name="eight.numr" horiz-adv-x="355" 
d="M178 554q34 0 55 16.5t21 43.5q0 26 -20.5 43.5t-55.5 17.5q-36 0 -56 -17.5t-20 -43.5q0 -27 20.5 -43.5t55.5 -16.5zM178 384q41 0 63 18t22 46t-21.5 46.5t-63.5 18.5t-64 -18.5t-22 -46.5t22.5 -46t63.5 -18zM178 340q-66 0 -102 30t-36 74q0 31 20.5 55t53.5 34
q-28 10 -45.5 32t-17.5 51q0 44 35 72t92 28t92 -28t35 -72q0 -29 -17.5 -51t-46.5 -32q34 -10 54 -34t20 -55q0 -44 -35.5 -74t-101.5 -30z" />
    <glyph glyph-name="nine.numr" horiz-adv-x="360" 
d="M61 401q15 -8 34.5 -13t38.5 -5q59 0 96 37t39 110q-11 -27 -40 -44t-64 -17q-27 0 -50.5 8.5t-41 24.5t-27.5 39t-10 51q0 27 11 49.5t29.5 39t44 26t54.5 9.5q30 0 56.5 -11t46 -32t31 -52t11.5 -71q0 -47 -12 -86t-35 -67t-57.5 -43t-79.5 -15q-24 0 -48 6t-40 16z
M259 592q0 37 -25.5 58.5t-60.5 21.5t-60 -21.5t-25 -58.5t25 -58.5t60 -21.5t60.5 21.5t25.5 58.5z" />
    <glyph glyph-name="a.ordn" horiz-adv-x="370" 
d="M38 463q0 42 27 67t72 31l93 14q18 3 25 11.5t7 19.5q0 30 -21 50.5t-61 20.5q-38 0 -61.5 -21t-28.5 -56l-46 12q5 47 41.5 77.5t93.5 30.5q35 0 60.5 -9.5t41.5 -26t23.5 -38.5t7.5 -46v-169q0 -18 1 -33.5t3 -23.5h-49q-2 8 -3 20.5t-1 32.5q-12 -23 -40.5 -42.5
t-71.5 -19.5q-27 0 -48.5 8t-35.5 21.5t-21.5 31.5t-7.5 37zM158 407q51 0 77.5 31.5t26.5 87.5v23q-3 -4 -16.5 -7t-23.5 -5l-74 -12q-27 -5 -43 -19.5t-16 -40.5q0 -23 17 -40.5t52 -17.5z" />
    <glyph glyph-name="b.ordn" horiz-adv-x="423" 
d="M62 374v509h50v-232q11 24 40.5 46.5t77.5 22.5q37 0 65.5 -13.5t48 -37t30 -56t10.5 -69.5q0 -38 -11 -70.5t-31 -56.5t-49 -38t-65 -14q-46 0 -74.5 22.5t-42.5 49.5v-63h-49zM332 544q0 59 -30 95t-80 36t-80.5 -36.5t-30.5 -94.5q0 -59 30.5 -96.5t80.5 -37.5
t80 37.5t30 96.5z" />
    <glyph glyph-name="c.ordn" horiz-adv-x="387" 
d="M205 674q-48 0 -82 -35t-34 -96q0 -63 34 -97.5t82 -34.5q23 0 41 7t30.5 18.5t21 25t12.5 27.5l44 -18q-6 -20 -18.5 -39t-31 -34t-43.5 -24t-56 -9q-36 0 -66.5 13t-53 37t-35 56.5t-12.5 71.5t12.5 71.5t35 56t53 36.5t66.5 13q31 0 56 -9t43 -23.5t30 -34t18 -40.5
l-45 -19q-4 15 -12 29t-20 25.5t-29.5 18.5t-40.5 7z" />
    <glyph glyph-name="d.ordn" horiz-adv-x="421" 
d="M90 544q0 -29 8 -53.5t22 -42.5t34.5 -28t45.5 -10q51 0 80.5 38t29.5 96q0 57 -29.5 93.5t-80.5 36.5q-50 0 -80 -36t-30 -94zM359 438q0 -17 1 -36t3 -28h-49q-2 8 -3 21t-1 33v8q-6 -12 -15.5 -24.5t-24 -23t-33 -17t-41.5 -6.5q-36 0 -65 14t-49.5 38t-31.5 56.5
t-11 70.5q0 37 11 69t31.5 55.5t49.5 37t64 13.5q26 0 45.5 -6.5t33.5 -16.5t22.5 -21.5t12.5 -21.5v230h50v-445z" />
    <glyph glyph-name="e.ordn" horiz-adv-x="393" 
d="M303 571q0 44 -27 74.5t-78 30.5q-46 0 -74.5 -31t-31.5 -74h211zM354 471q-14 -45 -52.5 -75.5t-96.5 -30.5q-34 0 -64 12t-52.5 35t-36 56.5t-13.5 75.5q0 40 13 72.5t34.5 55.5t50 35.5t60.5 12.5q76 0 117.5 -47.5t41.5 -123.5q0 -6 -0.5 -10t-1.5 -7h-264v-2
q0 -27 9.5 -49.5t25 -38.5t36.5 -24.5t44 -8.5q44 0 69 22.5t36 53.5z" />
    <glyph glyph-name="f.ordn" horiz-adv-x="246" 
d="M139 665v-293h-51v293h-67v45h67v62q0 55 29 83t76 28q25 0 39 -7v-43q-6 2 -13.5 3.5t-18.5 1.5q-23 0 -42 -15t-19 -53v-60h90v-45h-90z" />
    <glyph glyph-name="g.ordn" horiz-adv-x="412" 
d="M87 368q5 -39 32 -66t71 -27q32 0 53 9.5t34 26.5t18 40t5 49v55q-11 -25 -38 -44t-72 -19q-33 0 -61 12t-48 34t-31 52t-11 65q0 34 11 64t31 52t47.5 35t61.5 13q46 0 73 -19.5t38 -45.5v57h49v-310q0 -30 -7 -60.5t-25 -55t-49 -39.5t-78 -15q-32 0 -58 9.5t-46 26.5
t-32.5 40t-15.5 49zM197 435q48 0 77 33.5t29 86.5q0 52 -29 85.5t-77 33.5t-77.5 -33.5t-29.5 -85.5q0 -54 29.5 -87t77.5 -33z" />
    <glyph glyph-name="h.ordn" horiz-adv-x="396" 
d="M112 374h-50v509h50v-221q14 25 41 41.5t64 16.5q30 0 53 -10t38 -27.5t22.5 -40.5t7.5 -50v-218h-51v209q0 38 -20.5 64.5t-65.5 26.5q-41 0 -64 -29t-25 -68v-203z" />
    <glyph glyph-name="i.ordn" horiz-adv-x="174" 
d="M62 374v337h50v-337h-50zM49 846q0 17 10.5 28t27.5 11q16 0 27 -11t11 -28q0 -16 -11 -27t-27 -11q-17 0 -27.5 11t-10.5 27z" />
    <glyph glyph-name="j.ordn" horiz-adv-x="174" 
d="M62 711h50v-380q0 -47 -25 -73.5t-67 -26.5q-14 0 -24.5 2t-15.5 4v43q12 -4 29 -4q53 0 53 58v377zM49 847q0 17 10.5 27.5t27.5 10.5q16 0 27 -10.5t11 -27.5t-11 -27.5t-27 -10.5q-17 0 -27.5 10.5t-10.5 27.5z" />
    <glyph glyph-name="k.ordn" horiz-adv-x="361" 
d="M206 571l147 -197h-63l-119 162l-59 -60v-102h-50v509h50v-339l166 167h69z" />
    <glyph glyph-name="l.ordn" horiz-adv-x="174" 
d="M62 374v509h50v-509h-50z" />
    <glyph glyph-name="m.ordn" horiz-adv-x="612" 
d="M62 650v15t-0.5 19.5t-0.5 17.5v9h47q0 -2 0.5 -8.5t0.5 -14.5t0.5 -16.5t0.5 -14.5q13 26 41 44.5t66 18.5t66 -20t39 -54q15 35 45 54.5t69 19.5q49 0 83.5 -32t34.5 -92v-222h-50v214q0 37 -20.5 62t-62.5 25q-20 0 -36 -8t-27.5 -21t-18 -30.5t-6.5 -36.5v-205h-50
v214q0 37 -20.5 62t-61.5 25q-40 0 -64.5 -28.5t-24.5 -68.5v-204h-50v276z" />
    <glyph glyph-name="n.ordn" horiz-adv-x="396" 
d="M112 374h-50v280q0 6 -0.5 14.5t-0.5 17t-0.5 15.5t-0.5 10h49q0 -4 1 -22t1 -32q14 27 42 45t65 18q30 0 52.5 -10t37.5 -27.5t22.5 -40.5t7.5 -50v-218h-50v210q0 38 -21 64t-66 26q-42 0 -65 -29t-24 -70v-201z" />
    <glyph glyph-name="o.ordn" horiz-adv-x="415" 
d="M207 410q24 0 45 9t37.5 26t26 41.5t9.5 56.5q0 31 -9.5 56t-26 41.5t-37.5 25.5t-45 9t-45 -9t-37.5 -25.5t-26 -41.5t-9.5 -56q0 -32 9.5 -56.5t26 -41.5t37.5 -26t45 -9zM207 720q36 0 66.5 -13t53.5 -36t36 -56t13 -72q0 -40 -13 -72.5t-35.5 -56t-53.5 -36.5
t-67 -13t-66.5 13t-53 36.5t-35.5 56t-13 72.5q0 39 13 72t35.5 56t53 36t66.5 13z" />
    <glyph glyph-name="p.ordn" horiz-adv-x="422" 
d="M62 240v471h49v-63q12 26 41.5 48.5t77.5 22.5q36 0 64.5 -13.5t48 -37.5t30 -56t10.5 -69q0 -38 -11 -70.5t-31 -56.5t-48.5 -37.5t-64.5 -13.5q-46 0 -75 21.5t-41 45.5v-192h-50zM333 543q0 57 -30.5 94t-80.5 37t-80.5 -37t-30.5 -94q0 -58 30.5 -95.5t80.5 -37.5
q25 0 45.5 10t35 28t22.5 42t8 53z" />
    <glyph glyph-name="q.ordn" horiz-adv-x="422" 
d="M310 240v193q-13 -25 -41.5 -46.5t-74.5 -21.5q-35 0 -64 14t-49 38t-31 56.5t-11 70.5q0 36 10.5 68t30.5 56t48.5 37.5t64.5 13.5q25 0 44.5 -6.5t33.5 -17t24 -23t15 -24.5v63h50v-471h-50zM89 544q0 -58 30.5 -96t80.5 -38t80.5 37.5t30.5 96.5q0 56 -30.5 93
t-80.5 37t-80.5 -36.5t-30.5 -93.5z" />
    <glyph glyph-name="r.ordn" horiz-adv-x="257" 
d="M240 659q-7 2 -14.5 3t-15.5 1q-42 0 -69.5 -27t-27.5 -85v-177h-51v337h48q1 -8 1 -27.5v-33.5q15 35 43 50t60 15q8 0 14.5 -0.5t11.5 -1.5v-54z" />
    <glyph glyph-name="s.ordn" horiz-adv-x="325" 
d="M80 479q4 -31 26 -51.5t61 -20.5q32 0 51.5 15.5t19.5 39.5q0 21 -14.5 35t-39.5 19l-55 11q-38 8 -61 32t-23 60q0 21 9 39.5t25 32t37 21.5t45 8q31 0 52.5 -8.5t36 -22t23 -29.5t11.5 -31l-44 -15q-2 12 -7.5 23.5t-15 20.5t-23.5 14.5t-33 5.5q-27 0 -47 -15.5
t-20 -40.5q0 -39 49 -50l54 -11q43 -9 66.5 -33.5t23.5 -61.5q0 -20 -8 -38t-23 -32t-37.5 -22.5t-51.5 -8.5q-32 0 -56 9t-40 23.5t-25 32t-11 35.5z" />
    <glyph glyph-name="t.ordn" horiz-adv-x="251" 
d="M138 711h85v-45h-85v-193q0 -58 55 -58q8 0 16.5 1.5t13.5 3.5v-43q-4 -2 -16 -4.5t-28 -2.5q-42 0 -66.5 24.5t-24.5 71.5v200h-69v45h24q49 0 49 50v59h46v-109z" />
    <glyph glyph-name="u.ordn" horiz-adv-x="398" 
d="M289 424q-12 -25 -39.5 -42t-65.5 -17q-32 0 -55.5 11t-39.5 29.5t-23.5 42.5t-7.5 51v212h50v-204q0 -19 5 -36.5t15.5 -31t27 -21.5t39.5 -8q43 0 66.5 28t23.5 68v205h51v-274q0 -19 1 -37t3 -26h-48q-2 9 -2.5 23t-0.5 27z" />
    <glyph glyph-name="v.ordn" horiz-adv-x="344" 
d="M198 374h-51l-136 337h56l106 -278l105 278h54z" />
    <glyph glyph-name="w.ordn" horiz-adv-x="560" 
d="M307 711l97 -274l84 274h53l-110 -337h-54l-97 277l-96 -277h-55l-111 337h54l86 -274l96 274h53z" />
    <glyph glyph-name="x.ordn" horiz-adv-x="347" 
d="M144 545l-123 166h60l93 -129l93 129h59l-122 -165q2 -3 12 -16.5t23 -31.5t28.5 -38.5t29 -38.5t23 -31t12.5 -16h-60l-99 135q0 -1 -7.5 -11t-18 -25t-23 -32t-23.5 -32t-18 -25t-8 -10h-59z" />
    <glyph glyph-name="y.ordn" horiz-adv-x="348" 
d="M69 237l83 180l-144 294h57l115 -241l106 241h54l-217 -474h-54z" />
    <glyph glyph-name="z.ordn" horiz-adv-x="343" 
d="M37 374v44l203 248h-200v45h263v-44l-204 -249h208v-44h-270z" />
    <glyph glyph-name="numbersign.tf" 
d="M375 458h-148l-44 -198h149zM321 210h-148l-46 -210h-56l45 210h-101v50h112l43 198h-103v50h114l43 201h57l-43 -201h148l43 201h57l-43 -201h109v-50h-120l-44 -198h106v-50h-116l-45 -210h-57z" />
    <glyph glyph-name="dollar.tf" 
d="M263 393v261q-27 -3 -52 -13.5t-43.5 -28t-29.5 -40t-11 -49.5q0 -48 27.5 -79t79.5 -44zM313 321v-267q68 6 105 43.5t37 89.5q0 51 -31 83t-90 46zM263 -113v114q-51 4 -90 22.5t-67 46.5t-44 63t-20 73l55 17q3 -31 15.5 -59.5t33.5 -51.5t50.5 -38.5t66.5 -19.5v279
l-41 10q-71 17 -112.5 60t-41.5 115q0 39 15.5 72.5t42 58.5t62 40.5t75.5 18.5v115h50v-116q43 -4 76 -19t57 -37.5t39 -51.5t22 -60l-54 -18q-5 25 -16 47t-28.5 39.5t-41 29.5t-54.5 16v-271l32 -7q80 -18 125.5 -64t45.5 -120q0 -38 -14.5 -71t-41 -58.5t-64 -41.5
t-83.5 -20v-113h-50z" />
    <glyph glyph-name="percent.tf" 
d="M527 494l-482 -328v58l482 329v-59zM70 581q0 -38 24.5 -62t60.5 -24q37 0 61.5 24t24.5 62q0 37 -24.5 61t-61.5 24q-36 0 -60.5 -24t-24.5 -61zM21 581q0 28 10.5 52t28.5 42t42.5 28.5t52.5 10.5t52.5 -10.5t43 -28.5t29 -42t10.5 -52q0 -29 -10.5 -53.5t-29 -42.5
t-43 -28t-52.5 -10t-52.5 10t-42.5 28t-28.5 42.5t-10.5 53.5zM319 126q0 -37 24.5 -61.5t60.5 -24.5q37 0 61 24.5t24 61.5t-24 61.5t-61 24.5q-36 0 -60.5 -24.5t-24.5 -61.5zM270 126q0 28 10.5 52.5t28.5 42.5t42.5 28t52.5 10t52.5 -10t42.5 -28t28.5 -42.5t10.5 -52.5
t-10.5 -52.5t-28.5 -42.5t-42.5 -28t-52.5 -10t-52.5 10t-42.5 28t-28.5 42.5t-10.5 52.5z" />
    <glyph glyph-name="plus.tf" 
d="M308 373h195v-50h-195v-210h-53v210h-193v50h193v207h53v-207z" />
    <glyph glyph-name="zero.tf" 
d="M26 354q0 63 11 128t40 118q29 54 78.5 87.5t126.5 33.5t126.5 -33.5t78.5 -87.5q29 -53 40 -118t11 -128t-11 -127.5t-40 -117.5q-29 -54 -78 -87.5t-127 -33.5t-127 33.5t-78 87.5t-40 118.5t-11 126.5zM476 354q0 59 -9.5 115t-32 99.5t-59.5 70t-93 26.5t-93.5 -26.5
t-59.5 -70t-31 -99.5t-9 -115t9 -114.5t31.5 -99t59.5 -70t93 -26.5t93 26.5t59.5 70t32 99t9.5 114.5z" />
    <glyph glyph-name="one.tf" 
d="M274 56v540q-7 -14 -24.5 -29.5t-41.5 -29t-53.5 -22.5t-59.5 -11v53q37 3 67.5 16.5t53.5 34t38.5 46.5t22.5 55h58v-653h184v-56h-443v56h198z" />
    <glyph glyph-name="two.tf" 
d="M52 0q1 69 33.5 136.5t107.5 116.5l136 89q56 37 85.5 77.5t29.5 94.5q0 31 -10.5 58.5t-31 48.5t-50 33t-66.5 12q-39 0 -70.5 -12.5t-54 -35t-34.5 -54.5t-12 -72q0 -18 3 -37l-60 5q-2 8 -3 20t-1 20q0 45 15.5 85.5t45 70.5t72.5 47.5t97 17.5q52 0 93.5 -16t70 -44
t43.5 -65.5t15 -79.5q0 -69 -38 -121t-97 -91l-147 -96q-37 -24 -64.5 -63t-33.5 -87h388v-58h-462z" />
    <glyph glyph-name="three.tf" 
d="M525 209q0 -46 -18 -86.5t-50.5 -70.5t-77 -47t-97.5 -17q-54 0 -98.5 16.5t-76.5 46t-50 70t-21 87.5l60 13q1 -41 16.5 -73.5t40.5 -56t58 -36t71 -12.5q39 0 72 12.5t57 34.5t37.5 52.5t13.5 66.5q0 75 -47 120t-126 45q-17 0 -35 -3.5t-33 -8.5l-28 47l236 243h-376
v57h453v-56l-231 -236q9 3 20 4.5t17 1.5q43 -1 81.5 -15.5t67.5 -42t46.5 -67t17.5 -89.5z" />
    <glyph glyph-name="four.tf" 
d="M15 245l322 464h84v-479h127v-56h-127v-174h-61v174h-345v71zM360 646l-287 -416h287v416z" />
    <glyph glyph-name="five.tf" 
d="M95 209q4 -35 18.5 -65t38 -52.5t55 -35.5t70.5 -13q41 0 74.5 14t57 38t36.5 56.5t13 70.5q0 41 -13 74.5t-37 57t-57 36.5t-73 13q-50 0 -91 -21t-68 -58l-60 23l75 362h357v-57h-314l-53 -264q30 35 76 52t90 17q52 0 94.5 -16.5t72.5 -47.5t46.5 -74t16.5 -96
q0 -49 -17 -92t-49 -74.5t-77 -50t-100 -18.5q-51 0 -93 16t-73 44t-49.5 65.5t-22.5 80.5z" />
    <glyph glyph-name="six.tf" 
d="M308 464q49 0 90.5 -17t72.5 -48.5t48.5 -75.5t17.5 -98q0 -52 -19.5 -95.5t-53 -75t-78 -49t-93.5 -17.5q-57 0 -105 22t-83 63.5t-54.5 102t-19.5 137.5q0 104 27.5 181t74.5 127.5t109.5 75t132.5 24.5q50 0 88 -11.5t63 -28.5l-19 -52q-23 14 -56.5 25t-78.5 11
q-72 0 -124.5 -27.5t-87 -74.5t-52 -109.5t-18.5 -132.5v-13q7 29 24.5 57t45 50t64.5 35.5t84 13.5zM110 225q0 -41 15 -74.5t40 -57.5t58 -37.5t69 -13.5q37 0 70.5 13.5t58.5 37.5t39.5 57.5t14.5 74.5q0 42 -14 76.5t-38 58.5t-56.5 37t-70.5 13q-39 0 -72.5 -14
t-59 -39t-40 -59t-14.5 -73z" />
    <glyph glyph-name="seven.tf" 
d="M540 650q-57 -53 -109 -117.5t-94 -144t-72 -175.5t-42 -213h-64q12 125 45 226.5t76.5 181.5t93 140t95.5 104h-430v57h501v-59z" />
    <glyph glyph-name="eight.tf" 
d="M283 337q-43 0 -76 -11.5t-55 -31.5t-33.5 -47t-11.5 -58t12 -58t34.5 -47t55 -31.5t74.5 -11.5t74.5 11.5t55 31.5t34.5 47t12 58t-11.5 58t-33.5 47t-55 31.5t-76 11.5zM283 -12q-56 0 -100 15t-74.5 41.5t-46.5 62t-16 77.5q0 66 40.5 114.5t108.5 64.5
q-30 7 -55 23.5t-42.5 38.5t-27.5 49.5t-10 57.5q0 40 16 75t45 60t70.5 39.5t91.5 14.5t91 -14.5t70.5 -39.5t45.5 -60t16 -75q0 -30 -10 -57.5t-28 -49.5t-43 -38.5t-55 -23.5q69 -16 109.5 -64.5t40.5 -114.5q0 -42 -16 -77.5t-46.5 -62t-74.5 -41.5t-100 -15zM283 388
q37 0 67 10.5t51 29.5t32.5 45t11.5 56t-11 55t-32 44t-51 29.5t-68 10.5t-68 -10.5t-51 -29.5t-32 -44t-11 -55t11.5 -56t32.5 -45t51 -29.5t67 -10.5z" />
    <glyph glyph-name="nine.tf" 
d="M33 484q0 52 18 96t49.5 75t75 48.5t94.5 17.5q120 0 188.5 -87.5t68.5 -254.5q0 -99 -20.5 -172.5t-58 -122t-91.5 -72.5t-120 -24q-32 0 -62 6t-55.5 16.5t-45 24t-31.5 28.5l32 49q24 -29 65 -49t98 -20q109 0 168 79t61 235v13.5t-1 19.5q-9 -32 -27.5 -57t-45 -42.5
t-59 -27t-68.5 -9.5q-47 0 -89 15.5t-74 45t-51 72.5t-19 97zM446 488q0 39 -14 71.5t-38 56.5t-56 37t-69 13t-69 -12.5t-56 -36t-37.5 -56.5t-13.5 -73q0 -42 13.5 -75.5t37.5 -57t56 -35.5t70 -12t70.5 12.5t56 35.5t36.5 56.5t13 75.5z" />
    <glyph glyph-name="less.tf" 
d="M463 174v-61l-402 207v55l402 207v-60l-343 -174z" />
    <glyph glyph-name="equal.tf" 
d="M59 420v50h447v-50h-447zM59 226v51h447v-51h-447z" />
    <glyph glyph-name="greater.tf" 
d="M446 348l-344 174v60l402 -207v-55l-402 -207v61z" />
    <glyph glyph-name="cent.tf" 
d="M322 0h-51v99q-45 4 -83 24.5t-65.5 53t-43 76t-15.5 95.5q0 51 15.5 95t43 76.5t65.5 53t83 25.5v111h51v-111q74 -6 120 -48t62 -102l-53 -21q-5 19 -15.5 38.5t-26 35.5t-37.5 27t-50 15v-390q28 4 50.5 15.5t39 27.5t27.5 35t17 38l51 -20q-8 -28 -24 -53.5
t-39.5 -46t-54 -34.5t-67.5 -17v-98zM123 348q0 -41 11 -74.5t30.5 -58.5t47 -40.5t59.5 -20.5v388q-64 -10 -106 -61.5t-42 -132.5z" />
    <glyph glyph-name="sterling.tf" 
d="M532 181q-5 -81 -51 -131t-126 -50h-311v56q22 14 42.5 33.5t36.5 43.5t25.5 53.5t9.5 62.5q0 17 -2.5 31.5t-6.5 29.5h-95v53h79q-16 35 -29.5 72.5t-13.5 83.5q0 43 15 80t42 64t65.5 42.5t86.5 15.5q46 0 82 -14.5t60.5 -39.5t38 -57.5t16.5 -68.5l-57 -13
q-2 29 -12 54.5t-28 44t-43.5 29t-57.5 10.5q-31 0 -57.5 -10.5t-46 -29.5t-31 -47t-11.5 -62q0 -44 15.5 -80t29.5 -74h192v-53h-177q3 -14 5 -28t2 -31q0 -34 -8 -63t-21.5 -54t-31.5 -44.5t-37 -34.5h224q60 0 92.5 37t37.5 97z" />
    <glyph glyph-name="currency.tf" 
d="M411 177q-54 -42 -126 -42q-37 0 -70.5 12t-60.5 34l-72 -75l-38 38l73 75q-21 26 -33 59t-12 70q0 38 12.5 72t34.5 60l-74 77l39 37l73 -76q27 20 60 31.5t68 11.5q71 0 123 -40l72 73l38 -37l-70 -73q23 -27 37 -62t14 -74q0 -38 -13 -73t-36 -61l69 -70l-38 -38z
M126 348q0 -34 12.5 -63.5t34 -51t50.5 -34t62 -12.5t62 12.5t50.5 34t34 51t12.5 63.5t-12.5 63.5t-34 51.5t-50.5 34t-62 12t-62 -12t-50.5 -34t-34 -51.5t-12.5 -63.5z" />
    <glyph glyph-name="yen.tf" 
d="M313 175v-175h-62v175h-189v50h189v84h-189v50h160l-207 350h71l198 -339l197 339h67l-206 -350h162v-50h-191v-84h191v-50h-191z" />
    <glyph glyph-name="logicalnot.tf" 
d="M439 218v201h-385v53h440v-254h-55z" />
    <glyph glyph-name="plusminus.tf" 
d="M308 384v-145h-53v145h-188v50h188v145h53v-145h189v-50h-189zM67 125v51h430v-51h-430z" />
    <glyph glyph-name="multiply.tf" 
d="M283 385l177 184l36 -36l-179 -185l180 -186l-36 -37l-179 186l-178 -185l-36 36l178 186l-177 184l36 37z" />
    <glyph glyph-name="divide.tf" 
d="M235 170q0 20 14 33.5t34 13.5t33.5 -13.5t13.5 -33.5t-13.5 -34t-33.5 -14t-34 14t-14 34zM235 525q0 20 14 34t34 14t33.5 -14t13.5 -34t-13.5 -34t-33.5 -14t-34 14t-14 34zM62 322v53h441v-53h-441z" />
    <glyph glyph-name="perthousand.tf" 
d="M524 586l-482 -371v58l482 373v-60zM18 599q0 24 9 45t25 36.5t36.5 24.5t44.5 9t45 -9t37 -24.5t25 -36.5t9 -45t-9 -45t-25 -36.5t-37 -24.5t-45 -9t-44.5 9t-36.5 24.5t-25 36.5t-9 45zM63 599q0 -31 20.5 -51t49.5 -20q30 0 50 20t20 51t-20 51t-50 20
q-29 0 -49.5 -20t-20.5 -51zM164 104q0 -30 20.5 -50t49.5 -20q30 0 50.5 20t20.5 50q0 31 -20.5 51t-50.5 20q-29 0 -49.5 -20t-20.5 -51zM349 104q0 -30 20.5 -50t50.5 -20t50 20t20 50q0 31 -20 51t-50 20t-50.5 -20t-20.5 -51zM119 104q0 24 9 45t25 36.5t36.5 24.5
t44.5 9q29 0 53.5 -13t39.5 -36q15 23 39.5 36t53.5 13q24 0 45 -9t36.5 -24.5t25 -36.5t9.5 -45t-9.5 -45t-25 -36t-36.5 -24t-45 -9q-29 0 -53.5 13t-39.5 36q-15 -23 -39.5 -36t-53.5 -13q-24 0 -44.5 9t-36.5 24t-25 36t-9 45z" />
    <glyph glyph-name="Euro.tf" 
d="M539 9q-26 -9 -54 -14.5t-63 -5.5q-62 0 -114 19t-92.5 54t-68 83t-40.5 107h-90v49h83q-3 22 -3 46q0 14 1 27.5t3 27.5h-84v49h92q15 61 45.5 111t73 85t95.5 54t112 19q35 0 63.5 -5.5t50.5 -13.5l-17 -52q-17 5 -42 10t-55 5q-49 0 -91.5 -15.5t-76.5 -43t-58 -67
t-37 -87.5h296l-14 -49h-292q-2 -14 -3 -28t-1 -28q0 -23 3 -45h265l-14 -49h-243q12 -49 35.5 -87.5t56.5 -65.5t74.5 -41t88.5 -14q29 0 55.5 4.5t45.5 11.5z" />
    <glyph glyph-name="minus.tf" 
d="M72 323v50h421v-50h-421z" />
    <glyph glyph-name="approxequal.tf" 
d="M520 256q-26 -35 -57.5 -54t-73.5 -19q-23 0 -47 8t-50 22l-47 25q-17 9 -35 14.5t-34 5.5q-30 0 -53 -12t-43 -37l-34 30q26 36 57 55t72 19q23 0 46.5 -7.5t49.5 -21.5l46 -25q19 -10 39 -16t38 -6q29 0 51 11.5t42 36.5zM520 449q-26 -35 -57.5 -53.5t-73.5 -18.5
q-23 0 -47 7.5t-50 21.5l-47 25q-35 20 -69 20q-30 0 -53 -12t-43 -37l-34 31q26 36 57 55t72 19q23 0 46.5 -8t49.5 -22l46 -24q19 -11 39 -17t38 -6q29 0 51 11.5t42 37.5z" />
    <glyph glyph-name="notequal.tf" 
d="M227 226l-85 -110h-62l85 110h-107v51h145l110 143h-255v50h292l83 107h62l-83 -107h92v-50h-129l-110 -143h239v-51h-277z" />
    <glyph glyph-name="lessequal.tf" 
d="M76 381v53l404 147v-54l-336 -120l336 -118v-55zM76 125v51h404v-51h-404z" />
    <glyph glyph-name="greaterequal.tf" 
d="M85 289l336 118l-336 120v54l404 -147v-53l-404 -147v55zM85 125v51h404v-51h-404z" />
    <glyph glyph-name="one.ss05" horiz-adv-x="492" 
d="M54 0v56h185v540q-7 -14 -24 -29.5t-41 -29t-53 -22.5t-59 -11v53q36 3 66 16.5t53 34t38.5 46.5t22.5 55h59v-653h171v-56h-418z" />
    <glyph glyph-name="caron.alt" horiz-adv-x="194" 
d="M91 533h-46l36 176h68z" />
    <glyph glyph-name="commaturn" horiz-adv-x="189" 
d="M142 573q0 -19 -13.5 -30.5t-32.5 -11.5q-18 0 -34.5 13.5t-16.5 45.5q0 25 8.5 44.5t22.5 33t31.5 21t36.5 8.5v-30q-26 -2 -43.5 -18.5t-19.5 -39.5q6 6 19 6q18 0 30 -11t12 -31z" />
    <glyph glyph-name="dieresis.narrow" horiz-adv-x="296" 
d="M45 610q0 17 11.5 28.5t28.5 11.5t28.5 -11.5t11.5 -28.5t-11.5 -28.5t-28.5 -11.5t-28.5 11.5t-11.5 28.5zM171 610q0 17 11.5 28.5t28.5 11.5t28.5 -11.5t11.5 -28.5t-11.5 -28.5t-28.5 -11.5t-28.5 11.5t-11.5 28.5z" />
    <glyph glyph-name="dieresis.uc.narrow" horiz-adv-x="303" 
d="M45 819q0 17 11.5 28.5t28.5 11.5t28.5 -11.5t11.5 -28.5t-11.5 -28.5t-28.5 -11.5t-28.5 11.5t-11.5 28.5zM178 819q0 17 11.5 28.5t28.5 11.5t28.5 -11.5t11.5 -28.5t-11.5 -28.5t-28.5 -11.5t-28.5 11.5t-11.5 28.5z" />
    <glyph glyph-name="grave.uc" horiz-adv-x="281" 
d="M45 878h84l107 -119h-57z" />
    <glyph glyph-name="dieresis.uc" horiz-adv-x="380" 
d="M45 819q0 18 12.5 30.5t30.5 12.5t30.5 -12.5t12.5 -30.5t-12.5 -30.5t-30.5 -12.5t-30.5 12.5t-12.5 30.5zM249 819q0 18 12.5 30.5t30.5 12.5t30.5 -12.5t12.5 -30.5t-12.5 -30.5t-30.5 -12.5t-30.5 12.5t-12.5 30.5z" />
    <glyph glyph-name="macron.uc" horiz-adv-x="362" 
d="M45 793v52h272v-52h-272z" />
    </font>
</defs>
</svg>
